<svg width="56" height="63" viewBox="0 0 56 63" fill="none" xmlns="http://www.w3.org/2000/svg">
<path d="M53.5565 40.5338C52.5309 39.9641 51.3507 39.8241 50.2277 40.1414C49.2668 40.411 48.4633 41.0002 47.894 41.7953L40.4591 37.5028L50.0945 34.9421C50.5417 34.8244 50.8084 34.3625 50.6875 33.915C50.5686 33.4705 50.1034 33.2019 49.6562 33.3196L38.3943 36.3125L35.1869 34.4608L42.5069 31.2442L35.176 28.0109L38.3811 26.168L49.6505 29.2005C50.0982 29.3213 50.5598 29.0556 50.6793 28.6092C50.801 28.1622 50.5278 27.7068 50.0841 27.579L40.4383 24.9833L47.8719 20.7123C48.2325 21.2107 48.6657 21.6544 49.1996 21.9626C50.5279 22.7295 52.1833 22.7456 53.5215 22.0037C55.6234 20.8355 56.3757 18.17 55.2001 16.0641C54.0614 14.0335 51.2656 13.2455 49.2425 14.3679C48.2265 14.9368 47.4858 15.8637 47.1724 16.989C46.962 17.716 46.973 18.4703 47.1455 19.1876L39.5947 23.5287L42.1609 13.9096C42.2834 13.4612 42.0106 13.0115 41.5657 12.8793C41.1165 12.7577 40.6549 13.0233 40.536 13.4719L37.5356 24.7104L34.3299 26.5512L35.1838 18.6098L28.7306 23.3184L28.7239 19.6248L36.9546 11.4135C37.2845 11.0849 37.2813 10.5564 36.9516 10.2247C36.6197 9.9065 36.0908 9.89702 35.7617 10.2243L28.7182 17.2529L28.7041 8.65029C30.7126 8.26182 32.2352 6.49503 32.2317 4.37183C32.2271 2.05636 30.1853 0.00113359 27.8468 1.18651e-05C25.4362 -0.00555969 23.4766 1.95179 23.4795 4.35748C23.4814 5.91406 24.3243 7.36642 25.6779 8.14791C26.0926 8.38738 26.5478 8.53106 27.0197 8.62302L27.0356 17.2453L19.969 10.192C19.6354 9.87662 19.1046 9.86412 18.7777 10.1908C18.4484 10.5217 18.4508 11.0515 18.7799 11.3811L27.0394 19.6236L27.0459 23.3207L20.5803 18.5887L21.4571 26.532L18.2455 24.6778L15.2058 13.4296C15.0841 12.9835 14.6217 12.7165 14.1745 12.8342C13.725 12.9524 13.4584 13.4144 13.5815 13.8613L16.1809 23.4839L8.61434 19.1154C9.03827 17.2873 8.25028 15.3029 6.50016 14.2925L6.49876 14.2917C4.391 13.1175 1.72091 13.872 0.544422 15.9745C-0.608318 18.0423 0.129751 20.6956 2.18955 21.8849L2.2484 21.9188C4.20741 23.0108 6.63166 22.4232 7.9103 20.6551L15.341 24.9452L5.7094 27.5026C5.25999 27.6208 4.99411 28.0813 5.11641 28.5297C5.17715 28.7545 5.32323 28.9319 5.51099 29.0403C5.69735 29.1479 5.92701 29.1837 6.15051 29.1267L17.4086 26.1371L20.6202 27.9913L13.299 31.2034L20.6305 34.439L17.4336 36.2774L6.15406 33.2464C5.7041 33.1262 5.24408 33.389 5.12217 33.8396C5.00328 34.2883 5.27712 34.7459 5.71966 34.8693L15.3685 37.463L7.94422 41.7338C6.67615 40.0211 4.15448 39.4119 2.28277 40.4468C1.26258 41.0133 0.5261 41.9426 0.208519 43.0655C-0.107452 44.1855 0.0323254 45.364 0.604167 46.3863C0.98905 47.0756 1.55388 47.6473 2.23628 48.0413C3.56464 48.8082 5.2206 48.8265 6.55883 48.0845C7.57982 47.5167 8.3141 46.5879 8.63168 45.4651C8.83874 44.7343 8.83114 43.9838 8.66106 43.2622L16.211 38.9225L13.6466 48.5353C13.5473 48.9078 13.7167 49.294 14.039 49.4801C14.1021 49.5165 14.1716 49.5418 14.2435 49.5628C14.6926 49.6844 15.1551 49.4174 15.2746 48.971L18.2726 37.7367L21.4769 35.8951L20.6251 43.8359L27.0747 39.1271L27.0853 42.8173L18.8559 51.0294C18.5266 51.3603 18.5284 51.8879 18.8567 52.2188C18.9101 52.272 18.9681 52.3203 19.0298 52.3559C19.3549 52.5436 19.769 52.4962 20.0456 52.2242L27.0915 45.1914L27.1055 53.7976C25.0961 54.1875 23.5751 55.9515 23.5772 58.0739C23.5791 59.6304 24.4242 61.0822 25.7764 61.8629C26.4392 62.2456 27.1943 62.4489 27.9619 62.4493C29.1358 62.4516 30.2288 62.0016 31.0548 61.176C31.8814 60.3527 32.3345 59.2541 32.3322 58.0898C32.3306 56.0571 30.7535 54.2292 28.7893 53.8097L28.7722 45.196L35.8425 52.2589C36.1757 52.5815 36.7056 52.586 37.033 52.2615C37.3617 51.9284 37.3563 51.4006 37.0308 51.0713L28.7673 42.8227L28.7606 39.1292L35.2326 43.8631L34.3494 35.9179L37.5638 37.7737L40.598 49.0187C40.6615 49.2451 40.8076 49.4225 40.9925 49.5293C41.1789 49.6369 41.4086 49.6727 41.6307 49.6149C42.0801 49.4966 42.3459 49.0361 42.2237 48.5878L39.6284 38.9676L47.1964 43.337C46.771 45.1642 47.5504 47.1474 49.2543 48.1311L49.3117 48.1643C51.4209 49.3392 54.091 48.5847 55.2601 46.4854C56.4104 44.4088 55.678 41.7587 53.5565 40.5338ZM48.7939 17.4489C48.9892 16.7578 49.4421 16.1838 50.0685 15.8366C50.9038 15.3736 51.8984 15.3822 52.7307 15.8627C52.7615 15.8805 52.7845 15.9087 52.8137 15.9293C53.191 16.1657 53.5119 16.4868 53.733 16.8805C53.7885 16.9851 53.8257 17.0922 53.8707 17.2019C54.3672 18.4356 53.8913 19.8746 52.7013 20.5346C51.5861 21.1523 50.1242 20.8498 49.3128 19.8864C49.2093 19.7615 49.1126 19.6312 49.0318 19.4897C48.8241 19.1148 48.7206 18.7053 48.7056 18.291C48.6982 18.0095 48.7154 17.7273 48.7939 17.4489ZM25.1668 4.36036C25.1648 3.16651 25.9586 2.16047 27.044 1.81769C27.3008 1.73525 27.5692 1.6781 27.8537 1.68047C28.1296 1.68158 28.3967 1.73346 28.6591 1.81612C28.8432 1.87588 29.0299 1.94087 29.198 2.03795C30.0317 2.5193 30.5502 3.41404 30.5516 4.3694C30.5555 5.55686 29.7745 6.55357 28.7031 6.90445C28.4373 6.99283 28.1602 7.04873 27.8639 7.05069C27.5714 7.04927 27.2883 6.98629 27.0187 6.89018C25.9674 6.51392 25.168 5.49418 25.1668 4.36036ZM1.88403 17.107C1.9248 17.004 1.96379 16.8944 2.0204 16.7932C2.24764 16.3866 2.57087 16.0727 2.94219 15.8405C3.75009 15.3376 4.80363 15.2667 5.71608 15.7767C6.60585 16.2904 7.08283 17.2506 7.05057 18.2125C7.03583 18.6264 6.9417 19.0353 6.72896 19.4168C6.64899 19.5585 6.55542 19.685 6.45625 19.8082C5.64866 20.7895 4.22482 21.0876 3.06793 20.4476L2.61555 21.1502L3.0329 20.4274C1.86568 19.7535 1.40299 18.3253 1.88403 17.107ZM7.01421 44.9982C6.81889 45.6893 6.36384 46.2639 5.73739 46.6111C4.90374 47.0713 3.90856 47.0605 3.07763 46.5808C3.04821 46.5638 3.02523 46.5356 2.99521 46.5164C2.61733 46.2778 2.29561 45.9581 2.07593 45.5652C2.01827 45.4612 1.97967 45.3533 1.93665 45.2466C1.71599 44.6968 1.66908 44.0985 1.83383 43.5219C2.03056 42.8317 2.48178 42.2605 3.11124 41.9113C3.94731 41.4469 4.94109 41.4569 5.77342 41.9374C6.05226 42.0984 6.28021 42.3249 6.48686 42.5689C6.58897 42.693 6.69791 42.8117 6.77712 42.956C6.98702 43.3303 7.08917 43.7391 7.1055 44.1541C7.11135 44.4384 7.09275 44.7198 7.01421 44.9982ZM29.2893 55.7525C30.1244 56.2347 30.6387 57.127 30.6407 58.0845C30.643 58.8022 30.3639 59.4765 29.8549 59.9828C29.5427 60.2937 29.166 60.5061 28.7575 60.6312C28.5037 60.7116 28.2339 60.768 27.9502 60.7642C27.6749 60.7653 27.4097 60.707 27.1555 60.6198C26.082 60.2624 25.2568 59.2259 25.2559 58.0755C25.2513 56.8894 26.0306 55.8955 27.103 55.5396C27.3661 55.4496 27.6445 55.3946 27.9414 55.3948C28.2305 55.3924 28.5136 55.4554 28.785 55.5451C28.9583 55.6042 29.1324 55.6619 29.2893 55.7525ZM27.9136 36.4315L22.704 40.2319L23.3933 33.8217L22.4381 33.3986L17.4739 31.208L23.3828 28.6169L22.6755 22.1986L27.0533 25.4015L27.8967 26.015L33.1055 22.216L32.4155 28.6276L38.3342 31.2391L33.3787 33.4149L32.4235 33.8366L32.5364 34.8674L33.1312 40.2477L27.9136 36.4315ZM48.7542 44.2308C48.7695 43.8191 48.8664 43.4118 49.0786 43.0281C49.1577 42.8878 49.2527 42.7621 49.3499 42.6359C49.6938 42.2149 50.1556 41.9102 50.6897 41.7553C51.3819 41.5595 52.109 41.6463 52.7794 42.0222C53.9382 42.6912 54.4029 44.1224 53.9229 45.3357C53.8797 45.4428 53.8379 45.5508 53.7835 45.6515C53.5579 46.0553 53.2347 46.3692 52.8689 46.6046C52.061 47.1076 51.0159 47.1833 50.1223 46.686L49.6735 47.3888L50.0901 46.6674C49.1973 46.1556 48.7209 45.1977 48.7542 44.2308Z" fill="#024873"/>
</svg>
