<svg xmlns="http://www.w3.org/2000/svg" xmlns:xlink="http://www.w3.org/1999/xlink" viewBox="0 0 127.41 127.41"><defs><style>.cls-1{isolation:isolate;}.cls-2,.cls-30,.cls-31{fill:#cc5b29;}.cls-3{fill:#fff;}.cls-10,.cls-13,.cls-14,.cls-15,.cls-16,.cls-17,.cls-18,.cls-19,.cls-20,.cls-4,.cls-9{opacity:0.6;}.cls-10,.cls-11,.cls-12,.cls-13,.cls-14,.cls-15,.cls-16,.cls-17,.cls-18,.cls-19,.cls-20,.cls-22,.cls-23,.cls-24,.cls-25,.cls-26,.cls-27,.cls-28,.cls-29,.cls-30,.cls-4,.cls-5,.cls-6,.cls-9{mix-blend-mode:multiply;}.cls-5,.cls-7{fill:#9e461a;}.cls-8{fill:#773c12;}.cls-9{fill:url(#radial-gradient);}.cls-10{fill:url(#radial-gradient-2);}.cls-11{fill:url(#radial-gradient-3);}.cls-12{fill:url(#radial-gradient-4);}.cls-13{fill:url(#radial-gradient-5);}.cls-14{fill:url(#radial-gradient-6);}.cls-15{fill:url(#radial-gradient-7);}.cls-16{fill:url(#radial-gradient-8);}.cls-17{fill:url(#radial-gradient-9);}.cls-18{fill:url(#radial-gradient-10);}.cls-19{fill:url(#radial-gradient-11);}.cls-20{fill:url(#radial-gradient-12);}.cls-21{fill:#c4c6c8;}.cls-22{fill:url(#radial-gradient-13);}.cls-23{fill:url(#radial-gradient-14);}.cls-24{fill:url(#radial-gradient-15);}.cls-25{fill:url(#radial-gradient-16);}.cls-26{fill:url(#radial-gradient-17);}.cls-27{fill:url(#radial-gradient-18);}.cls-28{fill:url(#radial-gradient-19);}.cls-29{fill:url(#radial-gradient-20);}.cls-30{opacity:0.4;}.cls-31{mix-blend-mode:screen;}</style><radialGradient id="radial-gradient" cx="77.85" cy="26.69" r="83.19" gradientTransform="matrix(0.58, 0.78, -0.7, 0.65, 56.48, -55.89)" gradientUnits="userSpaceOnUse"><stop offset="0" stop-color="#451200"/><stop offset="0.21" stop-color="#501705"/><stop offset="0.68" stop-color="#641f0e"/><stop offset="1" stop-color="#6b2211"/></radialGradient><radialGradient id="radial-gradient-2" cx="76.18" cy="29.47" r="83.2" gradientTransform="matrix(0.59, 0.77, -0.69, 0.65, 55.75, -57.67)" xlink:href="#radial-gradient"/><radialGradient id="radial-gradient-3" cx="45.24" cy="53.47" r="50.45" gradientTransform="matrix(0.58, 0.78, -0.7, 0.65, 56.48, -55.89)" gradientUnits="userSpaceOnUse"><stop offset="0" stop-color="#fff"/><stop offset="0.17" stop-color="#f8f8f7"/><stop offset="0.42" stop-color="#e6e4e1"/><stop offset="0.73" stop-color="#c7c4be"/><stop offset="1" stop-color="#a9a49a"/></radialGradient><radialGradient id="radial-gradient-4" cx="40.42" cy="53.41" r="48.04" xlink:href="#radial-gradient-3"/><radialGradient id="radial-gradient-5" cx="86.44" cy="16.54" r="6.08" gradientTransform="matrix(0.58, 0.78, -0.7, 0.65, 56.48, -55.89)" gradientUnits="userSpaceOnUse"><stop offset="0.55" stop-color="#8e8e8e"/><stop offset="0.56" stop-color="#8b8685"/><stop offset="0.62" stop-color="#826861"/><stop offset="0.68" stop-color="#794e44"/><stop offset="0.74" stop-color="#733b2e"/><stop offset="0.81" stop-color="#6e2d1d"/><stop offset="0.89" stop-color="#6c2514"/><stop offset="1" stop-color="#6b2211"/></radialGradient><radialGradient id="radial-gradient-6" cx="83.41" cy="25.93" r="6.24" xlink:href="#radial-gradient-5"/><radialGradient id="radial-gradient-7" cx="81.37" cy="37.04" r="6.33" xlink:href="#radial-gradient-5"/><radialGradient id="radial-gradient-8" cx="79.75" cy="47.55" r="6.46" xlink:href="#radial-gradient-5"/><radialGradient id="radial-gradient-9" cx="78.84" cy="59.9" r="6.63" xlink:href="#radial-gradient-5"/><radialGradient id="radial-gradient-10" cx="79.1" cy="71.69" r="6.94" xlink:href="#radial-gradient-5"/><radialGradient id="radial-gradient-11" cx="78.78" cy="76.61" r="7.58" gradientTransform="matrix(0.52, 0.83, -0.75, 0.57, 61.76, -50.17)" xlink:href="#radial-gradient-5"/><radialGradient id="radial-gradient-12" cx="80.59" cy="94.3" r="7.62" xlink:href="#radial-gradient-5"/><radialGradient id="radial-gradient-13" cx="86.03" cy="15.66" r="5.29" xlink:href="#radial-gradient-3"/><radialGradient id="radial-gradient-14" cx="83" cy="24.17" r="6.06" xlink:href="#radial-gradient-3"/><radialGradient id="radial-gradient-15" cx="80.74" cy="34.41" r="6.15" xlink:href="#radial-gradient-3"/><radialGradient id="radial-gradient-16" cx="79.09" cy="46.19" r="6.27" xlink:href="#radial-gradient-3"/><radialGradient id="radial-gradient-17" cx="77.97" cy="57.35" r="6.49" xlink:href="#radial-gradient-3"/><radialGradient id="radial-gradient-18" cx="78.15" cy="69.05" r="6.78" xlink:href="#radial-gradient-3"/><radialGradient id="radial-gradient-19" cx="77.09" cy="73.48" r="7.4" gradientTransform="matrix(0.52, 0.83, -0.75, 0.57, 61.76, -50.17)" xlink:href="#radial-gradient-3"/><radialGradient id="radial-gradient-20" cx="79.28" cy="90.69" r="7.49" xlink:href="#radial-gradient-3"/></defs><g class="cls-1"><g id="Calque_1" data-name="Calque 1"><path class="cls-2" d="M101.13,110.09c-36.76,34.12-79.87,30.2-88.49,18.64S8.38,69.17,45.15,35,127.59,8.29,133.64,16.4,137.89,76,101.13,110.09Z" transform="translate(-8.88 -9.59)"/><path class="cls-3" d="M45,98.65c-7.88-10.57-18.9-16.52-30.29-17.58a107,107,0,0,0-4.32,15.69c8.81-.19,17.6,3.92,23.67,12A36.34,36.34,0,0,1,40.42,137,78.88,78.88,0,0,0,55,135.08,53.07,53.07,0,0,0,45,98.65Z" transform="translate(-8.88 -9.59)"/><path class="cls-3" d="M118.55,30.4A57.74,57.74,0,0,1,129.73,66a118.22,118.22,0,0,0,5-18.8A46,46,0,0,0,126,23.5,38.55,38.55,0,0,0,106.65,9.6a87.26,87.26,0,0,0-17.48,2.07C100.27,13.68,110.8,20,118.55,30.4Z" transform="translate(-8.88 -9.59)"/><g class="cls-4"><path class="cls-5" d="M104.4,20.39a.17.17,0,0,1-.16-.16.18.18,0,0,1,.15-.2l.64,0a.16.16,0,0,1,.16.17.17.17,0,0,1-.15.18c-.38,0-.62,0-.63,0Z" transform="translate(-8.88 -9.59)"/><path class="cls-5" d="M36.26,83.74a.16.16,0,0,1-.16-.17.17.17,0,0,1,.16-.18,10.16,10.16,0,0,0,1.23-.08.16.16,0,0,1,.18.15.17.17,0,0,1-.14.2A10.83,10.83,0,0,1,36.26,83.74ZM35,83.66h0a10.63,10.63,0,0,1-1.25-.25.19.19,0,0,1-.12-.22.16.16,0,0,1,.19-.13,10.15,10.15,0,0,0,1.22.25.16.16,0,0,1,.13.19A.16.16,0,0,1,35,83.66Zm3.73-.25a.16.16,0,0,1-.15-.13.19.19,0,0,1,.12-.22,9,9,0,0,0,1.18-.39.16.16,0,0,1,.21.11A.18.18,0,0,1,40,83a10.93,10.93,0,0,1-1.22.41ZM32.57,83h0l-.27-.12c-.22-.09-.34-.35-.34-.76a3.17,3.17,0,0,1,0-.41.18.18,0,0,1,.18-.16.19.19,0,0,1,.14.21,2.38,2.38,0,0,0,0,.36c0,.14,0,.38.13.43l.26.12a.17.17,0,0,1,.1.22A.16.16,0,0,1,32.57,83Zm8.54-.52a.17.17,0,0,1-.15-.11.19.19,0,0,1,.08-.23,12.64,12.64,0,0,0,1.11-.64.14.14,0,0,1,.21.07.18.18,0,0,1-.06.24,11.73,11.73,0,0,1-1.13.65Zm2.18-1.39a.14.14,0,0,1-.13-.08.18.18,0,0,1,0-.24c.34-.25.68-.53,1-.82a.16.16,0,0,1,.23,0,.21.21,0,0,1,0,.25c-.34.29-.69.56-1,.82A.16.16,0,0,1,43.29,81.1ZM32.4,80.55h0a.18.18,0,0,1-.1-.22c.11-.4.25-.85.42-1.33a.16.16,0,0,1,.21-.11.19.19,0,0,1,.09.23c-.17.48-.31.92-.42,1.31A.16.16,0,0,1,32.4,80.55Zm12.88-1.16a.16.16,0,0,1-.12-.06.19.19,0,0,1,0-.25c.3-.3.61-.61.91-.94a.15.15,0,0,1,.23,0,.2.2,0,0,1,0,.25c-.31.33-.63.65-.94.95A.13.13,0,0,1,45.28,79.39Zm-12-1.46-.06,0a.18.18,0,0,1-.08-.23c.17-.45.34-.89.5-1.29a.14.14,0,0,1,.21-.08.17.17,0,0,1,.08.23c-.16.4-.33.83-.5,1.28A.17.17,0,0,1,33.29,77.93Zm13.8-.48a.13.13,0,0,1-.11,0,.2.2,0,0,1,0-.25c.28-.33.56-.67.84-1a.14.14,0,0,1,.22,0,.17.17,0,0,1,0,.24c-.28.36-.56.71-.84,1A.17.17,0,0,1,47.09,77.45Zm1.65-2.11a.11.11,0,0,1-.09,0,.2.2,0,0,1,0-.25c.26-.35.52-.72.77-1.1a.16.16,0,0,1,.23,0,.21.21,0,0,1,0,.25q-.39.57-.78,1.11A.16.16,0,0,1,48.74,75.34Zm1.52-2.24a.16.16,0,0,1-.09,0,.18.18,0,0,1,0-.24c.25-.4.49-.78.71-1.16a.15.15,0,0,1,.22,0,.2.2,0,0,1,0,.25c-.22.37-.46.76-.71,1.16A.15.15,0,0,1,50.26,73.1Zm1.39-2.33a.16.16,0,0,1-.09,0,.2.2,0,0,1-.05-.24c.24-.43.46-.84.65-1.2a.14.14,0,0,1,.21-.07.2.2,0,0,1,.06.25c-.19.37-.41.77-.65,1.2A.15.15,0,0,1,51.65,70.77Zm1.28-2.41a.16.16,0,0,1-.09,0,.2.2,0,0,1,0-.25,5.51,5.51,0,0,1,.88-1,.14.14,0,0,1,.22,0,.2.2,0,0,1,0,.25,4.8,4.8,0,0,0-.83,1A.16.16,0,0,1,52.93,68.36Zm1.88-1.81a.15.15,0,0,1-.13-.09.18.18,0,0,1,.06-.24,11.44,11.44,0,0,1,1.13-.63.16.16,0,0,1,.21.09.19.19,0,0,1-.08.24,10.25,10.25,0,0,0-1.11.61A.11.11,0,0,1,54.81,66.55Zm2.29-1.14a.18.18,0,0,1-.15-.12.17.17,0,0,1,.1-.22l1.18-.49a.16.16,0,0,1,.2.11.17.17,0,0,1-.1.22l-1.17.48Zm2.36-1a.18.18,0,0,1-.15-.12.21.21,0,0,1,.1-.23l1.18-.47a.15.15,0,0,1,.2.1.19.19,0,0,1-.09.23l-1.18.48Zm2.35-1a.15.15,0,0,1-.14-.1.19.19,0,0,1,.08-.24c.38-.16.77-.34,1.16-.53a.17.17,0,0,1,.21.09.19.19,0,0,1-.09.24c-.39.19-.78.37-1.16.53Zm2.31-1.1a.14.14,0,0,1-.14-.1.18.18,0,0,1,.07-.23l1.13-.6a.15.15,0,0,1,.21.07.19.19,0,0,1-.07.24c-.38.22-.76.42-1.13.61Zm2.25-1.24a.15.15,0,0,1-.14-.1.18.18,0,0,1,.06-.24c.36-.21.72-.44,1.09-.68a.15.15,0,0,1,.22.07.19.19,0,0,1-.06.24c-.37.24-.74.47-1.1.68A.11.11,0,0,1,66.37,61.13Zm2.17-1.4a.18.18,0,0,1-.14-.09.2.2,0,0,1,0-.24l1.06-.75a.15.15,0,0,1,.22.05.19.19,0,0,1,0,.24c-.35.27-.71.52-1.06.76A.11.11,0,0,1,68.54,59.73Zm2.09-1.55a.17.17,0,0,1-.13-.07.2.2,0,0,1,0-.25c.33-.26.67-.53,1-.82a.16.16,0,0,1,.23,0,.2.2,0,0,1,0,.25c-.34.28-.68.56-1,.82A.16.16,0,0,1,70.63,58.18Zm2-1.67a.14.14,0,0,1-.12-.07.18.18,0,0,1,0-.24l1-.88a.14.14,0,0,1,.22,0,.17.17,0,0,1,0,.24c-.33.31-.65.6-1,.88A.13.13,0,0,1,72.64,56.51Zm1.94-1.78a.16.16,0,0,1-.12-.06.19.19,0,0,1,0-.25l.94-.92a.15.15,0,0,1,.22,0,.2.2,0,0,1,0,.25c-.3.31-.62.61-.95.93A.12.12,0,0,1,74.58,54.73Zm1.87-1.87a.16.16,0,0,1-.12,0,.2.2,0,0,1,0-.25c.32-.33.62-.66.9-1a.17.17,0,0,1,.23,0,.2.2,0,0,1,0,.26l-.9,1A.15.15,0,0,1,76.45,52.86Zm1.79-2a.16.16,0,0,1-.12,0,.2.2,0,0,1,0-.25l.85-1a.15.15,0,0,1,.23,0,.2.2,0,0,1,0,.25c-.27.33-.56.68-.86,1A.14.14,0,0,1,78.24,50.9Zm1.67-2.08a.14.14,0,0,1-.1,0,.21.21,0,0,1,0-.25c.27-.36.54-.72.79-1.08a.15.15,0,0,1,.22,0,.2.2,0,0,1,0,.25c-.25.36-.52.73-.79,1.09A.18.18,0,0,1,79.91,48.82Zm1.55-2.2a.14.14,0,0,1-.09,0,.19.19,0,0,1,0-.25c.24-.37.47-.74.71-1.14a.15.15,0,0,1,.22-.05.19.19,0,0,1,0,.25c-.25.4-.48.78-.72,1.15A.15.15,0,0,1,81.46,46.62Zm1.4-2.32a.11.11,0,0,1-.08,0,.19.19,0,0,1,0-.25l.4-.71.27-.47a.15.15,0,0,1,.22-.05.2.2,0,0,1,0,.24l-.27.47-.4.71A.14.14,0,0,1,82.86,44.3ZM84.22,42l-.09,0a.18.18,0,0,1,0-.24c.26-.43.51-.8.75-1.14a.14.14,0,0,1,.22,0,.2.2,0,0,1,0,.25c-.24.33-.48.7-.74,1.12A.15.15,0,0,1,84.22,42Zm1.57-2.17a.16.16,0,0,1-.11-.05.2.2,0,0,1,0-.25,10.54,10.54,0,0,1,.94-.95.15.15,0,0,1,.22,0,.18.18,0,0,1,0,.25,11.52,11.52,0,0,0-.92.93A.16.16,0,0,1,85.79,39.78ZM87.73,38a.16.16,0,0,1-.13-.08.2.2,0,0,1,.05-.25A10.17,10.17,0,0,1,88.78,37a.15.15,0,0,1,.21.09.19.19,0,0,1-.08.23,9.51,9.51,0,0,0-1.09.65ZM90,36.86a.17.17,0,0,1-.15-.12.2.2,0,0,1,.1-.23c.38-.14.79-.27,1.22-.4a.16.16,0,0,1,.19.13.17.17,0,0,1-.12.21c-.42.13-.82.26-1.19.4Zm2.43-.71a.17.17,0,0,1-.16-.14.18.18,0,0,1,.13-.21c.38-.09.79-.17,1.24-.26a.17.17,0,0,1,.18.15.17.17,0,0,1-.13.2l-1.23.25Zm2.48-.48a.16.16,0,0,1-.16-.15.19.19,0,0,1,.13-.2l1.25-.2a.18.18,0,0,1,.18.15.19.19,0,0,1-.14.21l-1.24.19Zm2.48-.39a.17.17,0,0,1-.15-.15.18.18,0,0,1,.13-.21c.42-.06.83-.13,1.24-.21a.16.16,0,0,1,.18.15.17.17,0,0,1-.13.2c-.41.07-.82.15-1.24.21Zm2.48-.48a.18.18,0,0,1-.16-.14.19.19,0,0,1,.13-.21c.44-.1.84-.21,1.21-.33a.15.15,0,0,1,.19.13.16.16,0,0,1-.11.21c-.37.12-.78.23-1.23.34Zm2.41-.78a.17.17,0,0,1-.15-.11.19.19,0,0,1,.09-.23,8,8,0,0,0,1.09-.62.15.15,0,0,1,.22,0,.2.2,0,0,1-.05.24,6.53,6.53,0,0,1-1.14.65Zm2.09-1.51a.16.16,0,0,1-.12-.06.2.2,0,0,1,0-.25c.32-.32.62-.65.9-1a.15.15,0,0,1,.22,0,.18.18,0,0,1,0,.25c-.29.32-.59.65-.91,1A.18.18,0,0,1,104.38,32.51Zm1.75-2a.18.18,0,0,1-.12-.3c.28-.36.54-.72.77-1.08a.14.14,0,0,1,.22,0,.19.19,0,0,1,0,.25c-.24.36-.5.74-.79,1.11A.17.17,0,0,1,106.13,30.51Zm1.47-2.27a.11.11,0,0,1-.08,0,.19.19,0,0,1-.06-.24,11.06,11.06,0,0,0,.55-1.23.16.16,0,0,1,.21-.1.19.19,0,0,1,.08.24,10.81,10.81,0,0,1-.57,1.27A.15.15,0,0,1,107.6,28.24Zm1-2.58h0a.17.17,0,0,1-.12-.21,8.08,8.08,0,0,0,.18-1.35.17.17,0,0,1,.16-.17.19.19,0,0,1,.16.19,8.67,8.67,0,0,1-.19,1.41A.16.16,0,0,1,108.55,25.66Zm.11-2.78a.16.16,0,0,1-.15-.15,6,6,0,0,0-.35-1.29.2.2,0,0,1,.08-.24.15.15,0,0,1,.21.1,6.09,6.09,0,0,1,.37,1.38.17.17,0,0,1-.13.2Zm-1.13-2.33h0a7,7,0,0,0-1.22-.18.17.17,0,0,1-.15-.19.16.16,0,0,1,.17-.16,7.48,7.48,0,0,1,1.26.18.18.18,0,0,1,.13.21A.17.17,0,0,1,107.53,20.55Z" transform="translate(-8.88 -9.59)"/><path class="cls-5" d="M34.35,75.31h-.07a.2.2,0,0,1-.07-.24c.17-.4.28-.64.28-.64a.15.15,0,0,1,.21-.08.19.19,0,0,1,.07.24l-.27.63A.16.16,0,0,1,34.35,75.31Z" transform="translate(-8.88 -9.59)"/><path class="cls-5" d="M101.46,18.6a.13.13,0,0,1-.1,0,.18.18,0,0,1,0-.25,5.85,5.85,0,0,0,.35-.55.14.14,0,0,1,.21-.07.2.2,0,0,1,.06.25,4.72,4.72,0,0,1-.38.6A.14.14,0,0,1,101.46,18.6Z" transform="translate(-8.88 -9.59)"/><path class="cls-5" d="M102.09,17.41h0a.17.17,0,0,1-.09-.23,2.67,2.67,0,0,0,.12-.51l-.47-.21a.17.17,0,0,1-.1-.22.16.16,0,0,1,.2-.11,4.81,4.81,0,0,1,.6.27.19.19,0,0,1,.1.17,2.67,2.67,0,0,1-.16.74A.15.15,0,0,1,102.09,17.41Z" transform="translate(-8.88 -9.59)"/><path class="cls-5" d="M26.4,79.06a.35.35,0,0,1-.35-.24c-.09-.21-.17-.42-.25-.63a.19.19,0,0,1,.09-.23.15.15,0,0,1,.2.1c.08.2.16.41.25.61,0,0,0,.11.37-.08a.15.15,0,0,1,.22.08.18.18,0,0,1-.07.23A1,1,0,0,1,26.4,79.06Zm1.42-1A.13.13,0,0,1,27.7,78a.17.17,0,0,1,0-.24c.28-.27.59-.58.94-1a.14.14,0,0,1,.22,0,.18.18,0,0,1,0,.25c-.34.37-.67.69-.95,1A.18.18,0,0,1,27.82,78.1ZM25.52,77a.18.18,0,0,1-.15-.13c-.12-.47-.22-.94-.29-1.4a.18.18,0,0,1,.13-.21.16.16,0,0,1,.18.14,12.83,12.83,0,0,0,.29,1.37.2.2,0,0,1-.11.22Zm4.15-.82a.16.16,0,0,1-.11-.05.2.2,0,0,1,0-.25l.88-1a.16.16,0,0,1,.23,0,.18.18,0,0,1,0,.25c-.27.33-.57.68-.88,1A.18.18,0,0,1,29.67,76.15Zm-4.59-2a.18.18,0,0,1-.16-.17c0-.25,0-.5,0-.74s0-.47,0-.7a.17.17,0,0,1,.17-.17.17.17,0,0,1,.15.19c0,.22,0,.45,0,.68s0,.48,0,.71a.17.17,0,0,1-.15.19A0,0,0,0,1,25.08,74.18Zm.15-2.83h0a.17.17,0,0,1-.13-.2,13.37,13.37,0,0,1,.29-1.4.14.14,0,0,1,.19-.12.17.17,0,0,1,.11.22c-.11.45-.21.91-.28,1.36A.17.17,0,0,1,25.23,71.35Zm.69-2.73h-.06a.19.19,0,0,1-.09-.23c.16-.44.33-.88.53-1.31a.16.16,0,0,1,.22-.08.2.2,0,0,1,.06.24c-.19.42-.36.85-.51,1.28A.17.17,0,0,1,25.92,68.62Zm1.15-2.53a.16.16,0,0,1-.09,0,.2.2,0,0,1-.05-.24c.22-.4.46-.8.72-1.19a.15.15,0,0,1,.22,0,.2.2,0,0,1,0,.25c-.25.38-.49.77-.71,1.17A.16.16,0,0,1,27.07,66.09Zm1.5-2.29a.13.13,0,0,1-.1,0,.19.19,0,0,1,0-.25c.27-.36.56-.71.86-1.06a.15.15,0,0,1,.23,0,.2.2,0,0,1,0,.25c-.29.34-.58.69-.85,1A.16.16,0,0,1,28.57,63.8Zm1.78-2a.16.16,0,0,1-.12-.06.2.2,0,0,1,0-.25c.32-.32.65-.62,1-.92a.15.15,0,0,1,.22,0,.18.18,0,0,1,0,.25c-.33.29-.65.6-1,.91A.13.13,0,0,1,30.35,61.77Zm2-1.76a.15.15,0,0,1-.14-.07.2.2,0,0,1,0-.25c.32-.24.64-.47,1-.69l.11-.08a.15.15,0,0,1,.22.06.19.19,0,0,1,0,.24l-.12.08c-.32.22-.63.45-.94.69A.15.15,0,0,1,32.35,60Zm2.14-1.52a.16.16,0,0,1-.13-.08.18.18,0,0,1,0-.24c.37-.27.72-.53,1.05-.79a.15.15,0,0,1,.22,0,.2.2,0,0,1,0,.25c-.33.26-.69.53-1.06.79Zm2.08-1.63a.13.13,0,0,1-.12-.07.18.18,0,0,1,0-.24c.35-.3.68-.6,1-.9a.14.14,0,0,1,.22,0,.18.18,0,0,1,0,.24c-.31.31-.64.61-1,.91A.13.13,0,0,1,36.57,56.86ZM38.47,55a.16.16,0,0,1-.11,0,.2.2,0,0,1,0-.25c.29-.34.56-.68.83-1a.14.14,0,0,1,.22,0,.17.17,0,0,1,0,.24c-.27.38-.55.73-.85,1.08A.16.16,0,0,1,38.47,55Zm1.61-2.19a.18.18,0,0,1-.1,0,.18.18,0,0,1,0-.24c.21-.34.43-.71.7-1.18a.15.15,0,0,1,.22,0,.21.21,0,0,1,.05.25l-.71,1.18A.17.17,0,0,1,40.08,52.79Zm1.39-2.38-.09,0a.2.2,0,0,1-.05-.24l.43-.76c.09-.14.17-.29.26-.44a.15.15,0,0,1,.22,0,.21.21,0,0,1,0,.25c-.09.14-.17.29-.26.44s-.29.51-.43.75A.16.16,0,0,1,41.47,50.41ZM42.86,48l-.09,0a.2.2,0,0,1,0-.25c.24-.39.48-.78.73-1.17a.16.16,0,0,1,.22,0,.2.2,0,0,1,0,.25c-.25.38-.49.77-.73,1.16A.16.16,0,0,1,42.86,48Zm1.48-2.31a.14.14,0,0,1-.1,0,.2.2,0,0,1,0-.25L45,44.31a.15.15,0,0,1,.22,0,.2.2,0,0,1,0,.25l-.78,1.13A.14.14,0,0,1,44.34,45.73Zm1.57-2.24a.13.13,0,0,1-.1,0,.2.2,0,0,1,0-.25l.82-1.09a.16.16,0,0,1,.23,0,.2.2,0,0,1,0,.25L46,43.43A.16.16,0,0,1,45.91,43.49Zm1.65-2.15a.16.16,0,0,1-.1-.05.18.18,0,0,1,0-.25c.28-.35.57-.7.86-1a.15.15,0,0,1,.23,0,.2.2,0,0,1,0,.25c-.29.34-.57.69-.86,1A.14.14,0,0,1,47.56,41.34Zm1.75-2.07a.13.13,0,0,1-.11-.05.2.2,0,0,1,0-.25c.3-.34.61-.67.91-1a.15.15,0,0,1,.23,0,.2.2,0,0,1,0,.25l-.91,1A.13.13,0,0,1,49.31,39.27Zm1.84-2a.16.16,0,0,1-.12-.06A.18.18,0,0,1,51,37c.32-.33.64-.64,1-.95a.15.15,0,0,1,.22,0,.2.2,0,0,1,0,.25c-.32.3-.64.62-1,.94A.15.15,0,0,1,51.15,37.31Zm1.93-1.85a.16.16,0,0,1-.13-.07.18.18,0,0,1,0-.24c.33-.31.66-.6,1-.89a.14.14,0,0,1,.22,0,.2.2,0,0,1,0,.25c-.33.28-.66.58-1,.88A.14.14,0,0,1,53.08,35.46Zm2-1.74a.15.15,0,0,1-.13-.07.2.2,0,0,1,0-.25c.34-.28.69-.55,1-.82a.16.16,0,0,1,.22,0,.19.19,0,0,1,0,.25l-1,.82A.14.14,0,0,1,55.09,33.72Zm2.1-1.6a.17.17,0,0,1-.14-.09.2.2,0,0,1,.05-.24c.36-.26.72-.52,1.08-.76a.16.16,0,0,1,.22.06.19.19,0,0,1,0,.24l-1.08.75A.12.12,0,0,1,57.19,32.12Zm2.17-1.48a.15.15,0,0,1-.14-.09.19.19,0,0,1,.06-.24c.37-.24.75-.47,1.12-.69a.15.15,0,0,1,.21.07.17.17,0,0,1-.06.24q-.55.33-1.11.69Zm2.25-1.34a.16.16,0,0,1-.15-.09.19.19,0,0,1,.08-.24c.38-.21.77-.42,1.15-.61a.15.15,0,0,1,.21.08.2.2,0,0,1-.08.24c-.38.19-.76.4-1.14.61Zm2.31-1.18a.17.17,0,0,1-.15-.11.19.19,0,0,1,.09-.23L65,27.24a.16.16,0,0,1,.21.11.19.19,0,0,1-.09.23c-.39.16-.78.34-1.18.53Zm2.37-1a.16.16,0,0,1-.15-.12.18.18,0,0,1,.1-.22l1.21-.45a.15.15,0,0,1,.2.11.18.18,0,0,1-.1.22l-1.21.45Zm2.43-.86a.17.17,0,0,1-.16-.13.19.19,0,0,1,.11-.22c.42-.13.83-.26,1.24-.37a.16.16,0,0,1,.19.13.17.17,0,0,1-.12.21l-1.22.37Zm2.47-.7A.16.16,0,0,1,71,25.4a.19.19,0,0,1,.12-.22l1.25-.27a.16.16,0,0,1,.19.14.17.17,0,0,1-.13.2l-1.24.28Zm2.5-.5a.17.17,0,0,1-.16-.16.19.19,0,0,1,.14-.2l.44-.07.81-.13a.17.17,0,0,1,.19.15.19.19,0,0,1-.14.2l-.81.14-.45.06Zm2.51-.47a.16.16,0,0,1-.16-.14.17.17,0,0,1,.12-.2c.43-.11.84-.22,1.23-.34a.16.16,0,0,1,.19.12.17.17,0,0,1-.11.22c-.39.12-.81.24-1.24.34Zm2.44-.76a.18.18,0,0,1,0-.34c.4-.16.79-.34,1.16-.53A.14.14,0,0,1,80,23a.19.19,0,0,1-.08.24,11.87,11.87,0,0,1-1.19.54Zm2.3-1.2a.16.16,0,0,1-.14-.08.2.2,0,0,1,.06-.25c.35-.24.69-.49,1-.78a.14.14,0,0,1,.22,0,.19.19,0,0,1,0,.25c-.35.29-.7.55-1.06.8Zm2-1.69a.16.16,0,0,1-.12-.06.2.2,0,0,1,0-.25c.32-.32.63-.66.92-1a.14.14,0,0,1,.22,0,.2.2,0,0,1,0,.25l-.93,1A.15.15,0,0,1,83,20.91ZM84.82,19a.14.14,0,0,1-.12-.06.18.18,0,0,1,0-.24c.36-.37.67-.67,1-.94a.15.15,0,0,1,.23,0,.2.2,0,0,1,0,.25c-.3.26-.6.55-.95.91A.13.13,0,0,1,84.82,19Zm2-1.73a.16.16,0,0,1-.14-.08.19.19,0,0,1,0-.24,10.14,10.14,0,0,1,1.15-.67.15.15,0,0,1,.21.09.19.19,0,0,1-.08.23,10.09,10.09,0,0,0-1.11.65A.13.13,0,0,1,86.83,17.23Zm2.31-1.15A.16.16,0,0,1,89,16a.19.19,0,0,1,.1-.23l.66-.21.58-.16a.16.16,0,0,1,.19.13.17.17,0,0,1-.12.21l-.57.16-.64.21Zm11.3,0h0c-.4-.12-.82-.23-1.23-.33a.17.17,0,0,1-.12-.21.16.16,0,0,1,.19-.14c.42.1.84.22,1.24.35a.18.18,0,0,1,.11.21A.16.16,0,0,1,100.44,16Zm-8.83-.59a.18.18,0,0,1,0-.35c.42-.08.85-.14,1.27-.18a.15.15,0,0,1,.17.15.17.17,0,0,1-.14.2c-.42,0-.84.1-1.25.18Zm6.34,0h0c-.42-.07-.84-.13-1.26-.17a.18.18,0,0,1-.14-.2.16.16,0,0,1,.17-.15c.42,0,.85.1,1.28.17a.18.18,0,0,1,.13.2A.16.16,0,0,1,98,15.43Zm-2.53-.26H94.15c-.1,0-.16-.07-.16-.17a.18.18,0,0,1,.15-.19h1.28a.19.19,0,0,1,.16.19A.17.17,0,0,1,95.42,15.17Z" transform="translate(-8.88 -9.59)"/><path class="cls-5" d="M31.47,74a.14.14,0,0,1-.1,0,.18.18,0,0,1,0-.25l.42-.52a.15.15,0,0,1,.22,0,.21.21,0,0,1,0,.26l-.43.52A.14.14,0,0,1,31.47,74Z" transform="translate(-8.88 -9.59)"/></g><g class="cls-4"><g class="cls-6"><path class="cls-7" d="M21.74,132c-4.66,0-8-1.06-9.44-3-3.1-4.16-.88-16.33,5.54-30.3,8-17.38,21.24-35.18,37.34-50.12,29.32-27.22,58.35-34.49,70.88-34.49,4.11,0,6.92.74,7.92,2.07,3.71,5-4.93,45.2-42.88,80.43C64.77,121,37.29,132,21.74,132Zm104.32-117c-12.41,0-41.18,7.22-70.31,34.26C18.91,83.39,7.8,121.53,13,128.47c1.27,1.7,4.38,2.64,8.76,2.64,15.39,0,42.62-10.88,68.79-35.16,36.89-34.26,46.26-74.62,42.77-79.3C132.49,15.57,129.78,14.92,126.06,14.92Z" transform="translate(-8.88 -9.59)"/></g></g><g class="cls-6"><path class="cls-2" d="M97.76,27.85a1.31,1.31,0,0,1-2-.21A1.7,1.7,0,0,1,96,25.43a1.31,1.31,0,0,1,2,.21A1.69,1.69,0,0,1,97.76,27.85Z" transform="translate(-8.88 -9.59)"/><path class="cls-8" d="M96.86,28.63a1.79,1.79,0,0,1-1.42-.73,2.14,2.14,0,0,1,.23-2.78,1.79,1.79,0,0,1,2.61.26,2.12,2.12,0,0,1-.23,2.78A1.77,1.77,0,0,1,96.86,28.63Zm0-3.13a.87.87,0,0,0-.61.25,1.28,1.28,0,0,0-.13,1.64.89.89,0,0,0,1.35.14,1.26,1.26,0,0,0,.13-1.64A.93.93,0,0,0,96.86,25.5Z" transform="translate(-8.88 -9.59)"/><path class="cls-2" d="M91.49,21.26a1.22,1.22,0,0,1-1.85-.19A1.58,1.58,0,0,1,89.81,19a1.23,1.23,0,0,1,1.85.19A1.61,1.61,0,0,1,91.49,21.26Z" transform="translate(-8.88 -9.59)"/><path class="cls-8" d="M90.65,22a1.66,1.66,0,0,1-1.35-.7,2,2,0,0,1,.22-2.63,1.7,1.7,0,0,1,2.48.25,2,2,0,0,1-.22,2.63A1.69,1.69,0,0,1,90.65,22Zm0-2.93a.82.82,0,0,0-.55.22,1.17,1.17,0,0,0-.12,1.5.81.81,0,0,0,1.22.13,1.18,1.18,0,0,0,.12-1.5A.86.86,0,0,0,90.65,19.09Z" transform="translate(-8.88 -9.59)"/><path class="cls-2" d="M83.42,25.2A1.36,1.36,0,0,1,81.35,25a1.76,1.76,0,0,1,.19-2.3,1.36,1.36,0,0,1,2.07.21A1.78,1.78,0,0,1,83.42,25.2Z" transform="translate(-8.88 -9.59)"/><path class="cls-8" d="M82.48,26A1.84,1.84,0,0,1,81,25.25a2.21,2.21,0,0,1,.24-2.87,1.84,1.84,0,0,1,2.7.26,2.22,2.22,0,0,1-.24,2.87A1.82,1.82,0,0,1,82.48,26Zm0-3.27a1,1,0,0,0-.65.26,1.34,1.34,0,0,0-.14,1.74,1,1,0,0,0,1.44.15,1.34,1.34,0,0,0,.13-1.74A1,1,0,0,0,82.48,22.74Z" transform="translate(-8.88 -9.59)"/><path class="cls-2" d="M74.75,30.35a1.47,1.47,0,0,1-2.21-.23,1.87,1.87,0,0,1,.2-2.46,1.46,1.46,0,0,1,2.21.22A1.91,1.91,0,0,1,74.75,30.35Z" transform="translate(-8.88 -9.59)"/><path class="cls-8" d="M73.74,31.17a1.92,1.92,0,0,1-1.54-.8,2.31,2.31,0,0,1,.25-3,1.93,1.93,0,0,1,2.84.28,2.33,2.33,0,0,1-.26,3A1.89,1.89,0,0,1,73.74,31.17Zm0-3.49A1,1,0,0,0,73,28a1.46,1.46,0,0,0-.15,1.9,1.06,1.06,0,0,0,1.58.17,1.47,1.47,0,0,0,.15-1.9A1.09,1.09,0,0,0,73.74,27.68Z" transform="translate(-8.88 -9.59)"/><path class="cls-2" d="M65.81,36.37a1.45,1.45,0,0,1-2.21-.23,1.9,1.9,0,0,1,.2-2.46,1.47,1.47,0,0,1,2.21.23A1.9,1.9,0,0,1,65.81,36.37Z" transform="translate(-8.88 -9.59)"/><path class="cls-8" d="M64.81,37.2a1.92,1.92,0,0,1-1.55-.8,2.34,2.34,0,0,1,.25-3,1.94,1.94,0,0,1,2.84.28,2.34,2.34,0,0,1-.25,3A1.92,1.92,0,0,1,64.81,37.2Zm0-3.5a1,1,0,0,0-.71.29,1.46,1.46,0,0,0-.15,1.9,1.06,1.06,0,0,0,1.58.17,1.46,1.46,0,0,0,.15-1.9A1.09,1.09,0,0,0,64.8,33.7Z" transform="translate(-8.88 -9.59)"/><path class="cls-2" d="M56.76,43.46a1.55,1.55,0,0,1-2.35-.24,2,2,0,0,1,.21-2.63,1.56,1.56,0,0,1,2.36.24A2,2,0,0,1,56.76,43.46Z" transform="translate(-8.88 -9.59)"/><path class="cls-8" d="M55.69,44.32a2,2,0,0,1-1.62-.84,2.45,2.45,0,0,1,.27-3.2,2,2,0,0,1,3,.3,2.45,2.45,0,0,1-.27,3.2A2,2,0,0,1,55.69,44.32Zm0-3.73a1.15,1.15,0,0,0-.78.32A1.58,1.58,0,0,0,54.75,43a1.15,1.15,0,0,0,1.73.18,1.59,1.59,0,0,0,.16-2.06A1.18,1.18,0,0,0,55.69,40.59Z" transform="translate(-8.88 -9.59)"/><path class="cls-2" d="M48.57,51a1.6,1.6,0,0,1-2.41-.25,2.08,2.08,0,0,1,.22-2.69,1.61,1.61,0,0,1,2.42.25A2.07,2.07,0,0,1,48.57,51Z" transform="translate(-8.88 -9.59)"/><path class="cls-8" d="M47.48,51.9A2.09,2.09,0,0,1,45.82,51a2.51,2.51,0,0,1,.27-3.26,2.07,2.07,0,0,1,3,.3,2.51,2.51,0,0,1-.27,3.26A2,2,0,0,1,47.48,51.9Zm0-3.83a1.2,1.2,0,0,0-.81.33,1.65,1.65,0,0,0-.17,2.13,1.2,1.2,0,0,0,1.79.19,1.64,1.64,0,0,0,.16-2.13A1.21,1.21,0,0,0,47.48,48.07Z" transform="translate(-8.88 -9.59)"/><path class="cls-2" d="M40.79,59a1.7,1.7,0,0,1-2.58-.26,2.22,2.22,0,0,1,.23-2.88,1.71,1.71,0,0,1,2.59.26A2.21,2.21,0,0,1,40.79,59Z" transform="translate(-8.88 -9.59)"/><path class="cls-8" d="M39.62,59.93A2.16,2.16,0,0,1,37.87,59a2.63,2.63,0,0,1,.28-3.44,2.2,2.2,0,0,1,3.22.32,2.66,2.66,0,0,1-.29,3.45A2.19,2.19,0,0,1,39.62,59.93Zm0-4.09a1.28,1.28,0,0,0-.89.36,1.79,1.79,0,0,0-.18,2.32,1.3,1.3,0,0,0,2,.2,1.77,1.77,0,0,0,.19-2.31A1.35,1.35,0,0,0,39.62,55.84Z" transform="translate(-8.88 -9.59)"/><path class="cls-2" d="M32.73,68.76a1.71,1.71,0,0,1-2.58-.27,2.21,2.21,0,0,1,.24-2.88,1.71,1.71,0,0,1,2.58.26A2.22,2.22,0,0,1,32.73,68.76Z" transform="translate(-8.88 -9.59)"/><path class="cls-8" d="M31.56,69.66a2.2,2.2,0,0,1-1.75-.91,2.65,2.65,0,0,1,.29-3.45,2.18,2.18,0,0,1,3.21.32A2.66,2.66,0,0,1,33,69.07,2.15,2.15,0,0,1,31.56,69.66Zm0-4.1a1.33,1.33,0,0,0-.89.36,1.79,1.79,0,0,0-.18,2.32,1.3,1.3,0,0,0,1.95.2,1.76,1.76,0,0,0,.19-2.31A1.35,1.35,0,0,0,31.56,65.56Z" transform="translate(-8.88 -9.59)"/><path class="cls-2" d="M90.3,31.87a1.22,1.22,0,0,1-1.85-.19,1.58,1.58,0,0,1,.17-2.06,1.22,1.22,0,0,1,1.85.19A1.58,1.58,0,0,1,90.3,31.87Z" transform="translate(-8.88 -9.59)"/><path class="cls-8" d="M89.46,32.64a1.69,1.69,0,0,1-1.35-.7,2,2,0,0,1,.22-2.63,1.69,1.69,0,0,1,2.48.25,2,2,0,0,1-.22,2.62A1.65,1.65,0,0,1,89.46,32.64Zm0-2.93a.83.83,0,0,0-.55.22,1.17,1.17,0,0,0-.12,1.5.81.81,0,0,0,1.22.13,1.16,1.16,0,0,0,.12-1.5A.86.86,0,0,0,89.46,29.71Z" transform="translate(-8.88 -9.59)"/><path class="cls-2" d="M81.79,37.32a1.34,1.34,0,0,1-2-.2A1.73,1.73,0,0,1,80,34.87a1.33,1.33,0,0,1,2,.2A1.72,1.72,0,0,1,81.79,37.32Z" transform="translate(-8.88 -9.59)"/><path class="cls-8" d="M80.87,38.12a1.81,1.81,0,0,1-1.44-.75,2.16,2.16,0,0,1,.23-2.81,1.8,1.8,0,0,1,2.65.26,2.16,2.16,0,0,1-.23,2.81A1.81,1.81,0,0,1,80.87,38.12Zm0-3.2a.91.91,0,0,0-.63.26,1.31,1.31,0,0,0-.13,1.68A.93.93,0,0,0,81.5,37a1.3,1.3,0,0,0,.13-1.69A1,1,0,0,0,80.87,34.92Z" transform="translate(-8.88 -9.59)"/><path class="cls-2" d="M73.43,42.89a1.35,1.35,0,0,1-2.05-.21,1.76,1.76,0,0,1,.18-2.29,1.37,1.37,0,0,1,2.06.21A1.76,1.76,0,0,1,73.43,42.89Z" transform="translate(-8.88 -9.59)"/><path class="cls-8" d="M72.5,43.69A1.82,1.82,0,0,1,71,42.94a2.19,2.19,0,0,1,.24-2.86,1.82,1.82,0,0,1,2.68.27,2.19,2.19,0,0,1-.24,2.85A1.77,1.77,0,0,1,72.5,43.69Zm0-3.25a1,1,0,0,0-.65.26,1.33,1.33,0,0,0-.13,1.73,1,1,0,0,0,1.42.15,1.31,1.31,0,0,0,.14-1.72A1,1,0,0,0,72.5,40.44Z" transform="translate(-8.88 -9.59)"/><path class="cls-2" d="M64.58,50.27a1.46,1.46,0,0,1-2.2-.23,1.9,1.9,0,0,1,.2-2.46,1.46,1.46,0,0,1,2.21.23A1.89,1.89,0,0,1,64.58,50.27Z" transform="translate(-8.88 -9.59)"/><path class="cls-8" d="M63.58,51.1A1.94,1.94,0,0,1,62,50.3a2.34,2.34,0,0,1,.25-3,1.93,1.93,0,0,1,2.84.28,2.33,2.33,0,0,1-.26,3A1.9,1.9,0,0,1,63.58,51.1Zm0-3.5a1,1,0,0,0-.71.29,1.46,1.46,0,0,0-.15,1.9A1.06,1.06,0,0,0,64.3,50a1.48,1.48,0,0,0,.15-1.9A1.11,1.11,0,0,0,63.58,47.6Z" transform="translate(-8.88 -9.59)"/><path class="cls-2" d="M57.2,57.64a1.58,1.58,0,0,1-2.4-.24A2,2,0,0,1,55,54.72a1.59,1.59,0,0,1,2.4.25A2.05,2.05,0,0,1,57.2,57.64Z" transform="translate(-8.88 -9.59)"/><path class="cls-8" d="M56.11,58.51a2,2,0,0,1-1.65-.86,2.48,2.48,0,0,1,.27-3.24,2.07,2.07,0,0,1,3,.3A2.48,2.48,0,0,1,57.48,58,2,2,0,0,1,56.11,58.51Zm0-3.81a1.17,1.17,0,0,0-.79.33,1.61,1.61,0,0,0-.17,2.11,1.18,1.18,0,0,0,1.77.19,1.62,1.62,0,0,0,.17-2.11A1.23,1.23,0,0,0,56.1,54.7Z" transform="translate(-8.88 -9.59)"/><path class="cls-2" d="M50.51,65.82a1.73,1.73,0,0,1-2.63-.27,2.26,2.26,0,0,1,.24-2.93,1.74,1.74,0,0,1,2.63.27A2.25,2.25,0,0,1,50.51,65.82Z" transform="translate(-8.88 -9.59)"/><path class="cls-8" d="M49.32,66.73a2.23,2.23,0,0,1-1.78-.92,2.7,2.7,0,0,1,.29-3.5,2.23,2.23,0,0,1,3.26.33,2.69,2.69,0,0,1-.29,3.49A2.21,2.21,0,0,1,49.32,66.73Zm0-4.16a1.32,1.32,0,0,0-.91.37,1.82,1.82,0,0,0-.19,2.36,1.34,1.34,0,0,0,2,.21,1.81,1.81,0,0,0,.19-2.36A1.37,1.37,0,0,0,49.32,62.57Z" transform="translate(-8.88 -9.59)"/><path class="cls-2" d="M43.76,73.5a1.68,1.68,0,0,1-2.55-.27,2.18,2.18,0,0,1,.23-2.84,1.69,1.69,0,0,1,2.55.26A2.19,2.19,0,0,1,43.76,73.5Z" transform="translate(-8.88 -9.59)"/><path class="cls-8" d="M42.6,74.39a2.14,2.14,0,0,1-1.73-.9,2.62,2.62,0,0,1,.28-3.41,2.17,2.17,0,0,1,3.18.32,2.62,2.62,0,0,1-.28,3.41A2.1,2.1,0,0,1,42.6,74.39Zm0-4a1.27,1.27,0,0,0-.87.35A1.76,1.76,0,0,0,41.55,73a1.29,1.29,0,0,0,1.92.21,1.75,1.75,0,0,0,.18-2.28A1.3,1.3,0,0,0,42.6,70.35Z" transform="translate(-8.88 -9.59)"/></g><path class="cls-9" d="M105,22.18c1-.41-.71-3.44-2.77-2.7-13.62,5-30.09,14.1-46.41,29.24a177.31,177.31,0,0,0-21.6,24c-.83,1.12,1.43,3.28,2.62,1.94A178,178,0,0,1,57.64,51.78C74.35,36.27,91.23,27.1,105,22.18Z" transform="translate(-8.88 -9.59)"/><path class="cls-10" d="M102,20.47c1-.43-.74-3.43-2.79-2.68C85.6,22.91,69.19,32.17,53,47.46A178.17,178.17,0,0,0,31.56,71.65c-.82,1.13,1.45,3.26,2.64,1.92A178.24,178.24,0,0,1,54.79,50.5C71.39,34.84,88.2,25.51,102,20.47Z" transform="translate(-8.88 -9.59)"/><path class="cls-3" d="M102.07,19.44c1-.28-1-2.16-2.7-1.72C86,22.79,69.94,31.81,54.07,46.55A176.67,176.67,0,0,0,31.6,71.71c-.77,1,1.32,2.52,2.46,1a177.34,177.34,0,0,1,21.6-24C72,33.54,88.45,24.44,102.07,19.44Z" transform="translate(-8.88 -9.59)"/><path class="cls-11" d="M101.76,18.32c.17.27.14.51-.18.6C88,23.91,71.48,33,55.17,48.16a176.72,176.72,0,0,0-21.6,24,1.48,1.48,0,0,1-2,.42,1.48,1.48,0,0,0,2.53.1,177.34,177.34,0,0,1,21.6-24C72,33.54,88.45,24.44,102.07,19.44,102.59,19.3,102.35,18.77,101.76,18.32Z" transform="translate(-8.88 -9.59)"/><path class="cls-3" d="M104.79,21.41c1-.41-.66-2.71-2.72-2-13.62,5-30.09,14.1-46.41,29.25a177.34,177.34,0,0,0-21.6,24c-.83,1.12,1.38,2.55,2.58,1.21A177.8,177.8,0,0,1,57.4,51C74.11,35.5,91,26.33,104.79,21.41Z" transform="translate(-8.88 -9.59)"/><path class="cls-12" d="M104.54,20c.17.38.15.73-.18.87C90.56,25.75,73.68,34.92,57,50.44A177.09,177.09,0,0,0,36.21,73.31a1.66,1.66,0,0,1-2.28.17,1.65,1.65,0,0,0,2.71.41A177.8,177.8,0,0,1,57.4,51C74.11,35.5,91,26.33,104.79,21.41,105.29,21.2,105.1,20.5,104.54,20Z" transform="translate(-8.88 -9.59)"/><path class="cls-13" d="M89.93,21.47a1.23,1.23,0,0,1-.21-1,1,1,0,0,1,1.21-.83,9.78,9.78,0,0,1,3.91,2.55,10.93,10.93,0,0,1,2.79,4,1.15,1.15,0,0,1-.58,1.44,1,1,0,0,1-1.3-.65,9.27,9.27,0,0,0-2.24-3.08,8.1,8.1,0,0,0-3.05-2.06A1,1,0,0,1,89.93,21.47Z" transform="translate(-8.88 -9.59)"/><path class="cls-14" d="M81.59,25.18a1.34,1.34,0,0,1-.23-1.09,1.09,1.09,0,0,1,1.32-.91A10.7,10.7,0,0,1,87,26a12.14,12.14,0,0,1,3.07,4.39,1.29,1.29,0,0,1-.64,1.6A1.08,1.08,0,0,1,88,31.26a10.27,10.27,0,0,0-2.46-3.41,8.86,8.86,0,0,0-3.37-2.26A1.11,1.11,0,0,1,81.59,25.18Z" transform="translate(-8.88 -9.59)"/><path class="cls-15" d="M72.73,30.17a1.36,1.36,0,0,1-.24-1.12,1.15,1.15,0,0,1,1.38-1A11.26,11.26,0,0,1,78.35,31a12.66,12.66,0,0,1,3.19,4.56,1.33,1.33,0,0,1-.67,1.66,1.11,1.11,0,0,1-1.48-.74A10.68,10.68,0,0,0,76.83,33a9.24,9.24,0,0,0-3.5-2.35A1.24,1.24,0,0,1,72.73,30.17Z" transform="translate(-8.88 -9.59)"/><path class="cls-16" d="M63.82,36.32a1.46,1.46,0,0,1-.25-1.07,1.19,1.19,0,0,1,1.34-1.07,11.06,11.06,0,0,1,4.74,2.65,12.81,12.81,0,0,1,3.52,4.42A1.38,1.38,0,0,1,72.59,43,1.13,1.13,0,0,1,71,42.34a10.67,10.67,0,0,0-2.81-3.42,9.39,9.39,0,0,0-3.7-2.15A1.18,1.18,0,0,1,63.82,36.32Z" transform="translate(-8.88 -9.59)"/><path class="cls-17" d="M54.68,43.28a1.45,1.45,0,0,1-.26-1.1,1.22,1.22,0,0,1,1.39-1.11,11.51,11.51,0,0,1,4.92,2.75,13.13,13.13,0,0,1,3.65,4.58,1.43,1.43,0,0,1-.61,1.81,1.16,1.16,0,0,1-1.61-.68A11.32,11.32,0,0,0,59.24,46a10,10,0,0,0-3.84-2.23A1.21,1.21,0,0,1,54.68,43.28Z" transform="translate(-8.88 -9.59)"/><path class="cls-18" d="M46.53,50.83a1.49,1.49,0,0,1-.29-1.06,1.29,1.29,0,0,1,1.38-1.24A11.56,11.56,0,0,1,52.86,51a13.38,13.38,0,0,1,4,4.48,1.5,1.5,0,0,1-.53,1.91,1.21,1.21,0,0,1-1.71-.59,11.06,11.06,0,0,0-3.22-3.46,9.84,9.84,0,0,0-4.09-2A1.25,1.25,0,0,1,46.53,50.83Z" transform="translate(-8.88 -9.59)"/><path class="cls-19" d="M38.51,58.47a1.57,1.57,0,0,1-.23-1,1.4,1.4,0,0,1,1.48-1.36,12.55,12.55,0,0,1,5.67,2.63,14.48,14.48,0,0,1,4.41,4.77,1.63,1.63,0,0,1-.55,2.07A1.3,1.3,0,0,1,47.44,65a12.34,12.34,0,0,0-3.51-3.69,10.61,10.61,0,0,0-4.44-2.14A1.35,1.35,0,0,1,38.51,58.47Z" transform="translate(-8.88 -9.59)"/><path class="cls-20" d="M30.49,68.49a1.6,1.6,0,0,1-.31-.82,1.53,1.53,0,0,1,1.22-1.73,12.7,12.7,0,0,1,6.23,1.29A13.87,13.87,0,0,1,43,71h0a1.7,1.7,0,0,1-.17,2.2,1.31,1.31,0,0,1-2-.17,11.55,11.55,0,0,0-4.24-2.88,10.68,10.68,0,0,0-4.89-1.09A1.35,1.35,0,0,1,30.49,68.49Z" transform="translate(-8.88 -9.59)"/><path class="cls-21" d="M90.12,21a1.22,1.22,0,0,1-.2-1,1,1,0,0,1,1.2-.83A9.52,9.52,0,0,1,95,21.78a11,11,0,0,1,2.79,4,1.16,1.16,0,0,1-.58,1.45,1,1,0,0,1-1.3-.65,9.29,9.29,0,0,0-2.23-3.09,8.45,8.45,0,0,0-3-2.06A1,1,0,0,1,90.12,21Z" transform="translate(-8.88 -9.59)"/><path class="cls-21" d="M81.78,24.74a1.35,1.35,0,0,1-.23-1.08,1.12,1.12,0,0,1,1.33-.92,10.74,10.74,0,0,1,4.31,2.82A12.16,12.16,0,0,1,90.27,30a1.27,1.27,0,0,1-.65,1.59,1.08,1.08,0,0,1-1.43-.71,10.16,10.16,0,0,0-2.46-3.41,9.26,9.26,0,0,0-3.36-2.27A1.07,1.07,0,0,1,81.78,24.74Z" transform="translate(-8.88 -9.59)"/><path class="cls-21" d="M72.92,29.74a1.39,1.39,0,0,1-.24-1.13,1.15,1.15,0,0,1,1.38-.95,11,11,0,0,1,4.48,2.92,12.84,12.84,0,0,1,3.2,4.56,1.35,1.35,0,0,1-.67,1.66,1.12,1.12,0,0,1-1.49-.75A10.82,10.82,0,0,0,77,32.52a9.63,9.63,0,0,0-3.49-2.36A1.15,1.15,0,0,1,72.92,29.74Z" transform="translate(-8.88 -9.59)"/><path class="cls-21" d="M64,35.88a1.39,1.39,0,0,1-.26-1.06,1.19,1.19,0,0,1,1.35-1.07,11.12,11.12,0,0,1,4.73,2.65,12.51,12.51,0,0,1,3.52,4.42,1.38,1.38,0,0,1-.58,1.74,1.13,1.13,0,0,1-1.56-.65,10.55,10.55,0,0,0-2.81-3.42,9.32,9.32,0,0,0-3.7-2.15A1.17,1.17,0,0,1,64,35.88Z" transform="translate(-8.88 -9.59)"/><path class="cls-21" d="M54.87,42.85a1.51,1.51,0,0,1-.26-1.11A1.25,1.25,0,0,1,56,40.63a11.66,11.66,0,0,1,4.91,2.76A13.28,13.28,0,0,1,64.58,48a1.44,1.44,0,0,1-.61,1.8,1.17,1.17,0,0,1-1.62-.67,11.14,11.14,0,0,0-2.92-3.55,9.88,9.88,0,0,0-3.83-2.23A1.2,1.2,0,0,1,54.87,42.85Z" transform="translate(-8.88 -9.59)"/><path class="cls-21" d="M46.72,50.39a1.51,1.51,0,0,1-.28-1,1.3,1.3,0,0,1,1.38-1.25,11.87,11.87,0,0,1,5.23,2.5,13.36,13.36,0,0,1,4,4.49,1.49,1.49,0,0,1-.52,1.9,1.2,1.2,0,0,1-1.71-.59,11.66,11.66,0,0,0-3.22-3.46,10,10,0,0,0-4.09-2A1.26,1.26,0,0,1,46.72,50.39Z" transform="translate(-8.88 -9.59)"/><path class="cls-21" d="M38.7,58a1.73,1.73,0,0,1-.23-1A1.41,1.41,0,0,1,40,55.66a12.69,12.69,0,0,1,5.67,2.63A14.33,14.33,0,0,1,50,63.07a1.61,1.61,0,0,1-.55,2.06,1.29,1.29,0,0,1-1.85-.6,12.1,12.1,0,0,0-3.51-3.7,10.77,10.77,0,0,0-4.43-2.14A1.36,1.36,0,0,1,38.7,58Z" transform="translate(-8.88 -9.59)"/><path class="cls-21" d="M30.69,68.06a1.65,1.65,0,0,1-.32-.83,1.53,1.53,0,0,1,1.23-1.72,12.46,12.46,0,0,1,6.22,1.28,14,14,0,0,1,5.36,3.77h0a1.71,1.71,0,0,1-.16,2.2,1.31,1.31,0,0,1-2-.18,12,12,0,0,0-4.25-2.87,10.8,10.8,0,0,0-4.89-1.1A1.32,1.32,0,0,1,30.69,68.06Z" transform="translate(-8.88 -9.59)"/><path class="cls-22" d="M97.72,26.78l-.14.08a1,1,0,0,1-1.3-.65,9.29,9.29,0,0,0-2.23-3.09A8.34,8.34,0,0,0,91,21.06a1,1,0,0,1-.53-.37,1.24,1.24,0,0,1-.2-1,1.29,1.29,0,0,1,.14-.36,1.12,1.12,0,0,0-.48.71,1.22,1.22,0,0,0,.2,1,1,1,0,0,0,.54.37,8.45,8.45,0,0,1,3,2.06,9.29,9.29,0,0,1,2.23,3.09,1,1,0,0,0,1.3.65A1,1,0,0,0,97.72,26.78Z" transform="translate(-8.88 -9.59)"/><path class="cls-23" d="M90.14,31.09a.77.77,0,0,1-.18.1,1.08,1.08,0,0,1-1.43-.72,10.3,10.3,0,0,0-2.46-3.4A9,9,0,0,0,82.7,24.8a1.13,1.13,0,0,1-.58-.41,1.35,1.35,0,0,1-.23-1.08,1.32,1.32,0,0,1,.17-.42,1.26,1.26,0,0,0-.51.77,1.35,1.35,0,0,0,.23,1.08,1.07,1.07,0,0,0,.59.41,9.26,9.26,0,0,1,3.36,2.27,10.16,10.16,0,0,1,2.46,3.41,1.08,1.08,0,0,0,1.43.71A1.09,1.09,0,0,0,90.14,31.09Z" transform="translate(-8.88 -9.59)"/><path class="cls-24" d="M81.6,36.34a1.18,1.18,0,0,1-.19.11,1.13,1.13,0,0,1-1.49-.75,10.82,10.82,0,0,0-2.56-3.53,9.3,9.3,0,0,0-3.49-2.36,1.11,1.11,0,0,1-.61-.43A1.36,1.36,0,0,1,73,28.26a1.51,1.51,0,0,1,.18-.45,1.33,1.33,0,0,0-.52.8,1.39,1.39,0,0,0,.24,1.13,1.15,1.15,0,0,0,.61.42A9.63,9.63,0,0,1,77,32.52a10.82,10.82,0,0,1,2.56,3.53,1.12,1.12,0,0,0,1.49.75A1.18,1.18,0,0,0,81.6,36.34Z" transform="translate(-8.88 -9.59)"/><path class="cls-25" d="M73.25,42.12l-.13.09a1.14,1.14,0,0,1-1.56-.66,10.79,10.79,0,0,0-2.81-3.42A9.36,9.36,0,0,0,65.05,36a1.17,1.17,0,0,1-.69-.46,1.39,1.39,0,0,1-.26-1.06,1.51,1.51,0,0,1,.2-.54,1.33,1.33,0,0,0-.54.89A1.39,1.39,0,0,0,64,35.88a1.17,1.17,0,0,0,.69.46,9.32,9.32,0,0,1,3.7,2.15,10.55,10.55,0,0,1,2.81,3.42,1.13,1.13,0,0,0,1.56.65A1.17,1.17,0,0,0,73.25,42.12Z" transform="translate(-8.88 -9.59)"/><path class="cls-26" d="M64.61,49a1.28,1.28,0,0,1-.32.24,1.17,1.17,0,0,1-1.61-.67A11.2,11.2,0,0,0,59.76,45a9.64,9.64,0,0,0-3.84-2.23,1.21,1.21,0,0,1-.72-.47,1.51,1.51,0,0,1-.27-1.11L55,41a1.41,1.41,0,0,0-.38.76,1.51,1.51,0,0,0,.26,1.11,1.2,1.2,0,0,0,.73.47,9.88,9.88,0,0,1,3.83,2.23,11.14,11.14,0,0,1,2.92,3.55,1.17,1.17,0,0,0,1.62.67A1.28,1.28,0,0,0,64.61,49Z" transform="translate(-8.88 -9.59)"/><path class="cls-27" d="M57.13,56.3a1.33,1.33,0,0,1-.19.14,1.21,1.21,0,0,1-1.71-.59A11.35,11.35,0,0,0,52,52.39a10.07,10.07,0,0,0-4.09-2,1.21,1.21,0,0,1-.82-.5,1.49,1.49,0,0,1-.29-1.06,1.91,1.91,0,0,1,.11-.41,1.46,1.46,0,0,0-.48,1,1.51,1.51,0,0,0,.28,1,1.26,1.26,0,0,0,.83.51,10,10,0,0,1,4.09,2,11.66,11.66,0,0,1,3.22,3.46,1.2,1.2,0,0,0,1.71.59A1.34,1.34,0,0,0,57.13,56.3Z" transform="translate(-8.88 -9.59)"/><path class="cls-28" d="M50,64.51l-.05,0A1.29,1.29,0,0,1,48.13,64a12.34,12.34,0,0,0-3.51-3.69,10.61,10.61,0,0,0-4.44-2.14,1.35,1.35,0,0,1-1-.66,1.64,1.64,0,0,1-.24-1,1.72,1.72,0,0,1,.16-.57A1.56,1.56,0,0,0,38.47,57a1.73,1.73,0,0,0,.23,1,1.36,1.36,0,0,0,1,.65,10.77,10.77,0,0,1,4.43,2.14,12.1,12.1,0,0,1,3.51,3.7,1.29,1.29,0,0,0,1.85.6A1.33,1.33,0,0,0,50,64.51Z" transform="translate(-8.88 -9.59)"/><path class="cls-29" d="M43.51,71.64a1.54,1.54,0,0,1-.25.32,1.3,1.3,0,0,1-2-.17A11.94,11.94,0,0,0,37,68.91a10.8,10.8,0,0,0-4.88-1.09,1.34,1.34,0,0,1-1.23-.56,1.64,1.64,0,0,1-.31-.83,1,1,0,0,1,0-.24,1.68,1.68,0,0,0-.24,1,1.65,1.65,0,0,0,.32.83,1.32,1.32,0,0,0,1.22.56,10.8,10.8,0,0,1,4.89,1.1,12,12,0,0,1,4.25,2.87,1.31,1.31,0,0,0,2,.18A1.66,1.66,0,0,0,43.51,71.64Z" transform="translate(-8.88 -9.59)"/><path class="cls-30" d="M133.64,16.4C127.59,8.29,81.91.91,45.15,35S4,117.17,12.64,128.73s51.73,15.48,88.49-18.64S139.68,24.5,133.64,16.4ZM88.48,94.82c-32.27,31-67.61,32.17-74.07,23.79S14.3,71.37,46.57,40.38s69.54-29.67,74.07-23.79S120.75,63.82,88.48,94.82Z" transform="translate(-8.88 -9.59)"/><path class="cls-31" d="M98.6,55.25c3.6,4,2.42,10.91-2.63,15.45s-12,5-15.64,1S77.92,60.77,83,56.24,95,51.26,98.6,55.25Z" transform="translate(-8.88 -9.59)"/><path class="cls-31" d="M76.77,78.25c1.59,1.77,1.07,4.83-1.16,6.84s-5.34,2.21-6.93.44-1.07-4.83,1.16-6.85S75.18,76.48,76.77,78.25Z" transform="translate(-8.88 -9.59)"/></g></g></svg>