<svg xmlns="http://www.w3.org/2000/svg" viewBox="0 0 130.03 130.03"><defs><style>.cls-1{isolation:isolate;}.cls-2{fill:#f7f7f7;}.cls-3{fill:#e6e6e6;}.cls-4{fill:#babcbd;}.cls-4,.cls-6{opacity:0.7;}.cls-4,.cls-5{mix-blend-mode:multiply;}.cls-5{fill:#cfd1d2;}.cls-6{fill:#fff;mix-blend-mode:screen;}</style></defs><g class="cls-1"><g id="Calque_1" data-name="Calque 1"><path class="cls-2" d="M65.58,69.05C37.6,65.47,16.37,73.51,9,76.86a64.84,64.84,0,0,0,5,23c9.43-4.93,32.28-14.7,67.4-16.47A92.06,92.06,0,0,0,65.58,69.05Z" transform="translate(-8.97 -9.68)"/><path class="cls-2" d="M81.43,83.37c-35.12,1.77-58,11.54-67.4,16.47a65.14,65.14,0,0,0,17.35,23.94c10.33-2.29,40.74-10.19,59.82-27.1A85.85,85.85,0,0,0,81.43,83.37Z" transform="translate(-8.97 -9.68)"/><path class="cls-3" d="M91.2,96.68c-19.08,16.91-49.49,24.81-59.82,27.1a64.75,64.75,0,0,0,36.36,15.63c19-5.89,28.48-21,30.41-26.49A66.46,66.46,0,0,0,91.2,96.68Z" transform="translate(-8.97 -9.68)"/><path class="cls-3" d="M138.37,83.71a63.85,63.85,0,0,0,.63-9,64.88,64.88,0,0,0-24-50.47A49.48,49.48,0,0,0,96.51,30C106.66,36.65,130.08,54.76,138.37,83.71Z" transform="translate(-8.97 -9.68)"/><path class="cls-2" d="M138.37,83.71C130.08,54.76,106.66,36.65,96.51,30A67.91,67.91,0,0,0,75.35,47.58c9.89,6.5,38.08,27.34,46.5,58.21a67.13,67.13,0,0,0,12.8-7.7A65.21,65.21,0,0,0,138.37,83.71Z" transform="translate(-8.97 -9.68)"/><path class="cls-2" d="M75.35,47.58c-5.62,7.07-9.24,14.74-9.77,21.47,0,0,25.22,16.81,32.57,43.87a88,88,0,0,0,23.7-7.13C113.43,74.92,85.24,54.08,75.35,47.58Z" transform="translate(-8.97 -9.68)"/><path class="cls-3" d="M43.81,17.1A65,65,0,0,0,9,74.69c0,.73,0,1.45,0,2.17a95.34,95.34,0,0,1,17-5.72C25.31,61.69,25.6,37.29,43.81,17.1Z" transform="translate(-8.97 -9.68)"/><path class="cls-2" d="M89,11.43A65.08,65.08,0,0,0,43.81,17.1C25.6,37.29,25.31,61.69,26,71.14a111.71,111.71,0,0,1,18.85-2.79C46.29,56,53.49,20.66,89,11.43Z" transform="translate(-8.97 -9.68)"/><path class="cls-2" d="M89,11.43C53.49,20.66,46.29,56,44.85,68.35a111,111,0,0,1,20.73.7C67,51.13,90.42,26.43,115,24.22A64.94,64.94,0,0,0,89,11.43Z" transform="translate(-8.97 -9.68)"/><path class="cls-3" d="M114.8,125.29a65.27,65.27,0,0,0,19.85-27.2c-15.83,12.31-36.5,14.83-36.5,14.83-1,3-4.22,8.65-9.87,14.2A54.38,54.38,0,0,0,114.8,125.29Z" transform="translate(-8.97 -9.68)"/><path class="cls-3" d="M88.28,127.12a50.5,50.5,0,0,1-20.54,12.29c2.06.19,4.14.3,6.24.3a64.69,64.69,0,0,0,40.82-14.42A54.38,54.38,0,0,1,88.28,127.12Z" transform="translate(-8.97 -9.68)"/><path class="cls-4" d="M137.55,79.7c-.12-.35-.24-.71-.37-1.06l-.43-1.17-.53-1.37c-.15-.38-.31-.76-.47-1.14s-.37-.89-.57-1.34l-.49-1.11c-.2-.44-.4-.87-.61-1.3l-.52-1.08c-.21-.43-.43-.85-.64-1.28s-.37-.7-.55-1l-.68-1.24-.57-1-.7-1.21c-.2-.33-.39-.66-.59-1s-.49-.8-.74-1.19l-.6-.95c-.25-.39-.51-.77-.77-1.16s-.4-.61-.61-.9-.53-.77-.8-1.15-.4-.58-.61-.86-.55-.76-.83-1.13l-.61-.82-.87-1.12-.59-.76-.93-1.13c-.18-.23-.37-.46-.56-.68-.33-.4-.67-.79-1-1.18l-.5-.58-1.17-1.31-.34-.38c-1-1.11-2-2.18-3-3.2l-.37-.37-1.14-1.13-.52-.5-1-.93c-.19-.19-.39-.36-.58-.54l-.9-.84-.6-.54-.86-.76-.61-.53-.82-.71-.62-.52-.78-.65-.62-.51c-.25-.2-.49-.41-.74-.6l-.61-.49-.71-.56-.59-.45-.69-.53-.57-.43-.65-.48-.55-.41-.61-.44-.54-.38-.57-.4-.5-.35L98,30.43l-.47-.32L97.36,30l.64-.31c.5-.25,1-.5,1.5-.73l1.22-.53.93-.41c.56-.23,1.13-.44,1.69-.65l.48-.18c.68-.24,1.36-.47,2.05-.68l.14-.05a46.27,46.27,0,0,1,6.62-1.52l1-.34c.38-.12.76-.27,1.14-.42a32.64,32.64,0,0,0-3.69.16h0c-.45.08-.89.16-1.34.26l-.81.19c-.52.12-1,.24-1.55.38l-.56.16q-.89.26-1.77.54l-.27.09a54.32,54.32,0,0,0-8.45,3.61A68.69,68.69,0,0,0,75,47.3h0A48.86,48.86,0,0,0,66.22,63.4v0a30.19,30.19,0,0,0-.78,3.3c0,.15,0,.29-.07.43-.06.38-.11.75-.15,1.12,0,.09,0,.19,0,.29-.61-.08-1.23-.13-1.85-.2-.45,0-.91-.11-1.37-.15-.73-.07-1.46-.12-2.19-.17-.43,0-.86-.08-1.3-.1l-2-.1c-1.67-.07-3.34-.12-5-.12-1,0-2,0-3,0h-.07c-1,0-2.06.07-3.07.13.08-.63.17-1.24.25-1.85s.15-1.15.24-1.7.24-1.35.36-2,.19-1.09.29-1.63.28-1.28.42-1.92.23-1,.35-1.57.32-1.21.48-1.81.26-1,.4-1.51.35-1.15.53-1.72.29-1,.45-1.44.39-1.08.58-1.62.32-.93.5-1.38.41-1,.62-1.53l.54-1.32c.22-.49.44-1,.66-1.44s.39-.85.59-1.26.46-.9.69-1.34.42-.82.63-1.21.48-.84.72-1.25.44-.79.67-1.17.5-.77.74-1.16.47-.75.72-1.11.5-.73.76-1.09.49-.71.74-1,.52-.67.77-1,.52-.69.78-1,.52-.61.77-.91.55-.66.83-1l.76-.83c.29-.31.57-.63.86-.93s.49-.49.74-.74l.91-.91.68-.62c.33-.31.66-.62,1-.91l.48-.41Q68.93,21.76,71,20.3l.44-.31,1-.68.67-.44c.3-.2.61-.38.91-.56l.75-.47.87-.49.77-.44.85-.45.77-.4.81-.4.76-.37.77-.35.77-.34c.24-.11.48-.2.72-.3l.76-.32.69-.26.74-.29.65-.23.56-.19.25-.13a20.72,20.72,0,0,0,2.43-1.48l-1.28.24-.3.1c-.52.16-1,.32-1.54.5l-1.6.56-1.47.56L80.24,14c-.47.21-.93.41-1.39.63l-1.43.7L76.09,16l-1.35.76c-.42.25-.84.49-1.25.75l-1.27.82c-.4.26-.8.52-1.19.79l-1.2.87-1.12.85-1.12.91-1.06.89c-.36.31-.71.64-1,1s-.67.61-1,.92l-1,1-.93,1-.92,1c-.29.33-.59.66-.87,1s-.58.7-.86,1.05l-.82,1c-.27.35-.53.71-.8,1.07s-.51.68-.76,1l-.73,1.08c-.24.35-.49.7-.72,1.06s-.45.72-.67,1.09-.45.71-.67,1.07l-.62,1.09c-.2.36-.42.72-.61,1.08l-.58,1.1c-.18.36-.38.72-.56,1.08s-.35.72-.52,1.09l-.52,1.08c-.17.37-.32.73-.48,1.09-.33.74-.64,1.48-.93,2.21-.13.32-.27.65-.39,1s-.28.76-.42,1.14-.25.65-.36,1L48.37,51c-.11.32-.22.64-.32.95s-.23.72-.34,1.08-.2.63-.29.93-.2.7-.3,1-.18.6-.26.9-.18.67-.26,1-.16.58-.23.87-.15.64-.23,1-.14.56-.2.83-.13.62-.2.93-.12.52-.17.77-.12.6-.17.89-.1.49-.14.72-.11.56-.15.83l-.12.67c-.05.27-.09.52-.13.78l-.09.6c0,.25-.07.49-.11.73s0,.35-.07.52-.06.46-.09.68a2.7,2.7,0,0,1,0,.28c-3.11.2-6.08.53-8.88.94l-.4.05c-1.33.2-2.61.42-3.86.65l-.93.18c-1.15.22-2.27.46-3.35.71l-.64.13c0-.07,0-.15,0-.23s0-.28,0-.42l0-.56c0-.15,0-.31,0-.47s0-.39,0-.6,0-.33,0-.5,0-.42,0-.64,0-.36,0-.54V65.39c0-.23,0-.46,0-.7s0-.41,0-.61,0-.49,0-.73,0-.44,0-.66,0-.49,0-.75l0-.69c0-.26,0-.51.05-.77l.06-.73.06-.79c0-.25.05-.5.07-.76l.09-.81c0-.26.05-.53.08-.79s.07-.55.11-.83.07-.54.1-.82.09-.56.13-.84.08-.56.13-.85.09-.57.14-.85.1-.59.16-.88.11-.58.17-.87.11-.59.18-.9.12-.58.19-.87.13-.62.21-.93l.21-.88.24-.95.24-.89.27-1,.27-.9.3-1c.1-.3.2-.61.31-.91s.21-.66.33-1l.33-.91c.12-.34.24-.67.37-1l.36-.92.41-1,.4-.93c.15-.33.29-.67.44-1s.29-.62.44-.93.31-.67.48-1,.32-.62.48-.94l.51-1c.17-.32.35-.63.53-.95s.36-.67.55-1,.38-.64.57-1,.39-.65.59-1,.42-.65.63-1,.41-.64.62-.95.47-.68.7-1l.64-.92c.28-.39.57-.77.86-1.15s.37-.51.57-.76.43-.53.64-.8c.68-1,1.38-2,2.06-3.06-.65.48-1.3,1-1.91,1.5l-.37.45-1.05,1.31-.58.76c-.29.39-.58.77-.86,1.16s-.39.55-.58.83-.52.72-.76,1.09-.38.58-.57.88-.46.7-.68,1.05l-.56.91-.61,1c-.18.31-.35.62-.52.93s-.38.68-.56,1l-.5.94-.51,1c-.15.32-.31.63-.46,1s-.31.66-.46,1-.29.64-.43,1-.29.65-.42,1-.27.64-.4,1-.26.64-.38,1-.25.63-.37.95l-.35,1-.33,1c-.1.31-.21.62-.31.94l-.3,1c-.1.31-.19.62-.28.93s-.19.63-.27.94-.17.61-.25.91-.17.63-.25.94-.15.6-.22.89-.15.62-.22.93-.12.58-.19.87-.13.61-.19.92-.11.57-.17.85-.11.6-.17.9-.09.56-.14.83-.1.6-.14.89-.08.54-.12.8-.09.59-.13.88L26,56c0,.29-.08.58-.11.86s-.05.47-.07.71c-.12,1.13-.21,2.23-.28,3.29,0,.19,0,.38,0,.56l0,.82,0,.61c0,.26,0,.51,0,.77s0,.4,0,.6,0,.49,0,.73,0,.38,0,.57v.7c0,.18,0,.36,0,.53s0,.46,0,.68,0,.32,0,.48,0,.45,0,.67,0,.28,0,.42l0,.64c0,.12,0,.24,0,.36s0,.42,0,.62,0,.13,0,.19a99.61,99.61,0,0,0-12.38,3.85l-.1,0-1.19.47-.74.3-.11,0a9.32,9.32,0,0,0-1.61,1.24l1.68-.39.11,0c.27-.1.54-.21.81-.3a102.5,102.5,0,0,1,20-5.71l.24,0,1.31-.22,1.07-.17,1.08-.17,1.76-.24.47,0q3.42-.44,6.89-.64c2.42-.15,4.86-.21,7.29-.2l1.84,0,1.19,0c1,0,1.95.08,2.93.14l1,.07c.76,0,1.51.11,2.26.18l1,.08c.95.1,1.9.2,2.84.32l.24,0A93.24,93.24,0,0,1,80.47,83l-1.1.07-1.61.1-1.53.11-1.56.12-1.51.13-1.52.14-1.49.15L68.69,84l-1.48.17-1.41.17-1.47.19L63,84.67l-1.44.22-1.31.19-1.41.23c-.42.07-.85.13-1.27.21l-1.41.24-1.2.22-1.42.27-1.12.21-1.46.3c-.34.08-.68.14-1,.21l-1.56.35-.84.19-2.33.54-.66.17-1.61.4-.9.24-1.29.34-.94.26-1.19.34-.93.27-1.13.33-.91.28L34.55,91l-.9.29-1,.33-.87.3-1,.33-.84.3c-.31.1-.63.21-.94.33l-.82.3-.88.32-.79.3-.86.33-.74.29-.83.33-.72.29-.78.33-.68.28-.76.33-.63.27-.73.33-.6.27-.69.31-.57.27-.21.1c-.46.28-.92.55-1.39.81a11.78,11.78,0,0,0-2.13,1.56,10.8,10.8,0,0,0,2-.69l.46-.23.46-.22.59-.27.5-.24.63-.29.55-.25.65-.29.61-.27.69-.3.65-.28.72-.3.71-.29.74-.3.77-.31.78-.3.8-.31.82-.31.85-.32.85-.3.91-.32.88-.31.94-.33.93-.3,1-.33.95-.3,1-.33,1-.3L37.76,91l1-.3,1.12-.32L41,90.09l1.16-.31,1.11-.29,1.19-.31,1.15-.28,1.23-.29L48,88.33l1.25-.28,1.26-.27,1.28-.27,1.31-.26,1.3-.26,1.35-.24,1.35-.25,1.41-.24L59.89,86l1.54-.24,1.3-.19c.57-.09,1.15-.16,1.73-.24l1.19-.16c.9-.12,1.81-.23,2.74-.33l.25,0q1.52-.18,3.06-.33l1-.09,2.18-.19,1.22-.09c.66-.05,1.32-.11,2-.15l1.38-.08,1.77-.1A85.8,85.8,0,0,1,90.62,96.6l-.8.68-.88.75-1,.78c-.3.24-.6.49-.91.72l-1,.77-.93.69-1,.73c-.31.23-.63.45-1,.67l-1.08.72-1,.63-1.12.7-1,.61-1.15.68-1,.57-1.18.66c-.32.18-.64.37-1,.54l-1.21.65-1,.51c-.42.22-.84.44-1.27.65l-.9.46-1.5.73-.68.33-2,.94-.18.08c-.72.33-1.45.66-2.17,1l-.69.29-1.49.64-.82.33-1.33.55-.85.33-1.28.51-.9.34-1.21.45-.91.33c-.38.14-.77.29-1.16.42l-.88.31-1.15.4-.86.29-1.11.38-.86.28-1.07.34-.82.26-1,.33-.79.24-1,.3-.77.23-1,.28-.71.2-.94.27-.66.18-.91.25-.6.16-.88.23-.56.14-.81.21-.52.13-.76.19h0c-.94.37-1.87.74-2.78,1.2a24.83,24.83,0,0,0,4.19-.65l.83-.2,1.48-.37,1.58-.42,1.44-.39,1.53-.43,1.39-.4,1.5-.46,1.32-.4,1.48-.47,1.26-.4,1.48-.5,1.16-.4,1.55-.55,1-.36,1.82-.68,1.15-.44,1.85-.74c.32-.12.62-.25.93-.38l1.36-.56,1-.42,1.24-.53,1-.44c.38-.17.77-.34,1.14-.52l1-.45,1.07-.5.92-.45,1-.51.89-.45,1-.5c.29-.15.58-.3.86-.46l.92-.48.83-.46.87-.48.79-.45.82-.47c.26-.15.51-.31.77-.45s.51-.31.77-.46l.73-.45.72-.45.69-.44c.24-.14.47-.29.69-.44l.65-.42.65-.43.62-.42c.2-.14.41-.27.6-.41l.58-.41.57-.39.55-.4.52-.38.52-.38.47-.36.49-.38.43-.33.46-.36.39-.31.43-.35.34-.28.41-.34.29-.25.38-.33.07-.06c1.14,2,2.22,4,3.2,6.15l0,.06c.3.67.59,1.34.88,2,.07.19.15.38.23.57.21.52.41,1,.62,1.59.08.24.17.48.26.71.19.54.38,1.08.55,1.63.07.2.15.41.21.62.23.72.44,1.45.65,2.18l-.09.22A43,43,0,0,1,87.4,127.35l-1.16,1.07-1,.91L83.9,130.4l-1.05.81c-.41.31-.83.61-1.26.91s-.79.56-1.2.83-.79.51-1.19.75-.88.55-1.34.81-.89.51-1.33.74l-1.13.59c-.56.29-1.13.56-1.71.83L73,137c-.74.33-1.49.63-2.25.92l-.13.05-1.61.78c-.42.21-.83.44-1.25.66a28.41,28.41,0,0,0,3.18-.64c.37-.14.75-.28,1.11-.43l.8-.33c.59-.25,1.17-.51,1.73-.78s.82-.4,1.23-.6l.84-.44a51,51,0,0,0,11.8-8.59l1.19.19,1,.16,1.43.16.92.1c.54.05,1.08.08,1.62.11l.78.05c.81,0,1.62.06,2.44.06h0c.68,0,1.36,0,2,0l.67,0c.46,0,.91,0,1.37-.08l.79-.07c.42,0,.83-.07,1.25-.12l.82-.1,1.23-.17.8-.12,1.29-.23.73-.14c.51-.1,1-.21,1.52-.33l.48-.11c.51-.12,1-.26,1.52-.39l1-.46c.62-.33,1.2-.69,1.79-1-.82.19-1.64.38-2.47.54h0l-1,.26-1.06.27-1.07.24-1,.22-1.16.2-.94.17c-.43.07-.87.12-1.3.18l-.81.11c-.48.06-1,.1-1.43.14l-.69.07c-.51,0-1,.07-1.54.09l-.59,0c-.72,0-1.43,0-2.14,0s-1.55,0-2.32,0l-.77,0-1.52-.1-.9-.09L91,127.1,90,127l-.82-.13a42.87,42.87,0,0,0,9.15-13.18c0-.07,0-.13.07-.19l.06-.15h.12l.17,0A90.42,90.42,0,0,0,122,106.18c1.52-.7,3-1.45,4.41-2.23l.32-.18,1-.55.67-.4.75-.45.9-.56.55-.35,1.08-.71.38-.26c.2-.13.4-.28.6-.42a14.42,14.42,0,0,0,1.8-1.87c-.76.35-1.51.73-2.25,1.13s-1.2.83-1.82,1.23l-.38.26-.91.56-.65.41-.62.36-1,.58-.15.08c-1.52.86-3,1.64-4.57,2.36-.12-.42-.26-.83-.38-1.25s-.25-.86-.39-1.29-.34-1-.51-1.49-.28-.84-.43-1.25-.37-1-.56-1.48-.31-.81-.47-1.21-.41-1-.62-1.46l-.5-1.17c-.22-.49-.45-1-.68-1.46s-.34-.74-.52-1.11l-.75-1.47-.53-1c-.27-.51-.55-1-.83-1.51-.18-.31-.35-.63-.52-.94-.3-.52-.62-1-.93-1.56-.16-.27-.32-.55-.49-.82-.35-.58-.72-1.15-1.08-1.72-.14-.2-.26-.4-.39-.6q-1.5-2.31-3.11-4.47l-.21-.29c-.47-.62-.93-1.24-1.4-1.85l-.48-.6-1.17-1.47c-.19-.24-.39-.47-.59-.7-.36-.44-.72-.88-1.08-1.3l-.65-.74c-.35-.4-.69-.81-1-1.2l-.68-.75c-.34-.38-.68-.76-1-1.13s-.46-.49-.7-.73l-1-1.07c-.23-.25-.47-.48-.71-.72s-.67-.69-1-1l-.72-.71c-.33-.32-.66-.65-1-1L94.22,62l-1-.93-.73-.65-1-.88-.72-.64L89.88,58l-.72-.61-.93-.79-.7-.58-.9-.74-.69-.55-.88-.71-.66-.51-.86-.67-.64-.49-.83-.62-.61-.46-.8-.58-.58-.42-.76-.54-.55-.39-.72-.5-.51-.36-.69-.46-.46-.31-.4-.27c.15-.18.3-.35.44-.53.42-.5.84-1,1.27-1.49.26-.3.51-.59.78-.88q.88-1,1.8-1.92l.78-.76c.44-.45.9-.88,1.36-1.31.29-.28.59-.55.89-.82.57-.52,1.15-1,1.74-1.52l.73-.61c.64-.53,1.3-1,2-1.55l.81-.61c.6-.43,1.19-.86,1.8-1.28l.66-.45c.79-.53,1.6-1,2.41-1.54l.7-.42c.64-.37,1.27-.73,1.92-1.08l.46-.25.47.32.33.22.67.46.37.26.69.48.42.3.72.52.45.32.74.56.49.36.76.58.52.4.77.61.57.45.77.62.6.49.79.66.62.53.8.68.65.56.79.71.68.61.79.73.7.65.78.75.74.7.77.77c.25.25.5.49.74.75l.77.79.76.78.76.82.77.83c.25.27.49.55.74.83l.78.88.73.85.78.92.71.88.79,1,.69.89.79,1c.22.29.43.59.65.89l.8,1.08c.21.29.41.59.62.89l.8,1.14.59.91c.27.39.53.78.79,1.19l.57.92c.26.41.52.82.77,1.24s.36.63.55.94.5.85.74,1.28l.53,1c.24.44.48.88.71,1.32s.32.64.49,1,.47.92.7,1.39c.1.21.19.43.29.64.5,1,1,2.11,1.43,3.19l.45,1.06c.16.39.31.8.46,1.2l.21.53c.88,2,1.69,4,2.43,6C138.09,82.39,137.84,81,137.55,79.7ZM76.16,48.63l.51.35.48.34c.19.12.39.26.58.4l.52.36.64.46.55.39.7.51.58.43.75.56.61.47.8.6.64.5.83.66.67.53.86.7.69.57c.3.24.6.5.9.75l.71.6.92.79.73.64.94.83.75.67,1,.89.75.69,1,.94L95,64l1,1,.76.75c.33.33.66.68,1,1s.51.52.76.79l1,1.07.76.81,1,1.12.75.83,1,1.17.73.86,1,1.23.71.87,1,1.29c.22.29.45.57.67.87s.68.92,1,1.38c.2.29.41.56.62.85.36.51.71,1,1.07,1.55l.52.75c.42.63.83,1.26,1.24,1.9l.3.47c.5.8,1,1.61,1.48,2.43l.32.57c.37.64.74,1.27,1.09,1.92.17.31.33.63.49,1,.29.53.57,1.07.84,1.61.19.36.35.73.53,1.1s.49,1,.73,1.52.34.79.52,1.19.43,1,.64,1.49.33.84.5,1.26.39,1,.57,1.48.3.87.45,1.31.35,1,.51,1.49.27.89.41,1.34.27.89.39,1.33a90.67,90.67,0,0,1-22.1,6.78l-.18,0-.26,0-.23,0h-.08c-.06-.22-.13-.43-.19-.64-.14-.47-.28-.94-.43-1.41-.09-.3-.19-.59-.29-.88-.15-.46-.3-.91-.47-1.36-.09-.27-.19-.54-.29-.8-.19-.49-.38-1-.58-1.48l-.25-.61c-.24-.58-.49-1.16-.76-1.75,0-.09-.07-.17-.11-.26a74.63,74.63,0,0,0-3.53-6.8,86.15,86.15,0,0,0-9.82-13.37A96.29,96.29,0,0,0,66.32,69h0l-.26-.17s0,0,0,0c0-.44.08-.89.15-1.34l.06-.37c.07-.39.14-.79.22-1.19,0-.15.07-.31.1-.46.12-.5.24-1,.39-1.51v0c.15-.53.32-1.06.5-1.6,0-.13.09-.27.14-.41q.24-.68.51-1.35c0-.09.07-.19.11-.28.23-.57.47-1.13.73-1.69a.93.93,0,0,1,.05-.1c.25-.53.51-1.07.78-1.6l.14-.27q.9-1.73,2-3.45l.07-.11c.34-.54.69-1.07,1-1.6l.15-.22c.71-1,1.47-2.07,2.27-3.09l.26.18Z" transform="translate(-8.97 -9.68)"/><path class="cls-5" d="M74,9.68a65,65,0,1,0,65,65A65,65,0,0,0,74,9.68Zm0,117.08c-32.78,0-59.34-25.25-59.34-56.4S41.21,14,74,14s59.32,25.25,59.32,56.4S106.75,126.76,74,126.76Z" transform="translate(-8.97 -9.68)"/><path class="cls-6" d="M67.83,31.21c2.27,5-1,11.36-7.3,14.23S47.28,46.6,45,41.61s1-11.36,7.29-14.23S65.55,26.22,67.83,31.21Z" transform="translate(-8.97 -9.68)"/><path class="cls-6" d="M39.53,46.91c1,2.21-.44,5-3.23,6.3s-5.87.52-6.88-1.69.44-5,3.23-6.31S38.52,44.7,39.53,46.91Z" transform="translate(-8.97 -9.68)"/></g></g></svg>