<svg width="218" height="63" viewBox="0 0 218 63" fill="none" xmlns="http://www.w3.org/2000/svg">
<path d="M53.5565 40.5338C52.5309 39.9641 51.3507 39.8241 50.2277 40.1414C49.2668 40.411 48.4633 41.0002 47.894 41.7953L40.4591 37.5028L50.0945 34.9421C50.5417 34.8244 50.8084 34.3625 50.6875 33.915C50.5686 33.4705 50.1034 33.2019 49.6562 33.3196L38.3943 36.3125L35.1869 34.4608L42.5069 31.2442L35.176 28.0109L38.3811 26.168L49.6505 29.2005C50.0982 29.3213 50.5598 29.0556 50.6793 28.6092C50.801 28.1622 50.5278 27.7068 50.0841 27.579L40.4383 24.9833L47.8719 20.7123C48.2325 21.2107 48.6657 21.6544 49.1996 21.9626C50.5279 22.7295 52.1833 22.7456 53.5215 22.0037C55.6234 20.8355 56.3757 18.17 55.2001 16.0641C54.0614 14.0335 51.2656 13.2455 49.2425 14.3679C48.2265 14.9368 47.4858 15.8637 47.1724 16.989C46.962 17.716 46.973 18.4703 47.1455 19.1876L39.5947 23.5287L42.1609 13.9096C42.2834 13.4612 42.0106 13.0115 41.5657 12.8793C41.1165 12.7577 40.6549 13.0233 40.536 13.4719L37.5356 24.7104L34.3299 26.5512L35.1838 18.6098L28.7306 23.3184L28.7239 19.6248L36.9546 11.4135C37.2845 11.0849 37.2813 10.5564 36.9516 10.2247C36.6197 9.9065 36.0908 9.89702 35.7617 10.2243L28.7182 17.2529L28.7041 8.65029C30.7126 8.26182 32.2352 6.49503 32.2317 4.37183C32.2271 2.05636 30.1853 0.00113359 27.8468 1.18651e-05C25.4362 -0.00555969 23.4766 1.95179 23.4795 4.35748C23.4814 5.91406 24.3243 7.36642 25.6779 8.14791C26.0926 8.38738 26.5478 8.53106 27.0197 8.62302L27.0356 17.2453L19.969 10.192C19.6354 9.87662 19.1046 9.86412 18.7777 10.1908C18.4484 10.5217 18.4508 11.0515 18.7799 11.3811L27.0394 19.6236L27.0459 23.3207L20.5803 18.5887L21.4571 26.532L18.2455 24.6778L15.2058 13.4296C15.0841 12.9835 14.6217 12.7165 14.1745 12.8342C13.725 12.9524 13.4584 13.4144 13.5815 13.8613L16.1809 23.4839L8.61434 19.1154C9.03827 17.2873 8.25028 15.3029 6.50016 14.2925L6.49876 14.2917C4.391 13.1175 1.72091 13.872 0.544422 15.9745C-0.608318 18.0423 0.129751 20.6956 2.18955 21.8849L2.2484 21.9188C4.20741 23.0108 6.63166 22.4232 7.9103 20.6551L15.341 24.9452L5.7094 27.5026C5.25999 27.6208 4.99411 28.0813 5.11641 28.5297C5.17715 28.7545 5.32323 28.9319 5.51099 29.0403C5.69735 29.1479 5.92701 29.1837 6.15051 29.1267L17.4086 26.1371L20.6202 27.9913L13.299 31.2034L20.6305 34.439L17.4336 36.2774L6.15406 33.2464C5.7041 33.1262 5.24408 33.389 5.12217 33.8396C5.00328 34.2883 5.27712 34.7459 5.71966 34.8693L15.3685 37.463L7.94422 41.7338C6.67615 40.0211 4.15448 39.4119 2.28277 40.4468C1.26258 41.0133 0.5261 41.9426 0.208519 43.0655C-0.107452 44.1855 0.0323254 45.364 0.604167 46.3863C0.98905 47.0756 1.55388 47.6473 2.23628 48.0413C3.56464 48.8082 5.2206 48.8265 6.55883 48.0845C7.57982 47.5167 8.3141 46.5879 8.63168 45.4651C8.83874 44.7343 8.83114 43.9838 8.66106 43.2622L16.211 38.9225L13.6466 48.5353C13.5473 48.9078 13.7167 49.294 14.039 49.4801C14.1021 49.5165 14.1716 49.5418 14.2435 49.5628C14.6926 49.6844 15.1551 49.4174 15.2746 48.971L18.2726 37.7367L21.4769 35.8951L20.6251 43.8359L27.0747 39.1271L27.0853 42.8173L18.8559 51.0294C18.5266 51.3603 18.5284 51.8879 18.8567 52.2188C18.9101 52.272 18.9681 52.3203 19.0298 52.3559C19.3549 52.5436 19.769 52.4962 20.0456 52.2242L27.0915 45.1914L27.1055 53.7976C25.0961 54.1875 23.5751 55.9515 23.5772 58.0739C23.5791 59.6304 24.4242 61.0822 25.7764 61.8629C26.4392 62.2456 27.1943 62.4489 27.9619 62.4493C29.1358 62.4516 30.2288 62.0016 31.0548 61.176C31.8814 60.3527 32.3345 59.2541 32.3322 58.0898C32.3306 56.0571 30.7535 54.2292 28.7893 53.8097L28.7722 45.196L35.8425 52.2589C36.1757 52.5815 36.7056 52.586 37.033 52.2615C37.3617 51.9284 37.3563 51.4006 37.0308 51.0713L28.7673 42.8227L28.7606 39.1292L35.2326 43.8631L34.3494 35.9179L37.5638 37.7737L40.598 49.0187C40.6615 49.2451 40.8076 49.4225 40.9925 49.5293C41.1789 49.6369 41.4086 49.6727 41.6307 49.6149C42.0801 49.4966 42.3459 49.0361 42.2237 48.5878L39.6284 38.9676L47.1964 43.337C46.771 45.1642 47.5504 47.1474 49.2543 48.1311L49.3117 48.1643C51.4209 49.3392 54.091 48.5847 55.2601 46.4854C56.4104 44.4088 55.678 41.7587 53.5565 40.5338ZM48.7939 17.4489C48.9892 16.7578 49.4421 16.1838 50.0685 15.8366C50.9038 15.3736 51.8984 15.3822 52.7307 15.8627C52.7615 15.8805 52.7845 15.9087 52.8137 15.9293C53.191 16.1657 53.5119 16.4868 53.733 16.8805C53.7885 16.9851 53.8257 17.0922 53.8707 17.2019C54.3672 18.4356 53.8913 19.8746 52.7013 20.5346C51.5861 21.1523 50.1242 20.8498 49.3128 19.8864C49.2093 19.7615 49.1126 19.6312 49.0318 19.4897C48.8241 19.1148 48.7206 18.7053 48.7056 18.291C48.6982 18.0095 48.7154 17.7273 48.7939 17.4489ZM25.1668 4.36036C25.1648 3.16651 25.9586 2.16047 27.044 1.81769C27.3008 1.73525 27.5692 1.6781 27.8537 1.68047C28.1296 1.68158 28.3967 1.73346 28.6591 1.81612C28.8432 1.87588 29.0299 1.94087 29.198 2.03795C30.0317 2.5193 30.5502 3.41404 30.5516 4.3694C30.5555 5.55686 29.7745 6.55357 28.7031 6.90445C28.4373 6.99283 28.1602 7.04873 27.8639 7.05069C27.5714 7.04927 27.2883 6.98629 27.0187 6.89018C25.9674 6.51392 25.168 5.49418 25.1668 4.36036ZM1.88403 17.107C1.9248 17.004 1.96379 16.8944 2.0204 16.7932C2.24764 16.3866 2.57087 16.0727 2.94219 15.8405C3.75009 15.3376 4.80363 15.2667 5.71608 15.7767C6.60585 16.2904 7.08283 17.2506 7.05057 18.2125C7.03583 18.6264 6.9417 19.0353 6.72896 19.4168C6.64899 19.5585 6.55542 19.685 6.45625 19.8082C5.64866 20.7895 4.22482 21.0876 3.06793 20.4476L2.61555 21.1502L3.0329 20.4274C1.86568 19.7535 1.40299 18.3253 1.88403 17.107ZM7.01421 44.9982C6.81889 45.6893 6.36384 46.2639 5.73739 46.6111C4.90374 47.0713 3.90856 47.0605 3.07763 46.5808C3.04821 46.5638 3.02523 46.5356 2.99521 46.5164C2.61733 46.2778 2.29561 45.9581 2.07593 45.5652C2.01827 45.4612 1.97967 45.3533 1.93665 45.2466C1.71599 44.6968 1.66908 44.0985 1.83383 43.5219C2.03056 42.8317 2.48178 42.2605 3.11124 41.9113C3.94731 41.4469 4.94109 41.4569 5.77342 41.9374C6.05226 42.0984 6.28021 42.3249 6.48686 42.5689C6.58897 42.693 6.69791 42.8117 6.77712 42.956C6.98702 43.3303 7.08917 43.7391 7.1055 44.1541C7.11135 44.4384 7.09275 44.7198 7.01421 44.9982ZM29.2893 55.7525C30.1244 56.2347 30.6387 57.127 30.6407 58.0845C30.643 58.8022 30.3639 59.4765 29.8549 59.9828C29.5427 60.2937 29.166 60.5061 28.7575 60.6312C28.5037 60.7116 28.2339 60.768 27.9502 60.7642C27.6749 60.7653 27.4097 60.707 27.1555 60.6198C26.082 60.2624 25.2568 59.2259 25.2559 58.0755C25.2513 56.8894 26.0306 55.8955 27.103 55.5396C27.3661 55.4496 27.6445 55.3946 27.9414 55.3948C28.2305 55.3924 28.5136 55.4554 28.785 55.5451C28.9583 55.6042 29.1324 55.6619 29.2893 55.7525ZM27.9136 36.4315L22.704 40.2319L23.3933 33.8217L22.4381 33.3986L17.4739 31.208L23.3828 28.6169L22.6755 22.1986L27.0533 25.4015L27.8967 26.015L33.1055 22.216L32.4155 28.6276L38.3342 31.2391L33.3787 33.4149L32.4235 33.8366L32.5364 34.8674L33.1312 40.2477L27.9136 36.4315ZM48.7542 44.2308C48.7695 43.8191 48.8664 43.4118 49.0786 43.0281C49.1577 42.8878 49.2527 42.7621 49.3499 42.6359C49.6938 42.2149 50.1556 41.9102 50.6897 41.7553C51.3819 41.5595 52.109 41.6463 52.7794 42.0222C53.9382 42.6912 54.4029 44.1224 53.9229 45.3357C53.8797 45.4428 53.8379 45.5508 53.7835 45.6515C53.5579 46.0553 53.2347 46.3692 52.8689 46.6046C52.061 47.1076 51.0159 47.1833 50.1223 46.686L49.6735 47.3888L50.0901 46.6674C49.1973 46.1556 48.7209 45.1977 48.7542 44.2308Z" fill="#024873"/>
<path d="M119.231 2.48852L109.223 45.8993H101.667L92.785 8.91728L83.9696 45.8993H76.4136L66.3389 2.48852H72.3042L80.3904 39.7356L88.9407 2.48852H96.6293L105.246 39.7356L113.266 2.48852H119.231Z" fill="#024873"/>
<path d="M136.383 1.69321C138.769 1.69321 141.884 2.04668 145.728 2.75362L145.596 7.72432C141.973 7.01738 138.902 6.6639 136.383 6.6639C133.82 6.6639 131.964 7.17202 130.815 8.18825C129.711 9.20448 129.158 10.7509 129.158 12.8276V14.5507C129.158 15.6553 129.291 16.539 129.556 17.2018C129.865 17.8203 130.395 18.3726 131.147 18.8587C131.898 19.3005 133.025 19.7644 134.527 20.2505L140.691 22.305C143.652 23.3213 145.728 24.6689 146.922 26.3479C148.159 28.0268 148.777 30.4791 148.777 33.7045V34.9637C148.777 38.8961 147.629 41.8343 145.331 43.7784C143.077 45.7225 139.365 46.6946 134.196 46.6946C131.677 46.6946 128.451 46.2527 124.519 45.369L124.651 40.2658C128.319 41.1495 131.456 41.5913 134.063 41.5913C137.377 41.5913 139.719 41.1053 141.089 40.1332C142.459 39.117 143.144 37.5485 143.144 35.4277V33.2406C143.144 31.6941 142.79 30.5232 142.083 29.7279C141.42 28.8884 140.227 28.1815 138.504 27.6071L131.677 25.3537C128.628 24.3375 126.507 23.0341 125.314 21.4434C124.121 19.8086 123.524 17.3564 123.524 14.0868V13.3578C123.524 9.51377 124.541 6.61972 126.573 4.67562C128.65 2.68735 131.92 1.69321 136.383 1.69321Z" fill="#024873"/>
<path d="M167.531 1.69321C172.745 1.69321 176.611 2.75362 179.13 4.87445C181.693 6.9511 182.974 9.93352 182.974 13.8217V15.4123C182.974 19.5656 181.737 22.769 179.263 25.0223C176.788 27.2757 173.054 28.4024 168.061 28.4024C166.073 28.4024 163.952 28.2257 161.698 27.8722V45.8993H156.064V2.02459C159.82 1.80367 163.642 1.69321 167.531 1.69321ZM167.398 6.46508C165.454 6.46508 163.554 6.50926 161.698 6.59763V23.0341C164.349 23.3875 166.382 23.5643 167.796 23.5643C174.159 23.5643 177.34 20.7586 177.34 15.1472V14.0205C177.34 11.502 176.545 9.62423 174.954 8.38708C173.364 7.10574 170.845 6.46508 167.398 6.46508Z" fill="#024873"/>
<path d="M204.016 2.48852L217.339 45.8993H211.241L208.391 35.8253H192.417L189.567 45.8993H183.801L197.057 2.48852H204.016ZM200.437 7.65804L193.809 30.7883H206.999L200.437 7.65804Z" fill="#024873"/>
<path d="M74.1304 53.9691L72.6561 59.9921H71.543L70.2346 54.861L68.936 59.9921H67.823L66.3389 53.9691H67.2176L68.4088 59.1369L69.6683 53.9691H70.8009L72.0702 59.1369L73.2517 53.9691H74.1304Z" fill="#024873"/>
<path d="M75.8846 55.5047V59.9921H75.0546V55.5047H75.8846ZM75.4647 53.6932C75.6405 53.6932 75.7739 53.73 75.865 53.8036C75.9627 53.8771 76.0115 53.9813 76.0115 54.1162V54.3829C76.0115 54.5177 75.9627 54.6219 75.865 54.6955C75.7739 54.7629 75.6405 54.7967 75.4647 54.7967C75.2955 54.7967 75.162 54.7629 75.0644 54.6955C74.9733 54.6219 74.9277 54.5177 74.9277 54.3829V54.1162C74.9277 53.9813 74.9733 53.8771 75.0644 53.8036C75.162 53.73 75.2955 53.6932 75.4647 53.6932Z" fill="#024873"/>
<path d="M79.3274 55.3944C79.744 55.3944 80.0629 55.5292 80.2842 55.799C80.5121 56.0626 80.626 56.4396 80.626 56.93V59.9921H79.796V57.0403C79.796 56.4273 79.5845 56.1208 79.1614 56.1208C78.9726 56.1208 78.7806 56.1882 78.5853 56.3231C78.39 56.458 78.2208 56.6419 78.0776 56.8748V59.9921H77.2477V55.5047H78.0288V56.176C78.2045 55.9246 78.3998 55.7315 78.6146 55.5967C78.8359 55.4618 79.0735 55.3944 79.3274 55.3944Z" fill="#024873"/>
<path d="M82.9725 55.5047H84.2418V56.1484H82.9725V58.7783C82.9725 59.0112 83.0213 59.1798 83.119 59.284C83.2231 59.3821 83.3826 59.4311 83.5974 59.4311C83.8708 59.4311 84.1376 59.4005 84.398 59.3392L84.4175 59.9921C84.1311 60.0656 83.8708 60.1024 83.6364 60.1024C83.1157 60.1024 82.7349 59.9951 82.4941 59.7806C82.2597 59.5599 82.1426 59.2043 82.1426 58.7139V56.1484H81.4591V55.5047H82.1426L82.2988 54.3093H82.9725V55.5047Z" fill="#024873"/>
<path d="M86.8574 55.3944C87.4042 55.3944 87.8208 55.5354 88.1072 55.8173C88.3936 56.0993 88.5368 56.507 88.5368 57.0403V57.9875H86.0275V58.53C86.0275 58.8426 86.1056 59.0695 86.2618 59.2104C86.4246 59.3453 86.6784 59.4128 87.0234 59.4128C87.3619 59.4128 87.785 59.3637 88.2927 59.2656L88.3122 59.9461C87.7069 60.0503 87.274 60.1024 87.0137 60.1024C86.3692 60.1024 85.9038 59.9706 85.6174 59.707C85.3375 59.4434 85.1976 59.0357 85.1976 58.484V57.0403C85.1976 56.507 85.3343 56.0993 85.6077 55.8173C85.8876 55.5354 86.3041 55.3944 86.8574 55.3944ZM86.8574 56.0472C86.6036 56.0472 86.4018 56.1239 86.2521 56.2771C86.1024 56.4242 86.0275 56.6388 86.0275 56.9208V57.3622H87.7069V56.9484C87.7069 56.6541 87.6288 56.4304 87.4726 56.2771C87.3228 56.1239 87.1178 56.0472 86.8574 56.0472Z" fill="#024873"/>
<path d="M91.742 55.3944C91.8331 55.3944 91.9047 55.4005 91.9568 55.4127V56.2955C91.8591 56.2771 91.7322 56.2679 91.576 56.2679C91.1203 56.2679 90.7591 56.4825 90.4922 56.9116V59.9921H89.6623V55.5047H90.4434V56.176C90.6191 55.9246 90.8144 55.7315 91.0292 55.5967C91.2505 55.4618 91.4881 55.3944 91.742 55.3944Z" fill="#024873"/>
<path d="M96.2419 53.8587C96.5934 53.8587 97.0523 53.9078 97.6186 54.0059L97.5991 54.6955C97.0654 54.5974 96.613 54.5484 96.2419 54.5484C95.8644 54.5484 95.591 54.6189 95.4218 54.7599C95.259 54.9009 95.1777 55.1154 95.1777 55.4036V55.6426C95.1777 55.7959 95.1972 55.9185 95.2363 56.0105C95.2818 56.0963 95.3599 56.1729 95.4706 56.2403C95.5813 56.3016 95.7472 56.366 95.9686 56.4334L96.8766 56.7185C97.3127 56.8595 97.6186 57.0465 97.7944 57.2794C97.9766 57.5124 98.0678 57.8526 98.0678 58.3001V58.4748C98.0678 59.0204 97.8985 59.4281 97.5601 59.6978C97.2281 59.9675 96.6813 60.1024 95.9197 60.1024C95.5487 60.1024 95.0735 60.0411 94.4942 59.9185L94.5137 59.2104C95.054 59.3331 95.5162 59.3944 95.9002 59.3944C96.3884 59.3944 96.7334 59.3269 96.9352 59.1921C97.137 59.0511 97.2379 58.8334 97.2379 58.5392V58.2357C97.2379 58.0212 97.1858 57.8587 97.0816 57.7484C96.984 57.6319 96.8082 57.5338 96.5544 57.4541L95.5487 57.1415C95.0996 57.0005 94.7871 56.8196 94.6114 56.599C94.4356 56.3721 94.3478 56.0319 94.3478 55.5783V55.4771C94.3478 54.9438 94.4975 54.5423 94.7969 54.2725C95.1028 53.9967 95.5845 53.8587 96.2419 53.8587Z" fill="#024873"/>
<path d="M101.162 55.3944C101.572 55.3944 101.891 55.5262 102.119 55.7898C102.347 56.0534 102.461 56.4334 102.461 56.93V58.5668C102.461 59.0449 102.327 59.4219 102.061 59.6978C101.8 59.9675 101.445 60.1024 100.996 60.1024C100.827 60.1024 100.645 60.0687 100.45 60.0013C100.261 59.94 100.085 59.8664 99.9223 59.7806V61.6932H99.0924V55.5047H99.8735V56.1576C100.231 55.6488 100.661 55.3944 101.162 55.3944ZM100.996 56.0932C100.808 56.0932 100.616 56.1606 100.42 56.2955C100.231 56.4242 100.065 56.602 99.9223 56.8288V59.0817C100.059 59.1859 100.209 59.2687 100.371 59.33C100.541 59.3852 100.694 59.4128 100.83 59.4128C101.364 59.4128 101.631 59.094 101.631 58.4564V57.0403C101.631 56.4089 101.419 56.0932 100.996 56.0932Z" fill="#024873"/>
<path d="M105.347 55.3944C105.927 55.3944 106.356 55.5415 106.636 55.8357C106.922 56.1239 107.066 56.5346 107.066 57.0679V58.4288C107.066 58.9622 106.922 59.376 106.636 59.6702C106.356 59.9583 105.927 60.1024 105.347 60.1024C104.768 60.1024 104.335 59.9583 104.049 59.6702C103.769 59.376 103.629 58.9622 103.629 58.4288V57.0679C103.629 56.5346 103.769 56.1239 104.049 55.8357C104.335 55.5415 104.768 55.3944 105.347 55.3944ZM105.347 56.0472C105.067 56.0472 104.849 56.13 104.693 56.2955C104.537 56.461 104.459 56.697 104.459 57.0036V58.4932C104.459 58.7997 104.537 59.0357 104.693 59.2013C104.849 59.3668 105.067 59.4495 105.347 59.4495C105.627 59.4495 105.845 59.3668 106.001 59.2013C106.158 59.0357 106.236 58.7997 106.236 58.4932V56.9944C106.236 56.6878 106.158 56.4549 106.001 56.2955C105.845 56.13 105.627 56.0472 105.347 56.0472Z" fill="#024873"/>
<path d="M110.411 55.3944C110.503 55.3944 110.574 55.4005 110.626 55.4127V56.2955C110.529 56.2771 110.402 56.2679 110.246 56.2679C109.79 56.2679 109.429 56.4825 109.162 56.9116V59.9921H108.332V55.5047H109.113V56.176C109.289 55.9246 109.484 55.7315 109.699 55.5967C109.92 55.4618 110.158 55.3944 110.411 55.3944Z" fill="#024873"/>
<path d="M112.712 55.5047H113.981V56.1484H112.712V58.7783C112.712 59.0112 112.761 59.1798 112.859 59.284C112.963 59.3821 113.122 59.4311 113.337 59.4311C113.61 59.4311 113.877 59.4005 114.138 59.3392L114.157 59.9921C113.871 60.0656 113.61 60.1024 113.376 60.1024C112.855 60.1024 112.475 59.9951 112.234 59.7806C111.999 59.5599 111.882 59.2043 111.882 58.7139V56.1484H111.199V55.5047H111.882L112.038 54.3093H112.712V55.5047Z" fill="#024873"/>
<path d="M116.402 55.3944C116.675 55.3944 117.004 55.4311 117.388 55.5047L117.368 56.1668C117.03 56.0932 116.721 56.0564 116.441 56.0564C115.855 56.0564 115.562 56.2342 115.562 56.5898V56.6725C115.562 56.7829 115.591 56.8718 115.65 56.9392C115.715 57.0066 115.829 57.0771 115.992 57.1507L116.91 57.5553C117.463 57.8005 117.739 58.1591 117.739 58.6311V58.8334C117.733 59.2564 117.596 59.5752 117.329 59.7898C117.069 59.9982 116.656 60.1024 116.089 60.1024C115.796 60.1024 115.377 60.038 114.83 59.9093L114.869 59.2104C115.357 59.3453 115.757 59.4128 116.07 59.4128C116.389 59.4128 116.61 59.3729 116.734 59.2932C116.857 59.2074 116.919 59.0695 116.919 58.8794V58.7875C116.919 58.6403 116.887 58.5239 116.822 58.438C116.763 58.3522 116.662 58.2786 116.519 58.2173L115.572 57.8219C115.286 57.6993 115.074 57.5522 114.937 57.3806C114.807 57.2089 114.742 57.0097 114.742 56.7829V56.6541C114.755 56.2373 114.892 55.9246 115.152 55.7162C115.419 55.5016 115.836 55.3944 116.402 55.3944Z" fill="#024873"/>
<path d="M122.255 53.8587C123.024 53.8587 123.593 54.0059 123.964 54.3001C124.342 54.5882 124.53 55.002 124.53 55.5415V55.7622C124.53 56.3384 124.348 56.7829 123.984 57.0955C123.619 57.4082 123.069 57.5645 122.334 57.5645C122.041 57.5645 121.728 57.54 121.396 57.4909V59.9921H120.566V53.9047C121.12 53.8741 121.683 53.8587 122.255 53.8587ZM122.236 54.5208C121.95 54.5208 121.67 54.5269 121.396 54.5392V56.8196C121.787 56.8687 122.086 56.8932 122.295 56.8932C123.232 56.8932 123.701 56.5039 123.701 55.7254V55.5691C123.701 55.2196 123.583 54.9591 123.349 54.7875C123.115 54.6097 122.744 54.5208 122.236 54.5208Z" fill="#024873"/>
<path d="M127.125 55.3944C127.704 55.3944 128.134 55.5415 128.414 55.8357C128.7 56.1239 128.844 56.5346 128.844 57.0679V58.4288C128.844 58.9622 128.7 59.376 128.414 59.6702C128.134 59.9583 127.704 60.1024 127.125 60.1024C126.546 60.1024 126.113 59.9583 125.827 59.6702C125.547 59.376 125.407 58.9622 125.407 58.4288V57.0679C125.407 56.5346 125.547 56.1239 125.827 55.8357C126.113 55.5415 126.546 55.3944 127.125 55.3944ZM127.125 56.0472C126.845 56.0472 126.627 56.13 126.471 56.2955C126.315 56.461 126.237 56.697 126.237 57.0036V58.4932C126.237 58.7997 126.315 59.0357 126.471 59.2013C126.627 59.3668 126.845 59.4495 127.125 59.4495C127.405 59.4495 127.623 59.3668 127.779 59.2013C127.936 59.0357 128.014 58.7997 128.014 58.4932V56.9944C128.014 56.6878 127.936 56.4549 127.779 56.2955C127.623 56.13 127.405 56.0472 127.125 56.0472Z" fill="#024873"/>
<path d="M132.18 55.3944C132.59 55.3944 132.909 55.5262 133.137 55.7898C133.364 56.0534 133.478 56.4334 133.478 56.93V58.5668C133.478 59.0449 133.345 59.4219 133.078 59.6978C132.818 59.9675 132.463 60.1024 132.014 60.1024C131.844 60.1024 131.662 60.0687 131.467 60.0013C131.278 59.94 131.102 59.8664 130.94 59.7806V61.6932H130.11V55.5047H130.891V56.1576C131.249 55.6488 131.678 55.3944 132.18 55.3944ZM132.014 56.0932C131.825 56.0932 131.633 56.1606 131.438 56.2955C131.249 56.4242 131.083 56.602 130.94 56.8288V59.0817C131.076 59.1859 131.226 59.2687 131.389 59.33C131.558 59.3852 131.711 59.4128 131.848 59.4128C132.381 59.4128 132.648 59.094 132.648 58.4564V57.0403C132.648 56.4089 132.437 56.0932 132.014 56.0932Z" fill="#024873"/>
<path d="M138.063 59.9921H137.282V59.3484C137.107 59.5936 136.911 59.7806 136.697 59.9093C136.482 60.038 136.254 60.1024 136.013 60.1024C135.616 60.1024 135.304 59.9737 135.076 59.7162C134.854 59.4526 134.744 59.0695 134.744 58.5668V55.5047H135.574V58.4288C135.574 58.7537 135.626 58.9928 135.73 59.1461C135.841 59.2993 135.99 59.376 136.179 59.376C136.355 59.376 136.537 59.3116 136.726 59.1829C136.921 59.048 137.09 58.8641 137.234 58.6311V55.5047H138.063V59.9921Z" fill="#024873"/>
<path d="M140.265 53.7116V59.9921H139.435V53.7116H140.265Z" fill="#024873"/>
<path d="M143.083 55.3944C143.643 55.3944 144.049 55.5139 144.303 55.753C144.564 55.9859 144.694 56.3599 144.694 56.8748V59.9921H143.903V59.2748C143.525 59.8265 143.099 60.1024 142.624 60.1024C142.246 60.1024 141.944 59.9798 141.716 59.7346C141.495 59.4894 141.384 59.1553 141.384 58.7323V58.4748C141.384 58.107 141.517 57.8036 141.784 57.5645C142.051 57.3193 142.409 57.1967 142.858 57.1967C143.106 57.1967 143.441 57.2365 143.864 57.3162V56.8104C143.864 56.5468 143.799 56.3568 143.669 56.2403C143.545 56.1239 143.35 56.0656 143.083 56.0656C142.77 56.0656 142.331 56.1116 141.765 56.2036V55.5323C142.377 55.4403 142.816 55.3944 143.083 55.3944ZM143.063 57.8036C142.79 57.8036 142.582 57.871 142.438 58.0059C142.295 58.1407 142.224 58.3308 142.224 58.576V58.6771C142.224 58.9039 142.279 59.0817 142.39 59.2104C142.5 59.3392 142.64 59.4036 142.809 59.4036C142.985 59.4036 143.164 59.3331 143.346 59.1921C143.535 59.0449 143.708 58.8396 143.864 58.576V57.8679C143.617 57.825 143.35 57.8036 143.063 57.8036Z" fill="#024873"/>
<path d="M148.094 55.3944C148.185 55.3944 148.257 55.4005 148.309 55.4127V56.2955C148.211 56.2771 148.084 56.2679 147.928 56.2679C147.472 56.2679 147.111 56.4825 146.844 56.9116V59.9921H146.014V55.5047H146.795V56.176C146.971 55.9246 147.166 55.7315 147.381 55.5967C147.602 55.4618 147.84 55.3944 148.094 55.3944Z" fill="#024873"/>
<path d="M150.019 55.5047V59.9921H149.189V55.5047H150.019ZM149.599 53.6932C149.775 53.6932 149.909 53.73 150 53.8036C150.097 53.8771 150.146 53.9813 150.146 54.1162V54.3829C150.146 54.5177 150.097 54.6219 150 54.6955C149.909 54.7629 149.775 54.7967 149.599 54.7967C149.43 54.7967 149.297 54.7629 149.199 54.6955C149.108 54.6219 149.062 54.5177 149.062 54.3829V54.1162C149.062 53.9813 149.108 53.8771 149.199 53.8036C149.297 53.73 149.43 53.6932 149.599 53.6932Z" fill="#024873"/>
<path d="M154.224 55.5047V56.084L152.017 59.3208H154.224V59.9921H151.041V59.4128L153.257 56.176H151.089V55.5047H154.224Z" fill="#024873"/>
<path d="M156.756 55.3944C157.316 55.3944 157.723 55.5139 157.977 55.753C158.237 55.9859 158.367 56.3599 158.367 56.8748V59.9921H157.576V59.2748C157.199 59.8265 156.772 60.1024 156.297 60.1024C155.92 60.1024 155.617 59.9798 155.389 59.7346C155.168 59.4894 155.057 59.1553 155.057 58.7323V58.4748C155.057 58.107 155.191 57.8036 155.457 57.5645C155.724 57.3193 156.082 57.1967 156.531 57.1967C156.779 57.1967 157.114 57.2365 157.537 57.3162V56.8104C157.537 56.5468 157.472 56.3568 157.342 56.2403C157.218 56.1239 157.023 56.0656 156.756 56.0656C156.444 56.0656 156.004 56.1116 155.438 56.2036V55.5323C156.05 55.4403 156.489 55.3944 156.756 55.3944ZM156.737 57.8036C156.463 57.8036 156.255 57.871 156.112 58.0059C155.968 58.1407 155.897 58.3308 155.897 58.576V58.6771C155.897 58.9039 155.952 59.0817 156.063 59.2104C156.173 59.3392 156.313 59.4036 156.483 59.4036C156.658 59.4036 156.837 59.3331 157.02 59.1921C157.208 59.0449 157.381 58.8396 157.537 58.576V57.8679C157.29 57.825 157.023 57.8036 156.737 57.8036Z" fill="#024873"/>
<path d="M160.664 55.5047H161.933V56.1484H160.664V58.7783C160.664 59.0112 160.713 59.1798 160.81 59.284C160.914 59.3821 161.074 59.4311 161.289 59.4311C161.562 59.4311 161.829 59.4005 162.089 59.3392L162.109 59.9921C161.822 60.0656 161.562 60.1024 161.328 60.1024C160.807 60.1024 160.426 59.9951 160.185 59.7806C159.951 59.5599 159.834 59.2043 159.834 58.7139V56.1484H159.15V55.5047H159.834L159.99 54.3093H160.664V55.5047Z" fill="#024873"/>
<path d="M163.816 55.5047V59.9921H162.986V55.5047H163.816ZM163.397 53.6932C163.572 53.6932 163.706 53.73 163.797 53.8036C163.894 53.8771 163.943 53.9813 163.943 54.1162V54.3829C163.943 54.5177 163.894 54.6219 163.797 54.6955C163.706 54.7629 163.572 54.7967 163.397 54.7967C163.227 54.7967 163.094 54.7629 162.996 54.6955C162.905 54.6219 162.86 54.5177 162.86 54.3829V54.1162C162.86 53.9813 162.905 53.8771 162.996 53.8036C163.094 53.73 163.227 53.6932 163.397 53.6932Z" fill="#024873"/>
<path d="M166.8 55.3944C167.38 55.3944 167.809 55.5415 168.089 55.8357C168.376 56.1239 168.519 56.5346 168.519 57.0679V58.4288C168.519 58.9622 168.376 59.376 168.089 59.6702C167.809 59.9583 167.38 60.1024 166.8 60.1024C166.221 60.1024 165.788 59.9583 165.502 59.6702C165.222 59.376 165.082 58.9622 165.082 58.4288V57.0679C165.082 56.5346 165.222 56.1239 165.502 55.8357C165.788 55.5415 166.221 55.3944 166.8 55.3944ZM166.8 56.0472C166.52 56.0472 166.302 56.13 166.146 56.2955C165.99 56.461 165.912 56.697 165.912 57.0036V58.4932C165.912 58.7997 165.99 59.0357 166.146 59.2013C166.302 59.3668 166.52 59.4495 166.8 59.4495C167.08 59.4495 167.298 59.3668 167.454 59.2013C167.611 59.0357 167.689 58.7997 167.689 58.4932V56.9944C167.689 56.6878 167.611 56.4549 167.454 56.2955C167.298 56.13 167.08 56.0472 166.8 56.0472Z" fill="#024873"/>
<path d="M171.865 55.3944C172.281 55.3944 172.6 55.5292 172.821 55.799C173.049 56.0626 173.163 56.4396 173.163 56.93V59.9921H172.333V57.0403C172.333 56.4273 172.122 56.1208 171.699 56.1208C171.51 56.1208 171.318 56.1882 171.123 56.3231C170.927 56.458 170.758 56.6419 170.615 56.8748V59.9921H169.785V55.5047H170.566V56.176C170.742 55.9246 170.937 55.7315 171.152 55.5967C171.373 55.4618 171.611 55.3944 171.865 55.3944Z" fill="#024873"/>
<path d="M178.709 53.9691L180.672 59.9921H179.773L179.354 58.5944H177.001L176.581 59.9921H175.731L177.684 53.9691H178.709ZM178.182 54.6863L177.206 57.8955H179.149L178.182 54.6863Z" fill="#024873"/>
<path d="M182.851 55.3944C183.125 55.3944 183.453 55.4311 183.837 55.5047L183.818 56.1668C183.479 56.0932 183.17 56.0564 182.89 56.0564C182.305 56.0564 182.012 56.2342 182.012 56.5898V56.6725C182.012 56.7829 182.041 56.8718 182.099 56.9392C182.165 57.0066 182.278 57.0771 182.441 57.1507L183.359 57.5553C183.912 57.8005 184.189 58.1591 184.189 58.6311V58.8334C184.182 59.2564 184.046 59.5752 183.779 59.7898C183.518 59.9982 183.105 60.1024 182.539 60.1024C182.246 60.1024 181.826 60.038 181.279 59.9093L181.318 59.2104C181.807 59.3453 182.207 59.4128 182.519 59.4128C182.838 59.4128 183.06 59.3729 183.183 59.2932C183.307 59.2074 183.369 59.0695 183.369 58.8794V58.7875C183.369 58.6403 183.336 58.5239 183.271 58.438C183.213 58.3522 183.112 58.2786 182.968 58.2173L182.021 57.8219C181.735 57.6993 181.523 57.5522 181.387 57.3806C181.257 57.2089 181.191 57.0097 181.191 56.7829V56.6541C181.204 56.2373 181.341 55.9246 181.602 55.7162C181.868 55.5016 182.285 55.3944 182.851 55.3944Z" fill="#024873"/>
<path d="M186.513 55.3944C186.786 55.3944 187.115 55.4311 187.499 55.5047L187.479 56.1668C187.141 56.0932 186.832 56.0564 186.552 56.0564C185.966 56.0564 185.673 56.2342 185.673 56.5898V56.6725C185.673 56.7829 185.702 56.8718 185.761 56.9392C185.826 57.0066 185.94 57.0771 186.103 57.1507L187.02 57.5553C187.574 57.8005 187.85 58.1591 187.85 58.6311V58.8334C187.844 59.2564 187.707 59.5752 187.44 59.7898C187.18 59.9982 186.767 60.1024 186.2 60.1024C185.907 60.1024 185.488 60.038 184.941 59.9093L184.98 59.2104C185.468 59.3453 185.868 59.4128 186.181 59.4128C186.5 59.4128 186.721 59.3729 186.845 59.2932C186.968 59.2074 187.03 59.0695 187.03 58.8794V58.7875C187.03 58.6403 186.998 58.5239 186.933 58.438C186.874 58.3522 186.773 58.2786 186.63 58.2173L185.683 57.8219C185.396 57.6993 185.185 57.5522 185.048 57.3806C184.918 57.2089 184.853 57.0097 184.853 56.7829V56.6541C184.866 56.2373 185.003 55.9246 185.263 55.7162C185.53 55.5016 185.946 55.3944 186.513 55.3944Z" fill="#024873"/>
<path d="M190.495 55.3944C191.074 55.3944 191.504 55.5415 191.784 55.8357C192.07 56.1239 192.213 56.5346 192.213 57.0679V58.4288C192.213 58.9622 192.07 59.376 191.784 59.6702C191.504 59.9583 191.074 60.1024 190.495 60.1024C189.915 60.1024 189.483 59.9583 189.196 59.6702C188.916 59.376 188.776 58.9622 188.776 58.4288V57.0679C188.776 56.5346 188.916 56.1239 189.196 55.8357C189.483 55.5415 189.915 55.3944 190.495 55.3944ZM190.495 56.0472C190.215 56.0472 189.997 56.13 189.841 56.2955C189.684 56.461 189.606 56.697 189.606 57.0036V58.4932C189.606 58.7997 189.684 59.0357 189.841 59.2013C189.997 59.3668 190.215 59.4495 190.495 59.4495C190.775 59.4495 190.993 59.3668 191.149 59.2013C191.305 59.0357 191.383 58.7997 191.383 58.4932V56.9944C191.383 56.6878 191.305 56.4549 191.149 56.2955C190.993 56.13 190.775 56.0472 190.495 56.0472Z" fill="#024873"/>
<path d="M195.149 55.3944C195.442 55.3944 195.774 55.4342 196.145 55.5139L196.125 56.2036C195.748 56.1239 195.422 56.084 195.149 56.084C194.843 56.084 194.609 56.1637 194.446 56.3231C194.29 56.4825 194.212 56.7093 194.212 57.0036V58.484C194.212 58.7905 194.293 59.0235 194.456 59.1829C194.625 59.3361 194.856 59.4128 195.149 59.4128C195.331 59.4128 195.491 59.4036 195.627 59.3852C195.764 59.3668 195.93 59.3361 196.125 59.2932L196.145 59.9829C195.748 60.0626 195.413 60.1024 195.139 60.1024C193.968 60.1024 193.382 59.5446 193.382 58.4288V57.0679C193.382 55.9522 193.971 55.3944 195.149 55.3944Z" fill="#024873"/>
<path d="M198.114 55.5047V59.9921H197.284V55.5047H198.114ZM197.694 53.6932C197.87 53.6932 198.003 53.73 198.094 53.8036C198.192 53.8771 198.241 53.9813 198.241 54.1162V54.3829C198.241 54.5177 198.192 54.6219 198.094 54.6955C198.003 54.7629 197.87 54.7967 197.694 54.7967C197.525 54.7967 197.391 54.7629 197.294 54.6955C197.203 54.6219 197.157 54.5177 197.157 54.3829V54.1162C197.157 53.9813 197.203 53.8771 197.294 53.8036C197.391 53.73 197.525 53.6932 197.694 53.6932Z" fill="#024873"/>
<path d="M200.932 55.3944C201.492 55.3944 201.898 55.5139 202.152 55.753C202.413 55.9859 202.543 56.3599 202.543 56.8748V59.9921H201.752V59.2748C201.374 59.8265 200.948 60.1024 200.473 60.1024C200.095 60.1024 199.793 59.9798 199.565 59.7346C199.343 59.4894 199.233 59.1553 199.233 58.7323V58.4748C199.233 58.107 199.366 57.8036 199.633 57.5645C199.9 57.3193 200.258 57.1967 200.707 57.1967C200.955 57.1967 201.29 57.2365 201.713 57.3162V56.8104C201.713 56.5468 201.648 56.3568 201.518 56.2403C201.394 56.1239 201.199 56.0656 200.932 56.0656C200.619 56.0656 200.18 56.1116 199.614 56.2036V55.5323C200.225 55.4403 200.665 55.3944 200.932 55.3944ZM200.912 57.8036C200.639 57.8036 200.43 57.871 200.287 58.0059C200.144 58.1407 200.072 58.3308 200.072 58.576V58.6771C200.072 58.9039 200.128 59.0817 200.238 59.2104C200.349 59.3392 200.489 59.4036 200.658 59.4036C200.834 59.4036 201.013 59.3331 201.195 59.1921C201.384 59.0449 201.557 58.8396 201.713 58.576V57.8679C201.465 57.825 201.199 57.8036 200.912 57.8036Z" fill="#024873"/>
<path d="M204.839 55.5047H206.109V56.1484H204.839V58.7783C204.839 59.0112 204.888 59.1798 204.986 59.284C205.09 59.3821 205.249 59.4311 205.464 59.4311C205.738 59.4311 206.005 59.4005 206.265 59.3392L206.284 59.9921C205.998 60.0656 205.738 60.1024 205.503 60.1024C204.983 60.1024 204.602 59.9951 204.361 59.7806C204.127 59.5599 204.009 59.2043 204.009 58.7139V56.1484H203.326V55.5047H204.009L204.166 54.3093H204.839V55.5047Z" fill="#024873"/>
<path d="M207.992 55.5047V59.9921H207.162V55.5047H207.992ZM207.572 53.6932C207.748 53.6932 207.881 53.73 207.973 53.8036C208.07 53.8771 208.119 53.9813 208.119 54.1162V54.3829C208.119 54.5177 208.07 54.6219 207.973 54.6955C207.881 54.7629 207.748 54.7967 207.572 54.7967C207.403 54.7967 207.27 54.7629 207.172 54.6955C207.081 54.6219 207.035 54.5177 207.035 54.3829V54.1162C207.035 53.9813 207.081 53.8771 207.172 53.8036C207.27 53.73 207.403 53.6932 207.572 53.6932Z" fill="#024873"/>
<path d="M210.976 55.3944C211.555 55.3944 211.985 55.5415 212.265 55.8357C212.551 56.1239 212.694 56.5346 212.694 57.0679V58.4288C212.694 58.9622 212.551 59.376 212.265 59.6702C211.985 59.9583 211.555 60.1024 210.976 60.1024C210.397 60.1024 209.964 59.9583 209.677 59.6702C209.397 59.376 209.258 58.9622 209.258 58.4288V57.0679C209.258 56.5346 209.397 56.1239 209.677 55.8357C209.964 55.5415 210.397 55.3944 210.976 55.3944ZM210.976 56.0472C210.696 56.0472 210.478 56.13 210.322 56.2955C210.166 56.461 210.087 56.697 210.087 57.0036V58.4932C210.087 58.7997 210.166 59.0357 210.322 59.2013C210.478 59.3668 210.696 59.4495 210.976 59.4495C211.256 59.4495 211.474 59.3668 211.63 59.2013C211.786 59.0357 211.864 58.7997 211.864 58.4932V56.9944C211.864 56.6878 211.786 56.4549 211.63 56.2955C211.474 56.13 211.256 56.0472 210.976 56.0472Z" fill="#024873"/>
<path d="M216.04 55.3944C216.457 55.3944 216.776 55.5292 216.997 55.799C217.225 56.0626 217.339 56.4396 217.339 56.93V59.9921H216.509V57.0403C216.509 56.4273 216.297 56.1208 215.874 56.1208C215.686 56.1208 215.494 56.1882 215.298 56.3231C215.103 56.458 214.934 56.6419 214.791 56.8748V59.9921H213.961V55.5047H214.742V56.176C214.917 55.9246 215.113 55.7315 215.328 55.5967C215.549 55.4618 215.786 55.3944 216.04 55.3944Z" fill="#024873"/>
</svg>
