<svg id="Calque_1" data-name="Calque 1" xmlns="http://www.w3.org/2000/svg" viewBox="0 0 150 150"><defs><style>.cls-1{fill:#ec6c05;}.cls-2{fill:#0a8231;}.cls-3{fill:#379d32;}.cls-4{fill:#da6403;}.cls-5{fill:#c75d03;}.cls-6{fill:#f18d20;}.cls-7{fill:#2c2433;}</style></defs><path class="cls-1" d="M69.4,136.61c-1.57-4.4-2.81-8.89-4-13.41a1.14,1.14,0,0,1,0-.41,45.44,45.44,0,0,0,10-.09,3.24,3.24,0,0,0-1.69-.44c-2.89-.47-5.79-.91-8.68-1.36a22.75,22.75,0,0,1-1.07-4.67c-.61-3-1.12-6-1.66-8.94a36.2,36.2,0,0,0,11.82,1.09c-2.78-.72-5.56-1.37-8.31-2.13a21.68,21.68,0,0,0-3.72-1.07,11.12,11.12,0,0,1-.61-3.61A81,81,0,0,1,60.78,93c0-.14,0-.28,0-.42a7.07,7.07,0,0,1,1,.08,66.27,66.27,0,0,0,9.27,1.49c.85.08,1.71,0,2.57,0-4.31-1.43-8.61-2.7-12.87-4.11a41.4,41.4,0,0,1,.64-10.54c0-.06.09-.1.14-.15l3.39.66c0,.41-.09.83-.12,1.24a5.69,5.69,0,0,0,1.36,4.47A6.13,6.13,0,0,0,76.86,82.2c.44-3.89-1.8-6.25-5.68-6.36a6.75,6.75,0,0,0-5.36,2.33,26.15,26.15,0,0,1-3.6-.85,15.89,15.89,0,0,1,5.79-8,1.8,1.8,0,0,1,.93-.42,12.27,12.27,0,0,0,3.63.82c5.16,1.08,8.46,4,9.85,9.19.68,2.5,1,5,1.39,7.59-1,.45-2.17.48-3.27,1.15,1.22.29,2.24-.21,3.27-.08.07.44.17.88.21,1.33a70.29,70.29,0,0,1,.21,12L80,102.18c1.38.42,2.68-.07,4,.09a130.22,130.22,0,0,1-1.45,13.2c-1.3.56-2.78.56-4.07,1.25h3.84c0,.31-.07.62-.11.93-.61,4.2-1.55,8.33-2.38,12.48-.82.39-1.8.33-2.57,1.05h2.13a32.92,32.92,0,0,1-3.64,10.14c-1.12,1.89-1.63,2.08-3.7,1.59a28.83,28.83,0,0,1-2-4.62h5.75l0-.28C73.67,137.51,71.57,136.93,69.4,136.61Z"/><path class="cls-2" d="M88.86,50.54c-.73.47-1.44,1-2.19,1.4a6,6,0,0,0-2.8,3.71c-1.18,3.57-2.32,7.14-3.35,10.76a2.52,2.52,0,0,0,0,.62,3.32,3.32,0,0,1-.63,0,18.94,18.94,0,0,0-7.75.41q-1.8-7.23-4-14.37a5.6,5.6,0,0,0-2.88-3.47c-.4-.22-.76-.49-1.13-.74.55,0,1.06-.09.84-.86l1.36.53c.07.06.15.16.23,0s-.07-.1-.1-.15c-.67-2.52-1.83-4.84-2.72-7.27-.63-1.72-1.63-3.28-2.13-5l1.49.16c.35.56.7,1.13,1.06,1.69,0,.74.54,1.1,1,1.5l2.3,4.6c.08.16.17.33.37.26s.21-.26.23-.44c.09-.71.17-1.43.26-2.15.3.42.54,1,1.19.42,0,1.54.07,3.08,0,4.61a8.15,8.15,0,0,0,.65,3.55c1,2.21,1.8,4.46,2.55,6.74.37,1.13.83,2.23,1.24,3.35-.13-6.31-.14-12.58.17-18.84.6-.1,1.51.13,1-1-.09-.22.21-.22.36-.27l1.3-.39c.32,7.63.54,15.25,1.47,22.87.76-2,1.5-4,2.28-6a45.54,45.54,0,0,1,2.29-5.48,9.13,9.13,0,0,0,.94-6.34.78.78,0,0,0,1.19,0,1.5,1.5,0,0,0,.5,1.08c.36-.9,1.16-1.54,1.21-2.56v0a.38.38,0,0,0,.42-.2c.37-.24.75-.45,1.11-.7.51-.35.7-.75.15-1.23l1.45-1.87c0,1,.79.59,1.29.67l-2.77,5.36A34.88,34.88,0,0,0,86,50.62a11.1,11.1,0,0,0,2.26-.91C88,50.29,88.3,50.53,88.86,50.54Z"/><path class="cls-3" d="M73.17,24.75c-2-1.23-3.72-.44-5.46.53a3.3,3.3,0,0,1-.72.42c-.6.16-1.13.08-.85-.74.21-.64-.11-.68-.55-.58a3.56,3.56,0,0,1-1,.16c-.51,0-1-.08-1.06-.74s.35-1,1-1.11a15,15,0,0,1,1.65,0,2.42,2.42,0,0,0-.8-1,.9.9,0,0,1-.22-1.13c.22-.46.62-.39,1-.37a2.43,2.43,0,0,1,1.58.92A3.45,3.45,0,0,0,70,22.17c-.31-.8-1.07-1-1.62-1.41a6,6,0,0,0-4.3-1.48c-1.08.13-2-.43-2-1.06S62.91,17.06,64,17l1-.07-1.42-1.78a3,3,0,0,1-.32-.41c-.31-.66-.52-1.46,0-1.94s1.33-.17,1.86.37c.79.81,1.56,1.65,2.41,2.55A8,8,0,0,1,67.89,14c.17-.38.36-.69.79-.72s.75.29.9.72a35.35,35.35,0,0,1,.83,4.17,7.16,7.16,0,0,0,1.53,3.13,3.12,3.12,0,0,0-.39-2.36,20.65,20.65,0,0,1-.63-2c-.1-.37-.21-.8.17-1.05s.82,0,1.11.31a12,12,0,0,1,1,1.19c.15-.54.26-1,.4-1.44.08-.29.17-.49-.22-.65s-1-.22-1-.77.7-.57,1.21-.8l-1.17-1.12a.78.78,0,0,1-.25-.94.93.93,0,0,1,.94-.53,3.67,3.67,0,0,1,2.38,1.37c.28-.34.08-.71.18-1a1.23,1.23,0,0,1,1.29-1c.78,0,.8.52.78,1.08a4.8,4.8,0,0,1-.14,1.55,1.35,1.35,0,0,0,0,.82c.1.3.2.78.63.7s.33-.49.33-.81c0-.84,0-1.68,0-2.51a2.67,2.67,0,0,0-1.11-2.13,1.56,1.56,0,0,1-.57-2.09,1.71,1.71,0,0,1,2.28.11,3.82,3.82,0,0,1,1.1,1.4c.25-.89.4-1.58.63-2.23a2.8,2.8,0,0,1,1.87-2.07c.81-.23,1.18.11,1.25.9a8.33,8.33,0,0,1-.7,2.91c-.07.26-.18.5-.3.85l2.09-.9a.89.89,0,0,1,1.06.21c.33.37,0,.69-.18,1a13.22,13.22,0,0,1-2.42,2.25,18.36,18.36,0,0,0-2.95,3.09,1.23,1.23,0,0,0-.33,1c1.38-.6,2-1.94,3-2.91.53-.52,1-1.43,1.81-1s-.12,1.28,0,2.06a6.66,6.66,0,0,1,2.67-.53c.31,0,.67,0,.78.38s-.18.66-.48.83c-.91.49-1.84,1-2.8,1.45.28.42.86.8.53,1.41s-.92.53-1.48.54a13.8,13.8,0,0,0-4.25.3,2.39,2.39,0,0,0-1.11.53c-.74.39-1.25.29-1.4-.63a3.05,3.05,0,0,0-1.2-1.66c-.48-.41-.88-.58-1,.35-.06.53-.2,1.06-.24,1.66.66-.18,1.32-.21,1.63.39s-.18,1.19-.65,1.6a7.17,7.17,0,0,0-2.34,3.73A.68.68,0,0,1,73.17,24.75Z"/><path class="cls-4" d="M72.09,67.45A18.94,18.94,0,0,1,79.84,67a3.32,3.32,0,0,0,.63,0c3.1.65,6,1.68,8.31,4A16.65,16.65,0,0,1,93,79.51,14.31,14.31,0,0,1,93.42,84l-1,.25-8.59,2.26C83.38,84,83.1,81.45,82.42,79c-1.39-5.14-4.69-8.11-9.85-9.19a12.27,12.27,0,0,1-3.63-.82C69.8,68.05,71,67.9,72.09,67.45Z"/><path class="cls-4" d="M84.23,101a70.29,70.29,0,0,0-.21-12c0-.45-.14-.89-.21-1.33.45,0,.9-.08,1.35-.14l8.47-1.13c-.2,3.16-.15,6.33-.55,9.48-.12,1-.21,1.91-.29,2.87C90,99.54,87.11,100.32,84.23,101Z"/><path class="cls-3" d="M79,19.72a4.75,4.75,0,0,1,.38,2.58c.57-.6.92-1,1.34-1.39.25-.21.59-.46,1-.23a.78.78,0,0,1,.21,1c-.34.9-.73,1.79-1.11,2.69a4.23,4.23,0,0,0-.42,1.93,8,8,0,0,0,2-3.68c.31-1.18.59-2.36,1-3.52.16-.52.42-1.12,1.12-1s.66.74.83,1.22-.1.82.22,1.24A12.79,12.79,0,0,1,88,18.14c.51-.33,1.11-.81,1.68-.28s.46,1.24,0,1.9A7.76,7.76,0,0,1,87.44,22a3.69,3.69,0,0,0,1.64.22c.7.08,1.34.26,1.42,1.09s-.64,1-1.23,1.16a1.75,1.75,0,0,1-.82,0c-2.54-.51-4.17,1.17-6.2,2.38a1.56,1.56,0,0,0,1.66-.24c.64-.41,1.28-.84,1.94-1.22.46-.26,1.05-.51,1.4.06a1.14,1.14,0,0,1-.4,1.57l-.72.5a12.3,12.3,0,0,1,2.05.43A.89.89,0,0,1,88.82,29c-.1.51-.49.54-.88.53A4.49,4.49,0,0,1,86,29.37c-.25.5.46,1.08-.24,1.37-.52.22-.92-.14-1.32-.41-1.67-1.15-3.4-1.92-5.44-.94-.31,0-.68.17-.87-.25a3.38,3.38,0,0,0-.38-2.29,12.09,12.09,0,0,0-1.7-2.33c-.18-.29-.37-.57-.53-.87-.55-1.07-.26-1.56.94-1.63.17.16.37.4.6.32s.07-.41.08-.62a10.59,10.59,0,0,1,0-1.13C77.39,19.42,77.85,19.2,79,19.72Z"/><path class="cls-4" d="M82.57,115.47A130.22,130.22,0,0,0,84,102.27l8.41-1c-.19,2.73-.74,5.41-1.16,8.11-.23,1.41-.52,2.82-.78,4.23l-1.12.27A51,51,0,0,1,82.57,115.47Z"/><path class="cls-4" d="M79.85,130.13c.83-4.15,1.77-8.28,2.38-12.48,0-.31.07-.62.11-.93,2.6-.1,5.15-.56,7.73-.84-.43,1.93-.85,3.87-1.3,5.8a55.24,55.24,0,0,1-2.47,7.39c-.52.06-1,.09-1.55.18C83.11,129.51,81.51,130,79.85,130.13Z"/><path class="cls-3" d="M63.09,36.25l-1.49-.16a13.35,13.35,0,0,0-4.62.5c-1.1.26-1.46,0-1.3-1.16.08-.53-.27-.39-.47-.46a14.05,14.05,0,0,1-2.38-.68c-.22-.14-.58-.2-.55-.55s.41-.49.69-.54a5.22,5.22,0,0,1,2.35.11c0-.5-.45-.63-.58-1s-.36-.56-.11-.87.54-.19.85-.08a7.58,7.58,0,0,1,1.79,1,8,8,0,0,0,2.44,1.34l.24.1-.07-.25a13.7,13.7,0,0,0-4.83-3c-.65-.27-1.2-.69-1.82-1a.67.67,0,0,1-.36-.8c.1-.36.43-.31.69-.3.65,0,1.29.08,2,.14a24.18,24.18,0,0,1-1.54-2.29c-.19-.45-.68-.91-.09-1.39a1.3,1.3,0,0,1,1.65,0,5.5,5.5,0,0,1,1.75,1.9,1.45,1.45,0,0,0,.57.67,3.56,3.56,0,0,1,.89-1.43,1.17,1.17,0,0,1,1.6-.15,1,1,0,0,1,.29,1.47c-1.14,1.64-.35,3.12.29,4.61.08.21.19.58.45.47a.55.55,0,0,0,.21-.81,14.38,14.38,0,0,1-.68-1.5c-.19-.51-.5-1.12.26-1.42a1.25,1.25,0,0,1,1.57.68c.12.2.1.48.44.66.43-1,1.23-2,2.33-1.31s-.26,1.33-.4,2a.65.65,0,0,0,.19.11c.37.09.93-.08,1,.52s-.49.6-.84.79a4.65,4.65,0,0,0-2.24,1.77A2.14,2.14,0,0,0,63.09,36.25Z"/><path class="cls-3" d="M65,48c.22.77-.29.84-.84.86a4.09,4.09,0,0,0-3.38,2.88c-.28.82-.9.92-1.31.2-.29-.5-.42-.34-.75-.11s-.58.52-1,.54-.82.12-1-.33A.89.89,0,0,1,56.86,51a6.2,6.2,0,0,1,.44-.45,3.21,3.21,0,0,1,.39-.24c-.2-.51-.54-.37-.78-.43a1,1,0,0,1-.84-1c.1-.53.68-.63,1.19-.56s1.29.26,1.94.34a1,1,0,0,0,1.23-.47c-2-.26-3.9-.84-5.71.4a3.58,3.58,0,0,1-.84.4,1.18,1.18,0,0,1-1.58-.62c-.26-.55.2-1,.63-1.29a10.8,10.8,0,0,1,1.1-.59l-2.32-.72a2.31,2.31,0,0,1-1.07-.62c-.29-.3-.66-.58-.49-1.07s.67-.39,1.07-.41a7.71,7.71,0,0,1,3.38.84c.28-.59-.3-.8-.34-1.21s-.33-.68.05-1a.93.93,0,0,1,1.08,0,8.62,8.62,0,0,1,1.36,1.12,17.67,17.67,0,0,0,4.56,3.46c.19-.42-.06-.57-.3-.78A32.41,32.41,0,0,1,58.17,44c-.2-.22-.58-.4-.41-.77s.6-.3.94-.26a11.41,11.41,0,0,1,1.19.29c.11-.48-.27-.75-.32-1.11s-.22-1,.31-1.21a.94.94,0,0,1,1.21.34,4.62,4.62,0,0,0,.37.5c.37.36.46,1.51,1.37.42.23-.28.85-.17,1.08.41a3.51,3.51,0,0,1,.16,2.16,3.67,3.67,0,0,0,.5,3L65,48Z"/><path class="cls-4" d="M72.07,142.91c2.07.49,2.58.3,3.7-1.59a32.92,32.92,0,0,0,3.64-10.14c2,0,4.07-.35,6.12-.22A65.77,65.77,0,0,1,79,144.26a10.67,10.67,0,0,1-1.55,1.93,2,2,0,0,1-3.29,0A11,11,0,0,1,72.07,142.91Z"/><path class="cls-3" d="M76.87,39.83l-1.3.39c-.15.05-.45.05-.36.27.47,1.18-.44.95-1,1a4,4,0,0,0-4.63.59c-.65.59-.89,0-1.19-.42a6.92,6.92,0,0,0-3.16-2.27c-.5-.4-1-.76-1-1.5,1.18-.6,1.18-.6.45-1.7-.37-.56-.86-1.28-.2-1.73s1.19.24,1.62.75c.22.26.41.54.69.91.19-.59.21-1.13.6-1.49s.74-.37,1,.17a3.62,3.62,0,0,1,.24,1.63,4.76,4.76,0,0,0,.52,2.61,4.94,4.94,0,0,0,.21-3c-.16-1.16-.79-2.23-.73-3.44,0-.32-.14-.75.29-.91s.79.08,1.11.38a5.07,5.07,0,0,1,.77,1.12c.47-.13.29-.57.4-.85a11.42,11.42,0,0,1,.45-1.28c.35-.66.65-1.49,1.65-1.24.62.16.9,1.18.63,2.09-.09.3-.18.59-.28.89s-.21.57-.32.86c.53.19.91-.21,1.36-.18.63.09,1.48-.12,1.59.8s-.67,1-1.29,1.26l-.3.09c-1.75.37-2.5,1.83-3.41,3.13a.2.2,0,0,0,.09.33.46.46,0,0,0,.48-.12c.57-.45.76-1.16,1.18-1.7s.74-.94,1.45-.64c1.05,1.54,1.09,1.57,2.49,1.91A1,1,0,0,1,76.87,39.83Z"/><path class="cls-3" d="M91.16,40.07c-.5-.08-1.26.33-1.29-.67-.16-1.36-1.17-2-2.25-2.5-.33-.16-.83-.23-.8-.71s.68-.16.94-.48c0-.57-1.12-1.05-.26-1.75.56-.46,1.19-.13,2.1,1a7.11,7.11,0,0,1,.55-.74,1.06,1.06,0,0,1,1.35-.16c.45.27.21.72.08,1.13-.21.6-.89,1.1-.46,1.9a3.42,3.42,0,0,0,.7-4.12,1,1,0,0,1,.12-1.32,1.06,1.06,0,0,1,1.43,0A2.1,2.1,0,0,1,94.22,33l1.34-1.62a1.75,1.75,0,0,1,.93-.64c.47-.11,1-.26,1.39.14s0,.86-.25,1.21a18,18,0,0,1-1.18,1.58c0,.09,0,.17-.07.25l.23-.1c.44-.08.88-.17,1.32-.21a.78.78,0,0,1,.88.41c.17.44-.28.55-.55.75a25.63,25.63,0,0,1-3.16,1.54,12,12,0,0,0-2.42,1.55c0,.09-.05.17-.07.25l.23-.1a7.86,7.86,0,0,0,2.1-1.07,7,7,0,0,1,.87-.54c.42-.21.94-.56,1.3-.09s-.2.79-.45,1.13c0,.09,0,.17-.07.25l.23-.1c.63,0,1.26,0,1.88,0a.56.56,0,0,1,.54.42c.06.32-.23.42-.44.49a8.48,8.48,0,0,1-1.39.4c-.62.13-1.3,0-1.1,1.09.09.52-.58.52-1,.46A15.49,15.49,0,0,1,92.78,40,2.55,2.55,0,0,0,91.16,40.07Z"/><path class="cls-3" d="M88.86,50.54c-.56,0-.82-.25-.64-.83a1.85,1.85,0,0,0,.63-1.78,16.2,16.2,0,0,1,0-2.09c.1-.93.63-1.18,1.39-.63.33.24.39.11.54-.1a2.6,2.6,0,0,0,.26-.32c.31-.56.77-1.11,1.37-.87s.36,1,.21,1.56a.82.82,0,0,0,0,.31c.69.12,1.62-.62,2,.61,0,.15.36-.08.52-.21.43-.35.84-.72,1.3-1,.27-.18.61-.44,1-.14s.23.69,0,1l-.37.68a11.91,11.91,0,0,0,2.19-.5c.66-.07,1.55-.51,1.83.32s-.73,1.11-1.34,1.39a11.69,11.69,0,0,1-1.84.54c.35.23.65.4.91.61s.64.63.4,1.08a1.07,1.07,0,0,1-1.17.5,1.66,1.66,0,0,1-.49-.16c-2.23-1.12-2-1-5.49-.54.44.53,1,.36,1.43.25a7.38,7.38,0,0,1,1.55-.13c.34,0,.76,0,.84.43s-.26.67-.64.82-.45.18-.67.27c0,.08,0,.16.09.19.49.34,1.12.75.69,1.38s-1.11.3-1.61,0-.56-.42-.94.09-.86.23-1.06-.31A3.8,3.8,0,0,0,88.86,50.54Zm2.72-1.89a4,4,0,0,0,2.34-1.76,9,9,0,0,0-2.5,1.62l-.07.24Z"/><path class="cls-3" d="M85,44.86a.78.78,0,0,1-1.19,0c-1.2-.94-2.54-.71-3.88-.42-.62.14-1.39.52-1-.72.11-.36-.2-.26-.37-.33-.46-.2-1.31-.07-1.19-.86s.91-.56,1.47-.6h.62c-.09-.84-.23-1.77,1.14-1.58-.15-.57-.58-.64-1-.71-.72-.12-1.58-.27-1.42-1.15s1.07-.73,1.79-.55c.19.05.4.05.66.09-.19-.63-.4-1.21-.54-1.8a1.11,1.11,0,0,1,.51-1.35,1,1,0,0,1,1.32.54c.35.67.6,1.4,1,2.23.27-.4.5-.72.73-1a.74.74,0,0,1,.93-.27c.37.14.46.44.35.85-.22.87-.38,1.76-.6,2.64a3.73,3.73,0,0,0,0,2.4A1.43,1.43,0,0,0,84.87,41,4.2,4.2,0,0,1,85,39.31c.14-.33.17-.74.64-.67a.78.78,0,0,1,.66.71c0,.19-.07.42.15.57.52-.24.58-.94,1.16-1.15.37-.14.75-.34,1.07,0s0,.66-.1,1-.33.54-.49.8-.11.65.31.78c.55.48.36.88-.15,1.23-.36.25-.74.46-1.11.7a.4.4,0,0,0-.42.2v0A2.31,2.31,0,0,0,85,44.86ZM81,40.6a2.87,2.87,0,0,0,1.62,2A4.62,4.62,0,0,0,81,40.6Z"/><path class="cls-2" d="M74.59,35.67l.3-.09c.62-.23,1.38-.44,1.29-1.26s-1-.71-1.59-.8c.9-3.15.76-6.13-1.42-8.77a.68.68,0,0,0,.62-.64,28.16,28.16,0,0,1,1.71,2.36l.56-1.95a12.09,12.09,0,0,1,1.7,2.33,16.36,16.36,0,0,0-.38,3.27c.46-.3.35-.82.76-1,.19.42.56.25.87.25a26.54,26.54,0,0,0-1.45,4,16.77,16.77,0,0,0-.69,5.22c-1.4-.34-1.44-.37-2.49-1.91A1.92,1.92,0,0,1,74.59,35.67Z"/><path class="cls-4" d="M60.81,90.1c4.26,1.41,8.56,2.68,12.87,4.11-.86,0-1.72.06-2.57,0a66.27,66.27,0,0,1-9.27-1.49,7.07,7.07,0,0,0-1-.08Z"/><path class="cls-5" d="M93.63,86.34l-8.47,1.13c-.45.06-.9.09-1.35.14-1-.13-2,.37-3.27.08,1.1-.67,2.27-.7,3.27-1.15l8.59-2.26,1-.25C93.39,84.81,93.82,85.55,93.63,86.34Z"/><path class="cls-4" d="M65,80.07l-3.39-.66a4.71,4.71,0,0,1,.63-2.09,26.15,26.15,0,0,0,3.6.85,7.89,7.89,0,0,0,1,.39L74,80.49a1.64,1.64,0,0,1,1.13.62c-1.55-.11-2.92-.18-4.29-.32C68.91,80.58,67,80.31,65,80.07Z"/><path class="cls-5" d="M92.43,101.23l-8.41,1c-1.31-.16-2.61.33-4-.09l4.2-1.19c2.88-.67,5.73-1.45,8.56-2.3L92.58,101l-.18.22Z"/><path class="cls-4" d="M62.07,105.18a21.68,21.68,0,0,1,3.72,1.07c2.75.76,5.53,1.41,8.31,2.13a36.2,36.2,0,0,1-11.82-1.09C62.33,106.58,61.89,105.91,62.07,105.18Z"/><path class="cls-5" d="M90.07,115.88c-2.58.28-5.13.74-7.73.84H78.5c1.29-.69,2.77-.69,4.07-1.25a51,51,0,0,0,6.8-1.63l1.12-.27Z"/><path class="cls-4" d="M65,120.9c2.89.45,5.79.89,8.68,1.36a3.24,3.24,0,0,1,1.69.44,45.44,45.44,0,0,1-10,.09A3.47,3.47,0,0,1,65,120.9Z"/><path class="cls-5" d="M85.53,131c-2-.13-4.08.21-6.12.22H77.28c.77-.72,1.75-.66,2.57-1.05,1.66-.14,3.26-.62,4.9-.88.51-.09,1-.12,1.55-.18Z"/><path class="cls-4" d="M69.4,136.61c2.17.32,4.27.9,6.4,1.4l0,.28H70Z"/><path class="cls-2" d="M79,19.72c-1.12-.52-1.58-.3-1.79.87a10.59,10.59,0,0,0,0,1.13c0,.21.26.51-.08.62s-.43-.16-.6-.32c.36-1.33.73-2.65,1.1-4,.15.92.66,1,1.4.63Z"/><path class="cls-2" d="M65,48l-.4-.23Z"/><path class="cls-4" d="M92.4,101.23l.18-.22Z"/><path class="cls-6" d="M65,80.07c2,.24,3.93.51,5.9.72,1.37.14,2.74.21,4.29.32A1.64,1.64,0,0,0,74,80.49l-7.27-1.93a7.89,7.89,0,0,1-1-.39,6.75,6.75,0,0,1,5.36-2.33c3.88.11,6.12,2.47,5.68,6.36a6.13,6.13,0,0,1-10.64,3.58,5.69,5.69,0,0,1-1.36-4.47C64.89,80.9,64.94,80.48,65,80.07Z"/><path class="cls-7" d="M66.45,48.41c0,.05.11.13.1.15s-.16,0-.23,0Z"/><path class="cls-7" d="M59.88,33.63l.07.25-.24-.1Z"/><path class="cls-7" d="M92.84,38l-.23.1c0-.08,0-.16.07-.25Z"/><path class="cls-7" d="M96.82,37.55l-.23.1c0-.08,0-.16.07-.25Z"/><path class="cls-7" d="M96.61,33.78l-.23.1c0-.08.05-.16.07-.25Z"/></svg>