<svg xmlns="http://www.w3.org/2000/svg" xmlns:xlink="http://www.w3.org/1999/xlink" viewBox="0 0 132 132"><defs><style>.cls-1{isolation:isolate;}.cls-2{fill:#323334;}.cls-3,.cls-5{fill:#fff;}.cls-4{fill:#979797;}.cls-4,.cls-5,.cls-8{mix-blend-mode:screen;}.cls-6{fill:url(#linear-gradient);}.cls-7{fill:#cfd1d2;mix-blend-mode:multiply;}.cls-8{fill:#4a4b4c;}</style><linearGradient id="linear-gradient" x1="105.12" y1="72" x2="129.53" y2="56.34" gradientTransform="matrix(1, 0, 0, 1, 0.53, 0.08)" gradientUnits="userSpaceOnUse"><stop offset="0.29" stop-color="#9e9e9e"/><stop offset="0.38" stop-color="#aaa"/><stop offset="0.56" stop-color="#cacaca"/><stop offset="0.69" stop-color="#e6e6e6"/><stop offset="0.74" stop-color="#ececec"/><stop offset="0.87" stop-color="#f9f9f9"/><stop offset="1" stop-color="#fdfdfd"/></linearGradient></defs><g class="cls-1"><g id="Calque_1" data-name="Calque 1"><path class="cls-2" d="M141,72.88A66,66,0,1,1,74.89,7,66,66,0,0,1,141,72.88Z" transform="translate(-9 -7)"/><path class="cls-3" d="M20.05,67.27a71.33,71.33,0,0,0-5.56,17.47c-.94,5-.69,7,3.18,12.45,7.41,10.53,10.15,13.4,12.68,13s14.45-3,17.93-3.87c2.63-.64,2.63-1.28,3.68-5.86s2.72-11,3.14-14.48-.11-3.41-3.18-7.24S41.56,65.11,40.08,63.3s-2.22-1.28-5.7-.74-8.75,1.93-11.28,2.57S20.57,66.42,20.05,67.27Z" transform="translate(-9 -7)"/><path class="cls-3" d="M25.13,31.46A107.91,107.91,0,0,0,19,40.88c-1.62,3-1.12,7.23-.13,15.45s1.8,8.21,4.89,7.55,11.72-2.49,14-3,4.06-4.44,6.17-7.89A188.1,188.1,0,0,1,56.13,36.92c1.61-1.44,1.13-2.87.65-6.69s-1.63-11.76-2.67-12S45,17.9,42,17.72,31.27,23.73,25.13,31.46Z" transform="translate(-9 -7)"/><path class="cls-3" d="M56.1,86.29S52.93,99.09,51.87,104c-.52,2.91-.63,3.55,5.34,7.52s9,6.32,10.88,7.4,3.62,1.07,9.16-.23,11-2.47,13.3-3.47,5.74-8.71,7.32-13.87,2.86-9.36.62-11.19-4.9-4.61-8.53-7.07-6.72-5.69-8.1-5S66.18,82.32,60.64,83.8C58,84.54,56.3,85.18,56.1,86.29Z" transform="translate(-9 -7)"/><path class="cls-3" d="M67.3,137s2.61-10.93,3-13.58,1.36-2.76,5.15-3.4,13.86-3.63,15.64-4.27,2.86-1,5.91,1.36,9.87,7.41,12.19,9c1.68,1.16-6.11,6.81-16.27,9.58C81.17,138.84,67.2,138.75,67.3,137Z" transform="translate(-9 -7)"/><path class="cls-3" d="M58.22,34s-1.4-7.91-1.91-12.24S56.3,18,62,15.53,81.19,10,84.1,9.75s6.32.63,13.66,4.32,9.24,5,9.62,7.13,1.29,12.12,1.42,16.71c-.12,3.19-1.21,2.82-6.62,5s-10.83,4.51-12.13,5.26c-1.76.75-4.72-1-9.59-4.16a88.55,88.55,0,0,0-17-7.76C59.64,35.17,58.66,35.9,58.22,34Z" transform="translate(-9 -7)"/><path class="cls-3" d="M88.93,51.78s-2.71,12.35-4,18.66c-1.29,6-.9,7,2.75,9.71s7.82,6.69,10,8.39,3.66,3.68,10.68,1.69c8.84-2.51,11.18-3.17,13.91-4.1s3.25-2,4.29-7,1.8-12.48,2.31-16.55-.27-4.73-3.53-8S116,46.08,113.64,43.72s-4-2.62-6.9-1.56-10.66,4-13.52,5.54S89.32,49.41,88.93,51.78Z" transform="translate(-9 -7)"/><path class="cls-3" d="M136.39,56.47s-4.25,1.41-5.55,2-1.12,4.82-1.63,9.11a145.27,145.27,0,0,1-3.09,16.21c-.61,1.75,1.81,3.21,3.82,6.47,3.14,5.07,4.79,7.87,5.48,6.91s5.19-10.87,5-27.24C139.87,62.59,138.56,55.24,136.39,56.47Z" transform="translate(-9 -7)"/><path class="cls-3" d="M12.56,92.79s.62-1.8,1.16-.86,6.77,11.19,11.82,16.66c1.79,1.72,2.26,2.19,2.5,5.4s-.15,4-2,2.12S15.14,102.89,12.56,92.79Z" transform="translate(-9 -7)"/><path class="cls-3" d="M88.46,8.49s-.93-.31-1.32.08,1.79,1,5.59,2.66a91.2,91.2,0,0,1,12.19,6.32c1.71,1,2.41,1.25,3.88.62s1.94-.87.23-1.8S96.45,9.65,88.46,8.49Z" transform="translate(-9 -7)"/><path class="cls-4" d="M86.83,117.62s-8.22,2-13.5,3.21c-3.47.45-3,6.28-4.55,12.73,0,0,2.08-7.45,3.14-10.12S77.26,121.54,86.83,117.62Z" transform="translate(-9 -7)"/><path class="cls-5" d="M28.41,28.73S35.9,20.85,39,19.16s14.59-.56,14.59-.56-8.09.27-11.91.49S28.41,28.73,28.41,28.73Z" transform="translate(-9 -7)"/><path class="cls-3" d="M69.79,13.78S81.42,10.41,85,10.25,95.93,13.13,104,17.69c-8.93-4-15.58-6.53-18.3-6.53S69.79,13.78,69.79,13.78Z" transform="translate(-9 -7)"/><path class="cls-3" d="M26.23,65.42s10.41-2.65,12-2.39S52,80.08,52,80.08,41.33,67,38.2,65.4,26.23,65.42,26.23,65.42Z" transform="translate(-9 -7)"/><path class="cls-6" d="M117.68,48.09s7.1,6.64,9.18,8.74,2,2.22.15,17.52c.84-9.75,1.32-13.82-.51-16.29S117.68,48.09,117.68,48.09Z" transform="translate(-9 -7)"/><path class="cls-5" d="M53.53,92.31s-1.68,7.63-2.6,11-4.16,3-12.48,4.7c8.78-2.67,10.94-3,11.71-5.32S53.53,92.31,53.53,92.31Z" transform="translate(-9 -7)"/><path class="cls-5" d="M53.66,97.64s1.81-7.49,2.45-10.51c.91-2.9,6.63-3.3,12.62-4.89,0,0-5.59,1.85-9.24,3.3S55.86,91.86,53.66,97.64Z" transform="translate(-9 -7)"/><path class="cls-3" d="M57.14,110.94s6.56,4.67,9.44,6.6,4.48,2.09,12,.46a76.69,76.69,0,0,0,9.6-2.44s-10.56,2.28-16,2.45S57.14,110.94,57.14,110.94Z" transform="translate(-9 -7)"/><path class="cls-5" d="M85.28,72.41s3-16.22,3.9-20,7.7-5.89,14.79-8.76c0,0-8,4.14-11.17,6.22S90,54.28,85.28,72.41Z" transform="translate(-9 -7)"/><path class="cls-5" d="M91.85,85.47s4.76,3.88,6.3,5.31,1.55,5-3.18,16.47c2-7.65,4.86-14.14,2-16.73S91.85,85.47,91.85,85.47Z" transform="translate(-9 -7)"/><path class="cls-5" d="M18.49,100.12s3.8,5.18,6.45,8.11c2.3,2.39,2.77,2.8,2.78,7.64-.34-3.14-.76-4.67-2.25-6.23S18.49,100.12,18.49,100.12Z" transform="translate(-9 -7)"/><path class="cls-7" d="M74.89,7A66,66,0,1,0,141,72.88,66,66,0,0,0,74.89,7Zm-.53,118.32C41.1,125.38,14.09,99.8,14,68.17s26.86-57.3,60.13-57.36S134.43,36.34,134.49,68,107.62,125.26,74.36,125.32Z" transform="translate(-9 -7)"/><path class="cls-8" d="M64.76,40.88c1.84,2.17,1.1,5.82-1.64,8.14s-6.47,2.45-8.31.27-1.1-5.82,1.64-8.14S62.92,38.7,64.76,40.88Z" transform="translate(-9 -7)"/><path class="cls-8" d="M52.82,52.72c.82,1,.49,2.57-.72,3.61s-2.87,1.08-3.68.12a2.64,2.64,0,0,1,.72-3.61C50.36,51.81,52,51.75,52.82,52.72Z" transform="translate(-9 -7)"/></g></g></svg>