<svg xmlns="http://www.w3.org/2000/svg" xmlns:xlink="http://www.w3.org/1999/xlink" viewBox="0 0 129.64 129.63"><defs><style>.cls-1{isolation:isolate;}.cls-2,.cls-8,.cls-9{fill:#e16027;}.cls-3{fill:url(#radial-gradient);}.cls-4{fill:url(#radial-gradient-2);}.cls-5{opacity:0.3;}.cls-5,.cls-8{mix-blend-mode:multiply;}.cls-6{fill:none;}.cls-7{fill:#3b3938;}.cls-8{opacity:0.8;}.cls-9{mix-blend-mode:screen;}</style><radialGradient id="radial-gradient" cx="604.29" cy="44.27" r="65.46" gradientTransform="matrix(-0.89, -0.19, 0.19, -0.89, 620.01, 273.97)" gradientUnits="userSpaceOnUse"><stop offset="0.16" stop-color="#6c503a"/><stop offset="0.32" stop-color="#56402d"/><stop offset="0.6" stop-color="#362919"/><stop offset="0.84" stop-color="#221a0d"/><stop offset="1" stop-color="#1b1509"/></radialGradient><radialGradient id="radial-gradient-2" cx="603.92" cy="44.91" r="64.13" xlink:href="#radial-gradient"/></defs><g class="cls-1"><g id="Calque_1" data-name="Calque 1"><path class="cls-2" d="M11.58,62.58a64.41,64.41,0,0,0,3.91,37.92,2.56,2.56,0,0,1,1,2.32,64.74,64.74,0,0,0,35.76,33c1.4.05,3,.09,3.84,1.3h0c1.73.53,3.5,1,5.3,1.39a64.43,64.43,0,0,0,39.3-3.8,17.93,17.93,0,0,1,2.75-2c.77-.44,2.09-1.25,3-.81a64.7,64.7,0,0,0,30.42-37.13,4.36,4.36,0,0,1,.31-1.76,2.75,2.75,0,0,1,.47-.87q.42-1.61.78-3.24a64.59,64.59,0,0,0-1.39-32.78h0a2.91,2.91,0,0,1-.86-2.68,65.11,65.11,0,0,0-16.43-25.26,9.16,9.16,0,0,1-3.75-3.3A65,65,0,0,0,61.64,11.79,8.38,8.38,0,0,1,56.77,13a64.78,64.78,0,0,0-44.65,47.1,2.37,2.37,0,0,1,.12.79A3.35,3.35,0,0,1,11.58,62.58Z" transform="translate(-10.33 -10.37)"/><path class="cls-3" d="M110.56,89.18c0,.06,0,0,0,0Z" transform="translate(-10.33 -10.37)"/><path class="cls-4" d="M106.5,99.08l.1.11.1.08Z" transform="translate(-10.33 -10.37)"/><g class="cls-5"><path class="cls-6" d="M110.56,89.18c0,.06,0,0,0,0Z" transform="translate(-10.33 -10.37)"/><path class="cls-6" d="M106.7,99.27l-.13-.13h0s0,0,0,0Z" transform="translate(-10.33 -10.37)"/><path class="cls-6" d="M106.5,99.08l.06.07h0Z" transform="translate(-10.33 -10.37)"/></g><path class="cls-7" d="M12.23,60.92a3,3,0,0,1-.5,1.42l.8-.14L14,61.92l1.56-.26c1-.16,2.12-.35,3.22-.49s2.23-.31,3.38-.43,2.31-.26,3.5-.37,2.41-.22,3.64-.31,2.48-.17,3.75-.23,2.55-.11,3.85-.14,2.62-.06,4,0c2.66,0,5.38,0,8.15.18,5.52.26,11.21.8,17,1.64.72.1,1.44.22,2.16.34l2.15.36c1.44.24,2.88.53,4.32.8s2.88.6,4.31.94,2.87.66,4.29,1.06A152.21,152.21,0,0,1,100,70.33c1.35.51,2.66,1.06,4,1.59l2,.88,1,.43.49.21.46.22c2.56,1.18,5,2.45,7.41,3.84l.31.19c0,.12-.07.23-.12.35-.5,1.39-1,2.78-1.63,4.16S112.65,85,112,86.29c-.31.67-.67,1.36-1,2l-.26.52-.14.25,0,.07h0l-.07.13-.56,1c-.74,1.32-1.54,2.62-2.31,3.92l-.6.94a36.67,36.67,0,0,0-4.35-2.86,29.54,29.54,0,0,0-7.08-2.87A28.53,28.53,0,0,0,88,88.55a39.65,39.65,0,0,0-7.5.93,71.92,71.92,0,0,0-7.13,2C71,92.2,68.73,93,66.47,93.8S62,95.4,59.7,96.16s-4.53,1.5-6.8,2.17-4.56,1.31-6.85,1.85-4.61,1-6.94,1.4a66,66,0,0,1-7,.76,56.7,56.7,0,0,1-7,0,42.66,42.66,0,0,1-6.93-1.06c-.89-.2-1.77-.44-2.63-.7a2.54,2.54,0,0,1,1,2.25l1.11.37a46.38,46.38,0,0,0,7.2,1.55,50.2,50.2,0,0,0,7.35.45,69.2,69.2,0,0,0,7.34-.47c2.43-.28,4.85-.66,7.24-1.17s4.76-1,7.1-1.69,4.67-1.34,7-2.07,4.6-1.5,6.87-2.28,4.54-1.56,6.79-2.28,4.51-1.36,6.76-1.86A37.49,37.49,0,0,1,88,92.46a25,25,0,0,1,6.63.66,26.83,26.83,0,0,1,6.27,2.39,38.53,38.53,0,0,1,4.18,2.58q-1.26,1.86-2.59,3.66-2.67,3.66-5.64,7c-2,2.22-4,4.35-6.17,6.33s-4.33,3.86-6.58,5.58a84.18,84.18,0,0,1-13.84,8.65,87.22,87.22,0,0,1-13.64,5.4c-1.38.41-2.74.78-4.06,1.12,1.32,0,2.76.16,3.53,1.28h0l1.08-.25A81.74,81.74,0,0,0,71.53,132a82.32,82.32,0,0,0,14.66-8.5,88,88,0,0,0,13.52-12.15A96.19,96.19,0,0,0,108,100.83c.43.54.84,1.1,1.22,1.67a21.94,21.94,0,0,1,2.07,3.77,17.65,17.65,0,0,1,1.18,4.08,17.27,17.27,0,0,1,.16,4.25,20,20,0,0,1-.85,4.23,28.13,28.13,0,0,1-1.68,4.07,38.65,38.65,0,0,1-5.06,7.4q-1.47,1.74-3.09,3.34l-.48.48a16.63,16.63,0,0,1,2-1.4c.77-.45,2.09-1.26,3-.82l.09-.05.07-.08a41,41,0,0,0,5.69-7.64,24.48,24.48,0,0,0,3.14-9.24,20.32,20.32,0,0,0,0-5,21.12,21.12,0,0,0-1.24-4.84,26,26,0,0,0-2.25-4.39,29.4,29.4,0,0,0-2-2.79c.33-.52.67-1,1-1.57a83.93,83.93,0,0,0,8-16.56,88.1,88.1,0,0,1,9.3,6.87,105.67,105.67,0,0,1,8.67,8.16h0a4.37,4.37,0,0,1,.32-1.76,2.69,2.69,0,0,1,.45-.85c-.7-.8-1.42-1.59-2.17-2.38s-1.7-1.79-2.6-2.68-1.83-1.77-2.81-2.64A92.26,92.26,0,0,0,120,76.51a80.23,80.23,0,0,0,3.09-15c.11-1,.19-2.07.26-3.1a33.49,33.49,0,0,0,7.61-.68,47,47,0,0,0,6.07-1.63h0a2.88,2.88,0,0,1-.85-2.68s0,0,0,0a44.19,44.19,0,0,1-5.73,1.35,30.86,30.86,0,0,1-6.92.42c0-.79,0-1.58,0-2.36a77.29,77.29,0,0,0-.5-8.31c-.3-2.69-.72-5.29-1.24-7.77s-1.15-4.86-1.82-7.1c-.16-.53-.32-1-.49-1.55a8.49,8.49,0,0,1-3.05-2.64c.46,1.54.92,3.14,1.32,4.81.55,2.22,1,4.55,1.41,7s.72,5,.91,7.55a75.73,75.73,0,0,1,.17,8c0,.64,0,1.27-.07,1.91a15.15,15.15,0,0,1-1.51-.38,16.88,16.88,0,0,1-1.85-.65l-1-.43c-.17-.07-.32-.15-.46-.22l-.44-.23a32.66,32.66,0,0,1-3.52-2.1,41.72,41.72,0,0,1-3.33-2.53,79.76,79.76,0,0,1-6.19-5.9c-4-4.19-7.82-8.68-12-12.81-2.07-2.08-4.2-4.08-6.43-5.92-1.11-.93-2.25-1.81-3.4-2.67s-2.33-1.66-3.52-2.42a59.07,59.07,0,0,0-14.47-6.75l-.53.12A8.49,8.49,0,0,1,56.78,13l-.58.16c1.56.42,3.13.9,4.71,1.47a60.52,60.52,0,0,1,13.7,6.88,70.47,70.47,0,0,1,6.46,4.94c1.05.89,2.08,1.82,3.1,2.78s2,1.95,3,3c2,2,4,4.14,5.93,6.28s4,4.32,6,6.45a73.81,73.81,0,0,0,6.61,6.1c1.18.94,2.41,1.84,3.68,2.67a33.82,33.82,0,0,0,4,2.23l.53.24a5.57,5.57,0,0,0,.52.23l1,.43a21.17,21.17,0,0,0,2.21.73c.72.2,1.46.36,2.19.49-.09,1-.2,2-.33,3a81.11,81.11,0,0,1-2.91,13.27q-3.49-2.15-7.29-4l-.52-.26-.49-.22-1-.46-2-.91c-1.36-.58-2.73-1.18-4.12-1.74-2.76-1.1-5.57-2.16-8.43-3.09L90.75,63l-2.17-.65c-.72-.21-1.44-.44-2.17-.64l-2.19-.58a145.28,145.28,0,0,0-17.67-3.51,153.47,153.47,0,0,0-17.38-1.37c-2.82-.06-5.61,0-8.33.06-1.35,0-2.7.14-4,.21s-2.63.2-3.92.29-2.56.27-3.81.4-2.48.31-3.69.46-2.38.39-3.54.57-2.29.43-3.4.63-2.19.46-3.25.68l-1.56.35-1.49.37A1.79,1.79,0,0,1,12.23,60.92ZM106.5,99.08l.2.19-.1-.08Z" transform="translate(-10.33 -10.37)"/><path class="cls-8" d="M137.1,56.12h0a2.91,2.91,0,0,1-.86-2.68,65.11,65.11,0,0,0-16.43-25.26L119.4,28a4.1,4.1,0,0,1-.74-.41l-.12-.09c-.2-.14-.39-.29-.58-.45l-.22-.2c-.18-.18-.36-.36-.53-.55s-.21-.22-.31-.34l-.21-.25-.67-.84A64.91,64.91,0,0,0,62.18,11.69h0l-.34.08-.18,0h0a6.92,6.92,0,0,1-1.14.6l-.15.06-.44.16a9.66,9.66,0,0,1-3.13.41l-.22.07-.35.1h0A64.75,64.75,0,0,0,12.12,60.13l0,.15a1.76,1.76,0,0,1,.08.64,1.9,1.9,0,0,1,0,.25.8.8,0,0,1,0,.15,1.41,1.41,0,0,1-.06.22l-.06.18-.09.21-.09.16a2.12,2.12,0,0,1-.11.21l-.18.28a64.41,64.41,0,0,0,3.91,37.92s0,0,0,0h0a2.54,2.54,0,0,1,1,2.25h0a0,0,0,0,0,0,0,64.74,64.74,0,0,0,35.76,33h.31c.31,0,.63,0,.95,0l.11,0L54,136l.16,0,.33.07.17.05.3.11.15.07.28.15.12.09a2.36,2.36,0,0,1,.59.59h0c1.73.53,3.48,1,5.28,1.38a64.43,64.43,0,0,0,39.3-3.8c.36-.31.73-.6,1.11-.89l.37-.28a13.18,13.18,0,0,1,1.27-.83h0l.08-.05a7.5,7.5,0,0,1,1.78-.82,1.61,1.61,0,0,1,1.15.05h0a64.7,64.7,0,0,0,30.42-37.13,4.36,4.36,0,0,1,.31-1.76,2.75,2.75,0,0,1,.47-.87q.42-1.61.78-3.24A64.59,64.59,0,0,0,137.1,56.12ZM74.74,127.45c-32.66,0-59.14-25.17-59.14-56.22S42.08,15,74.74,15s59.14,25.17,59.14,56.21S107.4,127.45,74.74,127.45Z" transform="translate(-10.33 -10.37)"/><path class="cls-9" d="M63.56,28.63c2.27,5-1,11.32-7.26,14.18S43.09,44,40.82,39s1-11.32,7.27-14.18S61.3,23.65,63.56,28.63Z" transform="translate(-10.33 -10.37)"/><path class="cls-9" d="M35.36,44.27c1,2.21-.44,5-3.22,6.29s-5.85.51-6.86-1.69.44-5,3.22-6.29S34.35,42.07,35.36,44.27Z" transform="translate(-10.33 -10.37)"/></g></g></svg>