<svg id="Calque_1" data-name="Calque 1" xmlns="http://www.w3.org/2000/svg" viewBox="0 0 194.91 245.38"><defs><style>.cls-1{fill:#734b27;}.cls-2{fill:#9a4122;}.cls-3{fill:#f7eaea;}.cls-4{fill:#563923;opacity:0.17;}.cls-5{fill:#d7c3c2;opacity:0.21;}.cls-6{fill:#ecc4db;opacity:0.67;}.cls-7{fill:#502222;}.cls-8{fill:#ef6d24;}.cls-9{fill:#cd5928;}.cls-10{fill:#bb2727;}.cls-11{fill:#f06a51;}.cls-12{fill:#f69a88;}.cls-13{fill:#f69b86;}.cls-14{fill:#9b1d21;}.cls-15{fill:#d35a4a;opacity:0.44;}.cls-16{fill:#c6b1ae;opacity:0.38;}</style></defs><path class="cls-1" d="M139,138.52l22.12,13.34c.49.19,5.76-1.29,5.57-1.25-1.72.4,7-1.71,10.79-2.66l.07-2.83c-.18.18-.32.3-.32.3l-13.44-.33a3.57,3.57,0,0,1-5.18-1.08L141.37,130.5C143.59,133,139,138.52,139,138.52Z" transform="translate(-3.09 -9.51)"/><path class="cls-2" d="M176.4,139.91l-4.72,14.62s1.66,6.84,6.9,9.53c0,0,1.65.6,2.24-1.45,0,0,.56-3.2-.23-4.71,0,0,6.36,5.21,12.48,2.39,0,0,8.06-3.62,3.57-12.69C196.64,147.6,192.66,138.77,176.4,139.91Z" transform="translate(-3.09 -9.51)"/><path class="cls-3" d="M180.59,157.9s5-13,4-17.75c0,0,4.69,1,6.48,2.19,0,0-1.47,13-6.75,17.7A15,15,0,0,1,180.59,157.9Z" transform="translate(-3.09 -9.51)"/><path class="cls-4" d="M175.36,144.05c.5,0,19.93,3.28,21.81,12.41,0,0,1.71-5.28-.77-9.3a17.82,17.82,0,0,0-14.61-7.25,45.75,45.75,0,0,0-5.39,0l-1.34,4.1Z" transform="translate(-3.09 -9.51)"/><path class="cls-3" d="M67.62,172.42h.48a37.88,37.88,0,0,1-7.87-23c0-12.53,6.28-23.74,16.18-31.25a40.69,40.69,0,1,1,60.78,1.28c9,7.49,14.57,18.14,14.57,30a37.79,37.79,0,0,1-7.35,22.27c.19.05.32.11.35.17s27.69,33,10.52,62.59c0,0-5,15.92-27.4,18.86,0,0-34.33,3.91-47.76-1.82,0,0-20.2-2.09-26.57-31.71C53.55,219.78,47.14,189.56,67.62,172.42Z" transform="translate(-3.09 -9.51)"/><path class="cls-5" d="M67.61,172.52v-.1h.1l.16-.13a35.23,35.23,0,0,1-7.65-22.87c1-15.65,8.09-25.45,16.06-31.58-5.41-7.17-9.68-15.28-9.68-25.14,0-23.25,17.93-42.1,40.05-42.1,1.07,0,2.12.06,3.17.15.84.41,3.94,0,4.75.48-7.84.84-18.45,2.74-24.5,7.84-4.25,3.57-6.86,8.76-8.66,14-4.52,13.26-4.35,28.68,2.8,40.62.31.52,3.88,7.2,4.21,7.7-2.22,2.58-7.31-.71-8.74,2.39a37.63,37.63,0,0,0-3.41,18.76c.77,9.55,15.07,35.87,22.25,42.13l-1.43-.38c-3,1.63-25.83,15.14-17.19,43.15,6.62,13,17,23.93,33.2,27l.18.24c-10.9.45-24.86.25-32.33-2.94,0,0-21-2.37-27.41-32C53.55,219.78,47.85,189.75,67.61,172.52Z" transform="translate(-3.09 -9.51)"/><path class="cls-6" d="M101.74,93.3a7.08,7.08,0,0,1,4.18,1.25,5,5,0,0,1,2.31,3.63,4.91,4.91,0,0,1-1.52,3.95,6.87,6.87,0,0,1-3.14,1.42,9.61,9.61,0,0,1-4.86.34A5.48,5.48,0,0,1,95,99.82,7,7,0,0,1,96.24,94c1.25-1.47,2.81-1.34,5.5-.69" transform="translate(-3.09 -9.51)"/><path class="cls-6" d="M136.14,90.16c1.56-.26,3.44-.23,5-.5,1-.16,2.07-.26,2.77.63a3.58,3.58,0,0,1,.13,3.48,4.72,4.72,0,0,1-2.3,2.13,8,8,0,0,1-3,.79,4.36,4.36,0,0,1-2.93-.72,4,4,0,0,1-1.56-3.2c0-1.34.86-2.65,1.87-2.61" transform="translate(-3.09 -9.51)"/><path class="cls-7" d="M128.62,135.51a2.44,2.44,0,0,1,.91,2.7,3.19,3.19,0,0,1-.72,1.16,3.55,3.55,0,0,1-1.61,1,2.71,2.71,0,0,1-3.22-1.77,2.59,2.59,0,0,1,1.81-3.16c.5-.1,1,0,1.53-.11a3,3,0,0,1,.89-.08c.29.05.59.28.58.58" transform="translate(-3.09 -9.51)"/><path class="cls-7" d="M131.2,150.23a2.46,2.46,0,0,1,.92,2.7,3.29,3.29,0,0,1-.72,1.15,3.52,3.52,0,0,1-1.62,1,2.74,2.74,0,0,1-3.22-1.77,2.59,2.59,0,0,1,1.81-3.16c.5-.11,1-.05,1.53-.12a3,3,0,0,1,.89-.07.64.64,0,0,1,.59.57" transform="translate(-3.09 -9.51)"/><path class="cls-7" d="M130.83,166.31a2.44,2.44,0,0,1,.92,2.7,3.33,3.33,0,0,1-.72,1.16,3.55,3.55,0,0,1-1.61,1,2.73,2.73,0,0,1-3.23-1.77,2.59,2.59,0,0,1,1.81-3.16c.5-.1,1,0,1.53-.11a3,3,0,0,1,.89-.08.66.66,0,0,1,.59.58" transform="translate(-3.09 -9.51)"/><path class="cls-7" d="M139.68,80.09a4.62,4.62,0,0,1,1.41,4.75,5.82,5.82,0,0,1-1.11,2,5.34,5.34,0,0,1-2.48,1.81,4.15,4.15,0,0,1-5-3.11c-.6-2.3.76-5,2.8-5.54.77-.19,1.57-.09,2.35-.21a4.28,4.28,0,0,1,1.37-.13,1.07,1.07,0,0,1,.9,1" transform="translate(-3.09 -9.51)"/><path class="cls-7" d="M107.21,83.17a4.62,4.62,0,0,1,1.41,4.75,5.82,5.82,0,0,1-1.11,2A5.34,5.34,0,0,1,105,91.76a4.15,4.15,0,0,1-5-3.11c-.6-2.3.76-5,2.8-5.54.77-.19,1.57-.09,2.35-.21a4.28,4.28,0,0,1,1.37-.13,1.07,1.07,0,0,1,.9,1" transform="translate(-3.09 -9.51)"/><path class="cls-8" d="M123.21,89.55s10.41-1.68,13.35.83c0,0,6.18.38,7.16,1.59l13.88.46s-5.95,8.67-15.91,5.59c-.3-.09-8.45.75-11.47,1.86,0,0-6.41.94-8.52-2.42,0,0-2-3.07.46-7.08A1.87,1.87,0,0,1,123.21,89.55Z" transform="translate(-3.09 -9.51)"/><path class="cls-9" d="M157.36,92.75h0l.15-.12Z" transform="translate(-3.09 -9.51)"/><path class="cls-9" d="M122,90.65c0,.13.1.25.16.38a4.07,4.07,0,0,0,3.73,2c1.41,0,2.87-.22,4.2.35a16.81,16.81,0,0,1,1.54.87c4.91,2.74,10.67-.92,16,.2,1.59.33,3.15,1.1,4.76,1,1.83-.14,3.46-1.4,5-2.66h0l-1,.86.42-.13c-2,2.21-7.3,6.94-15.06,4.54-.3-.09-8.45.75-11.47,1.86,0,0-6.41.94-8.52-2.42A6.83,6.83,0,0,1,122,90.65Z" transform="translate(-3.09 -9.51)"/><path class="cls-9" d="M157.36,92.75c-.14.18-.34.43-.61.73l-.42.13Z" transform="translate(-3.09 -9.51)"/><path class="cls-9" d="M143.72,92s.48.39-.15,1.37a4.67,4.67,0,0,0-.54-1.81S143.61,91.74,143.72,92Z" transform="translate(-3.09 -9.51)"/><path class="cls-9" d="M136.56,90.38a3.14,3.14,0,0,0-.26,3,4,4,0,0,1-.57-3.45Z" transform="translate(-3.09 -9.51)"/><path class="cls-9" d="M127.32,89.1s-1.28,2-.38,3.43c0,0-1.47-1.87-1.06-3.31Z" transform="translate(-3.09 -9.51)"/><path class="cls-10" d="M125.93,48s7.7,5.64,4.81,11.76c0,0-18.77,19.34-58.25,12.15,0,0-2.7-.78-2-5.83,0,0,0-5.83,1.54-7.58,0,0,20.31,5.34,39.38-3.79C111.39,54.7,122.27,52.27,125.93,48Z" transform="translate(-3.09 -9.51)"/><path class="cls-11" d="M72.59,14.46S86.84,13.69,98,19.91c0,0,23.87,16.91,27.92,28.08,0,0-10.21,12.73-36.59,11.76,0,0-14.83.58-17.33-1.26,0,0,.19-11.57,2.31-19,0,0,3.08-14,0-19.63l-4-3.89Z" transform="translate(-3.09 -9.51)"/><path class="cls-12" d="M118.32,37.19s-16,15.61-45.73,11.53L72,58.49s13.44,5.68,31.64.43c0,0,14.24-2.47,22.28-10.93C125.93,48,123.48,41.34,118.32,37.19Z" transform="translate(-3.09 -9.51)"/><path class="cls-12" d="M108.54,28.18s-5.62,6.31-18.27,9.52a63.18,63.18,0,0,1-16,1.84s1.06-6.06,1.1-7.46c0,0,16.27-2.9,21.9-12.52a4.67,4.67,0,0,1,1.37.8C101.39,22.35,107.2,26.72,108.54,28.18Z" transform="translate(-3.09 -9.51)"/><path class="cls-13" d="M85.09,15.48s-3.46,9.72-9.53,9.13c0,0-1.39-5-2.69-6.06l-3-2.63,2.75-1.46A59.64,59.64,0,0,1,85.09,15.48Z" transform="translate(-3.09 -9.51)"/><path class="cls-14" d="M101.69,72.62c-1.34-.81-4.31-1.53-5.76-2.12a6,6,0,0,1-3.59-4.79A3.47,3.47,0,0,1,93.05,63c1.19-1.28,3.85-1,4.45-2.67a2.59,2.59,0,0,0-.93.09c-8.95,1.46-16.94.2-23.92-1.64a1.64,1.64,0,0,0-1,0,1.59,1.59,0,0,0-.71.74,11.89,11.89,0,0,0-1,5.59c0,2.25,0,4.77,1.64,6.33,1.23,1.2,3,1.49,4.74,1.7,5.66.69,11.23.33,16.93.35a45.8,45.8,0,0,0,8.45-.88" transform="translate(-3.09 -9.51)"/><path class="cls-15" d="M74.28,59.22a6,6,0,0,1-2.13-.73s.06-3.54.47-8l.11-1.82h.08a57.64,57.64,0,0,1,1.65-9.19s1.06-6.06,1.1-7.46h0a39.72,39.72,0,0,0,.1-7.47c-.09-.31-1.42-5.07-2.68-6.05l-3-2.63,2.09-1.11a16.19,16.19,0,0,1,7.59,6,17.91,17.91,0,0,1,3.82,9.53c.32,7-5,12.83-6.72,19.59A5.51,5.51,0,0,0,77,54.25c1.24,2,4,2,6.31,2,6.79.24,13.47,3,20.17,2.7A53.2,53.2,0,0,1,74.28,59.22Z" transform="translate(-3.09 -9.51)"/><path class="cls-3" d="M63.2,14.32A4.77,4.77,0,1,0,68,9.51,4.79,4.79,0,0,0,63.2,14.32Z" transform="translate(-3.09 -9.51)"/><path class="cls-16" d="M71.57,14.56a1.29,1.29,0,0,1-1.11.48,8.94,8.94,0,0,1-3.5-.22,3.47,3.47,0,0,1-2.37-2.53,9.28,9.28,0,0,0-.58,3,3.07,3.07,0,0,0,1.3,2.58,3,3,0,0,0,1.21.34A5.69,5.69,0,0,0,72,14.92" transform="translate(-3.09 -9.51)"/><path class="cls-1" d="M139.38,102.85s-1.9-1.3-2.56-.95c0,0-2.26,4.36-4.07,5.3l-3.32-1.36s-1.35.53-1,1.35l2.61,1.29s-3.26,3.72-11.53,2.6a1.36,1.36,0,0,1-1-1l-1.25-3.29-1,.31,1.45,3.26a12.56,12.56,0,0,1-7.66-8l-.76.36s.65,2.59,1.33,3.11l-1.41-.68,0,1,2.16,1s3.39,4.84,5.8,4.66c.18,0-.57.25-.57.25l-3.58-.2.6,1.47a18.28,18.28,0,0,0,4-.89s5.06,1.38,7.31,0l.42.12s-3,2.39-4.71,2.71l-.64.52,1.06,1.06s4.19-2,5.59-4.47A19.52,19.52,0,0,0,139.38,102.85Z" transform="translate(-3.09 -9.51)"/><path class="cls-1" d="M27.82,128.21a2.85,2.85,0,0,0,1.36,1.73s.1,0,.13.08a204,204,0,0,0,15.37,14.61s2.13,2.67,11.7,2.07L75.72,143s5.74,3.88,4.32,8.74c0,0-14.57,2.41-22.9,2,0,0-9.11.21-13.06-3.44,0,0-18.21-17.52-18.55-18A7.05,7.05,0,0,0,22,130.22c1.13-1.28,3.13-3.94,5.05-6.39Z" transform="translate(-3.09 -9.51)"/><path class="cls-1" d="M3.45,126.34l-.36-.21S3.75,126.45,3.45,126.34Z" transform="translate(-3.09 -9.51)"/><path class="cls-2" d="M20.15,133.06,32,123.39s2.25-6.65-.72-11.77a1.71,1.71,0,0,0-2.66,0s-2.18,2.37-2.33,4.07c0,0-2.57-7.86-9.23-8.86,0,0-8.73-1.38-9.8,8.69C7.22,115.51,5.85,125.09,20.15,133.06Z" transform="translate(-3.09 -9.51)"/><path class="cls-3" d="M26.25,115.68s-11.13,8.15-12.85,12.7c0,0-3.42-3.41-4.29-5.39,0,0,8.22-10.13,15.16-11.14A15.33,15.33,0,0,1,26.25,115.68Z" transform="translate(-3.09 -9.51)"/><path class="cls-4" d="M23.25,130.16c-.44-.26-15-13.69-11.74-22.37,0,0-4.27,3.49-4.32,8.22a18.12,18.12,0,0,0,8.43,14.09,46.69,46.69,0,0,0,4.53,3l3.33-2.71Z" transform="translate(-3.09 -9.51)"/></svg>