<svg id="Calque_1" data-name="Calque 1" xmlns="http://www.w3.org/2000/svg" viewBox="0 0 77.17 47.03"><defs><style>.cls-1{fill:#734b27;}.cls-2{fill:#9a4122;}.cls-3{fill:#f7eaea;}.cls-4{fill:#563923;opacity:0.17;}</style></defs><path class="cls-1" d="M31.4,24.22a2.8,2.8,0,0,0,1.36,1.72.91.91,0,0,1,.13.08A204,204,0,0,0,48.26,40.63S50.39,43.3,60,42.71L79.3,39s5.74,3.89,4.32,8.74c0,0-14.57,2.41-22.91,2,0,0-9.1.21-13.06-3.43,0,0-18.21-17.53-18.54-18a7.19,7.19,0,0,0-3.54-2.08c1.13-1.28,3.13-3.94,5-6.38Z" transform="translate(-6.67 -2.76)"/><path class="cls-1" d="M7,22.34l-.36-.21S7.33,22.45,7,22.34Z" transform="translate(-6.67 -2.76)"/><path class="cls-2" d="M23.73,29.07l11.8-9.68s2.26-6.65-.71-11.77a1.72,1.72,0,0,0-2.67,0S30,10,29.83,11.68c0,0-2.57-7.85-9.24-8.85,0,0-8.73-1.39-9.79,8.68C10.8,11.51,9.43,21.1,23.73,29.07Z" transform="translate(-6.67 -2.76)"/><path class="cls-3" d="M29.83,11.68S18.7,19.84,17,24.38c0,0-3.42-3.41-4.3-5.39,0,0,8.23-10.13,15.17-11.14A15.52,15.52,0,0,1,29.83,11.68Z" transform="translate(-6.67 -2.76)"/><path class="cls-4" d="M26.82,26.17c-.43-.27-15-13.69-11.73-22.38,0,0-4.27,3.49-4.33,8.22a18.18,18.18,0,0,0,8.43,14.1,47.65,47.65,0,0,0,4.54,3l3.32-2.71Z" transform="translate(-6.67 -2.76)"/></svg>